<svg width="24" height="24" viewBox="0 0 24 24" fill="none" xmlns="http://www.w3.org/2000/svg">
<path d="M18.4366 6.41035C17.258 5.85967 15.9977 5.45945 14.6801 5.23157C14.5183 5.52371 14.3293 5.91665 14.1989 6.22922C12.7983 6.01889 11.4105 6.01889 10.0357 6.22922C9.90536 5.91665 9.71202 5.52371 9.54876 5.23157C8.22975 5.45945 6.96803 5.86114 5.78937 6.41327C3.412 10.0007 2.76754 13.499 3.08977 16.9477C4.66657 18.1235 6.19467 18.8378 7.69698 19.3052C8.06791 18.7954 8.39873 18.2535 8.68372 17.6824C8.14094 17.4764 7.62108 17.2223 7.12987 16.9272C7.26018 16.8308 7.38765 16.73 7.51081 16.6263C10.5068 18.0256 13.7621 18.0256 16.7224 16.6263C16.847 16.73 16.9744 16.8308 17.1033 16.9272C16.6106 17.2237 16.0894 17.4779 15.5466 17.6839C15.8316 18.2535 16.161 18.7969 16.5333 19.3066C18.0371 18.8392 19.5666 18.125 21.1434 16.9477C21.5215 12.9498 20.4975 9.48361 18.4366 6.41035ZM9.09189 14.8268C8.19251 14.8268 7.45494 13.9883 7.45494 12.9673C7.45494 11.9463 8.17676 11.1064 9.09189 11.1064C10.007 11.1064 10.7446 11.9448 10.7288 12.9673C10.7303 13.9883 10.007 14.8268 9.09189 14.8268ZM15.1413 14.8268C14.2419 14.8268 13.5043 13.9883 13.5043 12.9673C13.5043 11.9463 14.2261 11.1064 15.1413 11.1064C16.0564 11.1064 16.794 11.9448 16.7782 12.9673C16.7782 13.9883 16.0564 14.8268 15.1413 14.8268Z" fill="white"/>
</svg>
