<svg width="84" height="23" viewBox="0 0 84 23" fill="none" xmlns="http://www.w3.org/2000/svg">
<g clip-path="url(#clip0_530_3950)">
<path d="M17.8163 4.7419C16.4587 4.1067 15.0071 3.64506 13.4894 3.3822C13.303 3.71918 13.0853 4.17242 12.9351 4.53298C11.3218 4.29036 9.72336 4.29036 8.13972 4.53298C7.98962 4.17242 7.76692 3.71918 7.57887 3.3822C6.05957 3.64506 4.60626 4.1084 3.24863 4.74527C0.510273 8.88328 -0.23205 12.9185 0.139112 16.8965C1.95533 18.2528 3.71547 19.0767 5.44591 19.6158C5.87316 19.0278 6.25421 18.4027 6.58248 17.7439C5.95728 17.5064 5.35848 17.2132 4.79268 16.8729C4.94278 16.7617 5.08961 16.6454 5.23146 16.5258C8.68244 18.1399 12.432 18.1399 15.8418 16.5258C15.9853 16.6454 16.1321 16.7617 16.2805 16.8729C15.7131 17.2149 15.1126 17.508 14.4874 17.7456C14.8157 18.4027 15.1951 19.0295 15.624 19.6175C17.3561 19.0783 19.1179 18.2545 20.9341 16.8965C21.3696 12.285 20.1901 8.28684 17.8163 4.7419ZM7.05263 14.4501C6.01668 14.4501 5.16712 13.4829 5.16712 12.3052C5.16712 11.1275 5.99854 10.1587 7.05263 10.1587C8.10675 10.1587 8.95628 11.1258 8.93814 12.3052C8.93978 13.4829 8.10675 14.4501 7.05263 14.4501ZM14.0206 14.4501C12.9846 14.4501 12.1351 13.4829 12.1351 12.3052C12.1351 11.1275 12.9665 10.1587 14.0206 10.1587C15.0747 10.1587 15.9242 11.1258 15.9061 12.3052C15.9061 13.4829 15.0747 14.4501 14.0206 14.4501Z" fill="#E0E3E0"/>
<path d="M28.2334 7.52393H32.7367C33.8223 7.52393 34.7394 7.69746 35.4918 8.04286C36.2422 8.38824 36.8048 8.87012 37.1777 9.48677C37.5503 10.1034 37.7384 10.8094 37.7384 11.6046C37.7384 12.383 37.5437 13.089 37.1545 13.7208C36.7652 14.3543 36.1729 14.8547 35.3763 15.2237C34.5796 15.5927 33.5929 15.778 32.4136 15.778H28.2334V7.52393ZM32.3673 13.6804C33.0981 13.6804 33.6607 13.4934 34.0532 13.121C34.4459 12.747 34.6423 12.2381 34.6423 11.5929C34.6423 10.9947 34.4672 10.5179 34.1176 10.1607C33.768 9.80351 33.2384 9.62325 32.5306 9.62325H31.1218V13.6804H32.3673Z" fill="#E0E3E0"/>
<path d="M44.4806 15.768C43.857 15.6028 43.2944 15.3636 42.7947 15.0485V13.0907C43.1725 13.3889 43.6787 13.6349 44.3138 13.8287C44.9489 14.0208 45.5627 14.1168 46.1564 14.1168C46.4336 14.1168 46.6432 14.0797 46.7849 14.0056C46.9269 13.9315 46.9979 13.8422 46.9979 13.7394C46.9979 13.6214 46.96 13.5237 46.8824 13.4445C46.8047 13.3653 46.6547 13.2996 46.4321 13.244L45.0464 12.9256C44.2529 12.7369 43.6902 12.4757 43.3556 12.1404C43.0207 11.8068 42.8539 11.3688 42.8539 10.8263C42.8539 10.3696 42.9991 9.97373 43.2929 9.63506C43.5847 9.29641 44.0005 9.03525 44.5398 8.85159C45.0794 8.66627 45.7094 8.57361 46.4336 8.57361C47.0802 8.57361 47.6724 8.64436 48.212 8.7859C48.7514 8.92743 49.1967 9.1077 49.5515 9.32841V11.1801C49.1884 10.9594 48.7727 10.7858 48.2977 10.6544C47.8242 10.5247 47.3378 10.4606 46.8361 10.4606C46.1119 10.4606 45.7508 10.587 45.7508 10.838C45.7508 10.956 45.8068 11.0436 45.9189 11.1026C46.0311 11.1615 46.2372 11.2222 46.5359 11.2862L47.6905 11.4985C48.4446 11.6316 49.007 11.8658 49.3764 12.1994C49.7461 12.533 49.9307 13.0267 49.9307 13.6804C49.9307 14.3965 49.6257 14.9643 49.0136 15.3855C48.4015 15.8067 47.5338 16.0173 46.4088 16.0173C45.7473 16.0156 45.1042 15.9331 44.4806 15.768Z" fill="#E0E3E0"/>
<path d="M52.6562 15.5203C51.995 15.1901 51.495 14.7419 51.1618 14.1758C50.8286 13.6097 50.6604 12.9728 50.6604 12.2651C50.6604 11.5575 50.8335 10.924 51.1799 10.3663C51.5264 9.80863 52.0344 9.37057 52.7042 9.05214C53.3738 8.7337 54.1739 8.57532 55.106 8.57532C56.2606 8.57532 57.2192 8.823 57.9813 9.31833V11.4767C57.7125 11.2879 57.3988 11.1346 57.0409 11.0167C56.683 10.8987 56.3003 10.8398 55.8912 10.8398C55.1753 10.8398 54.6161 10.9729 54.2119 11.2408C53.8077 11.5086 53.605 11.8574 53.605 12.2904C53.605 12.715 53.8011 13.0621 54.1938 13.3351C54.5865 13.6063 55.1555 13.7428 55.9027 13.7428C56.2871 13.7428 56.6666 13.6855 57.0409 13.5726C57.4138 13.458 57.7355 13.3182 58.0043 13.1531V15.2406C57.1582 15.7595 56.1767 16.019 55.0597 16.019C54.1196 16.0156 53.3178 15.8505 52.6562 15.5203Z" fill="#E0E3E0"/>
<path d="M60.8615 15.5204C60.1951 15.1902 59.687 14.7386 59.3372 14.1641C58.9876 13.5895 58.811 12.9493 58.811 12.2416C58.811 11.534 58.9858 10.9022 59.3372 10.3479C59.6885 9.79355 60.1933 9.35885 60.8566 9.04378C61.5179 8.72871 62.3082 8.57202 63.2236 8.57202C64.1393 8.57202 64.9293 8.72871 65.5909 9.04378C66.2524 9.35885 66.7573 9.79019 67.1037 10.3411C67.4501 10.8921 67.6232 11.5239 67.6232 12.24C67.6232 12.9476 67.4501 13.5879 67.1037 14.1624C66.7573 14.7369 66.2507 15.1885 65.5843 15.5187C64.9178 15.8489 64.1309 16.014 63.2222 16.014C62.3131 16.014 61.5262 15.8506 60.8615 15.5204ZM64.3701 13.4278C64.6507 13.1414 64.7925 12.7623 64.7925 12.2905C64.7925 11.8188 64.6522 11.443 64.3701 11.165C64.0898 10.8853 63.7069 10.7455 63.2222 10.7455C62.7288 10.7455 62.3427 10.8853 62.0606 11.165C61.7803 11.4447 61.64 11.8188 61.64 12.2905C61.64 12.7623 61.7803 13.1414 62.0606 13.4278C62.3412 13.7142 62.7288 13.8591 63.2222 13.8591C63.7069 13.8574 64.0898 13.7142 64.3701 13.4278Z" fill="#E0E3E0"/>
<path d="M74.5615 9.00997V11.5575C74.268 11.3603 73.8885 11.2626 73.4184 11.2626C72.8029 11.2626 72.3279 11.453 71.9979 11.8338C71.6664 12.2146 71.5014 12.8076 71.5014 13.6096V15.7797H68.6724V8.88025H71.4439V11.0739C71.5971 10.2719 71.8464 9.68057 72.1894 9.29808C72.5309 8.91731 72.9728 8.72693 73.5107 8.72693C73.9181 8.72693 74.268 8.82129 74.5615 9.00997Z" fill="#E0E3E0"/>
<path d="M83.961 7.28809V15.7798H81.1317V14.2348C80.8925 14.8161 80.5296 15.2592 80.0415 15.5624C79.553 15.864 78.9493 16.0157 78.2334 16.0157C77.5934 16.0157 77.0359 15.8573 76.559 15.5389C76.0823 15.2204 75.7146 14.7841 75.4556 14.2297C75.1982 13.6754 75.0677 13.0486 75.0677 12.3477C75.0597 11.6249 75.1965 10.9763 75.4786 10.4017C75.7592 9.82717 76.1565 9.37902 76.6679 9.05719C77.1794 8.73539 77.7633 8.57364 78.4182 8.57364C79.766 8.57364 80.6699 9.17176 81.1317 10.3663V7.28809H83.961ZM80.7096 13.3806C80.9983 13.0941 81.1417 12.7218 81.1417 12.2669C81.1417 11.8271 81.0014 11.4682 80.7211 11.1936C80.4405 10.919 80.0561 10.7808 79.5728 10.7808C79.0962 10.7808 78.7152 10.9207 78.4297 11.2003C78.1443 11.48 78.0025 11.8423 78.0025 12.2904C78.0025 12.7386 78.1443 13.1042 78.4297 13.3873C78.7152 13.6703 79.0913 13.8119 79.5613 13.8119C80.038 13.8102 80.4207 13.667 80.7096 13.3806Z" fill="#E0E3E0"/>
<path d="M40.1224 9.61479C40.9012 9.61479 41.5329 9.03545 41.5329 8.32081C41.5329 7.60617 40.9012 7.02686 40.1224 7.02686C39.3433 7.02686 38.7119 7.60617 38.7119 8.32081C38.7119 9.03545 39.3433 9.61479 40.1224 9.61479Z" fill="#E0E3E0"/>
<path d="M38.7107 10.5061C39.5749 10.8869 40.6473 10.9037 41.5314 10.5061V15.8168H38.7107V10.5061Z" fill="#E0E3E0"/>
</g>
<defs>
<clipPath id="clip0_530_3950">
<rect width="83.95" height="23" fill="white" transform="translate(0.0500488)"/>
</clipPath>
</defs>
</svg>
