<svg width="24" height="24" viewBox="0 0 24 24" fill="none" xmlns="http://www.w3.org/2000/svg">
<path fill-rule="evenodd" clip-rule="evenodd" d="M0.702509 15.9862C0.314658 16.3794 0.314659 17.0169 0.70251 17.41L2.7187 19.4539L4.50969 21.2695L6.50089 23.2881C6.88874 23.6813 7.51757 23.6813 7.90542 23.2881L8.49855 22.6868C8.8864 22.2936 8.8864 21.6562 8.49854 21.263L2.70017 15.3849C2.31232 14.9918 1.68349 14.9918 1.29564 15.3849L0.702509 15.9862Z" fill="#303030"/>
<path fill-rule="evenodd" clip-rule="evenodd" d="M23.2979 15.9862C23.6858 16.3794 23.6858 17.0169 23.2979 17.41L21.2818 19.4539L19.4908 21.2695L17.4996 23.2881C17.1117 23.6813 16.4829 23.6813 16.095 23.2881L15.5019 22.6868C15.1141 22.2936 15.1141 21.6562 15.5019 21.263L21.3003 15.3849C21.6881 14.9918 22.317 14.9918 22.7048 15.3849L23.2979 15.9862Z" fill="#303030"/>
<path fill-rule="evenodd" clip-rule="evenodd" d="M6.94833 19.6915L10.5967 15.992L12.0002 14.5688L14.3694 12.1664L15.7747 10.7414L18.382 8.09762C19.7839 6.67643 19.919 4.45732 18.7873 2.88238L13.4053 8.33945L12.0002 9.76417L9.63105 12.1664L8.2272 13.5899L4.57872 17.2893L6.94833 19.6915ZM18.1191 0.712001C18.507 0.318823 19.1358 0.318819 19.5237 0.711987L19.7865 0.978393C22.1137 3.33746 22.1137 7.16234 19.7866 9.52145L17.1789 12.1649L15.7733 13.5899L13.4037 15.992L12.0002 17.4147L7.42634 22.0515C7.03849 22.4446 6.40966 22.4446 6.02181 22.0515L2.24767 18.2255C1.85982 17.8323 1.85982 17.1948 2.24767 16.8017L6.82154 12.1649L8.22572 10.7414L10.5951 8.33945L12.0002 6.91503L18.1191 0.712001Z" fill="#303030"/>
<path d="M23.1274 22.7234C23.5152 22.3302 23.5152 21.6927 23.1274 21.2996L21.2818 19.4539L19.4908 21.2695L21.3364 23.1152C21.7242 23.5083 22.3531 23.5083 22.7409 23.1152L23.1274 22.7234Z" fill="#303030"/>
<path d="M0.873073 21.2996C0.485222 21.6927 0.485222 22.3302 0.873073 22.7234L1.25953 23.1152C1.64738 23.5083 2.27621 23.5083 2.66406 23.1152L4.50969 21.2695L2.7187 19.4539L0.873073 21.2996Z" fill="#303030"/>
<path fill-rule="evenodd" clip-rule="evenodd" d="M6.02181 22.0515L2.24767 18.2255C1.85982 17.8323 1.85982 17.1948 2.24767 16.8017L6.82154 12.1649L4.2139 9.52144C1.88677 7.16234 1.8868 3.33746 4.21398 0.978393L4.47679 0.711987C4.86464 0.318819 5.49346 0.318823 5.88131 0.712001L12.0002 6.91503L18.1191 0.712001C18.507 0.318823 19.1358 0.318819 19.5237 0.711987L19.7865 0.978393C22.1137 3.33746 22.1137 7.16234 19.7866 9.52145L17.1789 12.1649L21.7528 16.8017C22.1406 17.1948 22.1406 17.8323 21.7528 18.2255L17.9786 22.0515C17.5908 22.4446 16.962 22.4446 16.5741 22.0515L12.0002 17.4147L7.42634 22.0515C7.03849 22.4446 6.40966 22.4446 6.02181 22.0515ZM13.4037 15.992L17.0521 19.6915L19.4217 17.2893L15.7733 13.5899L13.4037 15.992ZM10.5951 8.33945L5.2132 2.88238C4.08144 4.45732 4.21651 6.67643 5.61844 8.09762L8.22572 10.7414L10.5951 8.33945ZM12.0002 14.5688L14.3694 12.1664L15.7747 10.7414L18.382 8.09762C19.7839 6.67643 19.919 4.45732 18.7873 2.88238L13.4053 8.33945L12.0002 9.76417L9.63105 12.1664L8.2272 13.5899L4.57872 17.2893L6.94833 19.6915L10.5967 15.992L12.0002 14.5688Z" fill="#303030"/>
<path d="M4.57872 17.2893L6.94833 19.6915L10.5967 15.992L12.0002 14.5688L14.3694 12.1664L15.7747 10.7414L18.382 8.09762C19.7839 6.67643 19.919 4.45732 18.7873 2.88238L13.4053 8.33945L12.0002 9.76417L9.63105 12.1664L8.2272 13.5899L4.57872 17.2893Z" fill="#303030"/>
</svg>
