<svg width="24" height="24" viewBox="0 0 24 24" fill="none" xmlns="http://www.w3.org/2000/svg">
<path d="M20.7785 8.51822C20.7358 7.55074 20.5794 6.88561 20.3552 6.30926C20.1239 5.69748 19.7682 5.14976 19.3021 4.69443C18.8467 4.23202 18.2952 3.87271 17.6904 3.64511C17.1106 3.42099 16.4488 3.26454 15.4812 3.22188C14.5063 3.17562 14.1968 3.16492 11.7242 3.16492C9.25156 3.16492 8.94207 3.17562 7.97079 3.21827C7.00313 3.26093 6.33786 3.41752 5.76154 3.6415C5.14951 3.87271 4.60168 4.22841 4.14627 4.69443C3.68376 5.14976 3.32452 5.70109 3.09674 6.30578C2.87258 6.88561 2.7161 7.54713 2.67343 8.5146C2.62716 9.48931 2.61646 9.79874 2.61646 12.2709C2.61646 14.743 2.62716 15.0524 2.66982 16.0235C2.71249 16.991 2.86911 17.6561 3.09327 18.2325C3.32452 18.8442 3.68376 19.392 4.14627 19.8473C4.60168 20.3097 5.15312 20.669 5.75793 20.8966C6.33786 21.1207 6.99951 21.2772 7.96732 21.3198C8.93846 21.3626 9.24809 21.3732 11.7207 21.3732C14.1933 21.3732 14.5028 21.3626 15.4741 21.3198C16.4417 21.2772 17.107 21.1207 17.6833 20.8966C18.9072 20.4235 19.8749 19.456 20.3481 18.2325C20.5721 17.6526 20.7288 16.991 20.7714 16.0235C20.8141 15.0524 20.8248 14.743 20.8248 12.2709C20.8248 9.79874 20.8212 9.48931 20.7785 8.51822ZM19.1385 15.9524C19.0993 16.8416 18.9499 17.3218 18.8254 17.6419C18.5194 18.4352 17.8897 19.0648 17.0963 19.3707C16.7761 19.4952 16.2923 19.6446 15.4064 19.6836C14.4458 19.7264 14.1577 19.737 11.7278 19.737C9.29784 19.737 9.00614 19.7264 8.04903 19.6836C7.15961 19.6446 6.67932 19.4952 6.35913 19.3707C5.96431 19.2248 5.60492 18.9936 5.31322 18.6913C5.01081 18.396 4.77956 18.0403 4.63364 17.6456C4.50912 17.3254 4.35973 16.8416 4.32068 15.956C4.27787 14.9956 4.26731 14.7074 4.26731 12.2779C4.26731 9.84848 4.27787 9.55684 4.32068 8.60006C4.35973 7.7108 4.50912 7.23061 4.63364 6.91048C4.77956 6.51559 5.01081 6.15642 5.31683 5.86463C5.61201 5.56229 5.96778 5.33108 6.36274 5.18533C6.68293 5.06083 7.16684 4.91146 8.05265 4.87228C9.01323 4.82963 9.30146 4.81893 11.7313 4.81893C14.1648 4.81893 14.4529 4.82963 15.41 4.87228C16.2994 4.91146 16.7797 5.06083 17.0999 5.18533C17.4947 5.33108 17.8541 5.56229 18.1458 5.86463C18.4482 6.15989 18.6795 6.51559 18.8254 6.91048C18.9499 7.23061 19.0993 7.71428 19.1385 8.60006C19.1812 9.56045 19.1919 9.84848 19.1919 12.2779C19.1919 14.7074 19.1812 14.992 19.1385 15.9524Z" fill="white"/>
<path d="M11.7241 7.59337C9.14126 7.59337 7.04569 9.6884 7.04569 12.2708C7.04569 14.8533 9.14126 16.9483 11.7241 16.9483C14.307 16.9483 16.4024 14.8533 16.4024 12.2708C16.4024 9.6884 14.307 7.59337 11.7241 7.59337ZM11.7241 15.305C10.0485 15.305 8.68932 13.9462 8.68932 12.2708C8.68932 10.5954 10.0485 9.23668 11.7241 9.23668C13.3998 9.23668 14.7588 10.5954 14.7588 12.2708C14.7588 13.9462 13.3998 15.305 11.7241 15.305Z" fill="white"/>
<path d="M17.6796 7.40845C17.6796 8.01147 17.1906 8.50042 16.5873 8.50042C15.9842 8.50042 15.4951 8.01147 15.4951 7.40845C15.4951 6.80528 15.9842 6.31647 16.5873 6.31647C17.1906 6.31647 17.6796 6.80528 17.6796 7.40845Z" fill="white"/>
</svg>
