<svg width="30" height="30" viewBox="0 0 30 30" fill="none" xmlns="http://www.w3.org/2000/svg">
<g clip-path="url(#clip0)">
<path d="M29.2913 9.02608C29.2234 7.4852 28.9742 6.42586 28.6172 5.50792C28.249 4.53356 27.6825 3.66121 26.9402 2.93602C26.2151 2.19955 25.337 1.62728 24.3739 1.2648C23.4506 0.907848 22.3968 0.658669 20.8559 0.590731C19.3036 0.51704 18.8107 0.5 14.8734 0.5C10.9361 0.5 10.4433 0.51704 8.89668 0.584978C7.3558 0.652915 6.29646 0.902316 5.37875 1.25904C4.40416 1.62728 3.53181 2.1938 2.80663 2.93602C2.07016 3.66121 1.49811 4.53931 1.1354 5.50239C0.778453 6.42586 0.529274 7.47944 0.461337 9.02033C0.387645 10.5727 0.370605 11.0655 0.370605 15.0028C0.370605 18.9401 0.387645 19.433 0.455583 20.9796C0.523521 22.5205 0.772921 23.5798 1.12987 24.4977C1.49811 25.4721 2.07016 26.3445 2.80663 27.0696C3.53181 27.8061 4.40991 28.3784 5.37299 28.7409C6.29646 29.0978 7.35005 29.347 8.89115 29.4149C10.4376 29.4831 10.9306 29.4999 14.8679 29.4999C18.8052 29.4999 19.298 29.4831 20.8447 29.4149C22.3855 29.347 23.4449 29.0978 24.3626 28.7409C26.3115 27.9874 27.8524 26.4465 28.6059 24.4977C28.9627 23.5743 29.2121 22.5205 29.28 20.9796C29.3479 19.433 29.365 18.9401 29.365 15.0028C29.365 11.0655 29.3592 10.5727 29.2913 9.02608ZM26.6798 20.8663C26.6174 22.2826 26.3795 23.0474 26.1812 23.5572C25.6939 24.8206 24.6912 25.8233 23.4278 26.3106C22.918 26.5089 22.1476 26.7468 20.7369 26.809C19.2073 26.8771 18.7485 26.8939 14.8792 26.8939C11.0098 26.8939 10.5453 26.8771 9.02127 26.809C7.60498 26.7468 6.84018 26.5089 6.33032 26.3106C5.70162 26.0782 5.12935 25.71 4.66485 25.2285C4.18331 24.7582 3.81507 24.1917 3.58271 23.563C3.38443 23.0531 3.14654 22.2826 3.08435 20.872C3.01619 19.3424 2.99938 18.8835 2.99938 15.0141C2.99938 11.1448 3.01619 10.6803 3.08435 9.15642C3.14654 7.74013 3.38443 6.97533 3.58271 6.46547C3.81507 5.83655 4.18331 5.2645 4.6706 4.79978C5.14063 4.31824 5.70715 3.95 6.33607 3.71786C6.84594 3.51958 7.61649 3.28169 9.02703 3.21928C10.5566 3.15134 11.0156 3.1343 14.8847 3.1343C18.7598 3.1343 19.2186 3.15134 20.7426 3.21928C22.1589 3.28169 22.9237 3.51958 23.4336 3.71786C24.0623 3.95 24.6346 4.31824 25.0991 4.79978C25.5806 5.27003 25.9488 5.83655 26.1812 6.46547C26.3795 6.97533 26.6174 7.74566 26.6798 9.15642C26.7477 10.686 26.7648 11.1448 26.7648 15.0141C26.7648 18.8835 26.7477 19.3367 26.6798 20.8663Z" fill="white"/>
<path d="M14.8734 7.5531C10.7606 7.5531 7.42371 10.8898 7.42371 15.0028C7.42371 19.1158 10.7606 22.4525 14.8734 22.4525C18.9864 22.4525 22.3231 19.1158 22.3231 15.0028C22.3231 10.8898 18.9864 7.5531 14.8734 7.5531ZM14.8734 19.8352C12.2052 19.8352 10.041 17.6712 10.041 15.0028C10.041 12.3344 12.2052 10.1704 14.8734 10.1704C17.5418 10.1704 19.7058 12.3344 19.7058 15.0028C19.7058 17.6712 17.5418 19.8352 14.8734 19.8352Z" fill="white"/>
<path d="M24.3568 7.25857C24.3568 8.219 23.5781 8.99774 22.6175 8.99774C21.657 8.99774 20.8783 8.219 20.8783 7.25857C20.8783 6.29793 21.657 5.51941 22.6175 5.51941C23.5781 5.51941 24.3568 6.29793 24.3568 7.25857Z" fill="white"/>
</g>
<defs>
<clipPath id="clip0">
<rect width="29" height="29" fill="white" transform="translate(0.31958 0.5)"/>
</clipPath>
</defs>
</svg>
