<svg width="24" height="24" viewBox="0 0 24 24" fill="none" xmlns="http://www.w3.org/2000/svg">
<path fill-rule="evenodd" clip-rule="evenodd" d="M16.1587 8.27653C15.6065 8.27653 15.1587 7.82882 15.1587 7.27653V5.5C15.1587 4.94772 15.6065 4.5 16.1587 4.5H17.866C18.4183 4.5 18.866 4.94772 18.866 5.5V7.27653C18.866 7.82882 18.4183 8.27653 17.866 8.27653H16.1587ZM6.13403 7.72794C5.58175 7.72794 5.13403 8.17566 5.13403 8.72794V10.5045C5.13403 11.0568 5.58175 11.5045 6.13403 11.5045H7.84126C8.39354 11.5045 8.84126 11.0568 8.84126 10.5045V8.72794C8.84126 8.17566 8.39354 7.72794 7.84126 7.72794H6.13403ZM11.4515 10.0168C10.9397 10.0168 10.5247 10.4318 10.5247 10.9436V10.961V11.6615C10.5247 12.1734 10.9397 12.5883 11.4515 12.5883H11.6951C12.0724 12.5883 12.3783 12.2824 12.3783 11.9051H21.6464V15.3402C21.6464 15.852 22.0613 16.267 22.5732 16.267C23.0851 16.267 23.5 15.852 23.5 15.3402V10.961V10.9436C23.5 10.4318 23.0851 10.0168 22.5732 10.0168H11.4515ZM1.42681 13.2498C0.914945 13.2498 0.5 13.6648 0.5 14.1766V14.194V18.5732C0.5 19.0851 0.914945 19.5 1.42681 19.5C1.93867 19.5 2.35361 19.0851 2.35361 18.5732V15.1381H11.6217V18.5732C11.6217 19.0851 12.0366 19.5 12.5485 19.5C13.0603 19.5 13.4753 19.0851 13.4753 18.5732V14.194V14.1766C13.4753 13.6648 13.0603 13.2498 12.5485 13.2498H1.42681Z" fill="#EFEFEF"/>
</svg>
