<svg width="30" height="30" viewBox="0 0 30 30" fill="none" xmlns="http://www.w3.org/2000/svg">
<path d="M26.2734 9.29316C26.291 9.53737 26.291 9.78158 26.291 10.028C26.291 17.5379 20.3506 26.199 9.4885 26.199V26.1945C6.27979 26.199 3.13773 25.3145 0.436523 23.6466C0.903096 23.7006 1.37201 23.7276 1.84209 23.7288C4.5012 23.731 7.08431 22.8723 9.17628 21.2911C6.64931 21.245 4.43338 19.6593 3.65927 17.3443C4.54447 17.5086 5.45656 17.4749 6.32539 17.2464C3.57039 16.7107 1.58834 14.3811 1.58834 11.6756C1.58834 11.6509 1.58834 11.6273 1.58834 11.6036C2.40923 12.0437 3.32834 12.2879 4.2685 12.3149C1.6737 10.6459 0.873862 7.32369 2.4408 4.72625C5.43902 8.27691 9.86269 10.4354 14.6114 10.6639C14.1355 8.68994 14.7857 6.62144 16.3199 5.23381C18.6983 3.08203 22.4391 3.19232 24.6749 5.48027C25.9974 5.22931 27.265 4.76226 28.425 4.10052C27.9842 5.41612 27.0616 6.53366 25.8291 7.24379C26.9996 7.11099 28.1432 6.80938 29.2202 6.34909C28.4274 7.4925 27.4287 8.48849 26.2734 9.29316Z" fill="white"/>
</svg>
