<svg width="24" height="24" viewBox="0 0 24 24" fill="none" xmlns="http://www.w3.org/2000/svg">
<path d="M18.8567 8.06207C18.8678 8.21656 18.8678 8.37105 18.8678 8.52696C18.8678 13.2776 15.11 18.7566 8.23866 18.7566V18.7538C6.20886 18.7566 4.22122 18.197 2.51245 17.142C2.8076 17.1761 3.10423 17.1932 3.4016 17.1939C5.08374 17.1954 6.71779 16.6522 8.04116 15.6519C6.44261 15.6227 5.04083 14.6196 4.55113 13.1552C5.11111 13.2591 5.68809 13.2378 6.23771 13.0932C4.49491 12.7544 3.24108 11.2807 3.24108 9.56922C3.24108 9.55356 3.24108 9.53861 3.24108 9.52366C3.76037 9.80202 4.34179 9.95651 4.93653 9.97359C3.29508 8.91781 2.78911 6.8162 3.78034 5.17308C5.677 7.4192 8.47538 8.78468 11.4794 8.9292C11.1783 7.68048 11.5896 6.37196 12.5601 5.49416C14.0647 4.13296 16.4311 4.20273 17.8455 5.65007C18.6821 5.49131 19.484 5.19586 20.2178 4.77725C19.9389 5.60949 19.3553 6.31643 18.5756 6.76566C19.316 6.68165 20.0395 6.49085 20.7208 6.19968C20.2193 6.92299 19.5875 7.55305 18.8567 8.06207Z" fill="white"/>
</svg>
