<svg width="30" height="22" viewBox="0 0 30 22" fill="none" xmlns="http://www.w3.org/2000/svg">
<path fill-rule="evenodd" clip-rule="evenodd" d="M12.6942 0.800594C1.3326 0.768397 0.31958 0.765526 0.31958 10.9998C0.31958 21.2344 1.33264 21.2315 12.6949 21.1993C13.3663 21.1974 14.0739 21.1954 14.8196 21.1954C15.5653 21.1954 16.2729 21.1974 16.9443 21.1993C28.3066 21.2315 29.3196 21.2344 29.3196 10.9998C29.3196 0.765526 28.3066 0.768397 16.945 0.800594C16.2734 0.802497 15.5655 0.804503 14.8196 0.804503C14.0737 0.804503 13.3659 0.802497 12.6942 0.800594ZM11.8759 15.3043V10.9995V6.69477L19.3625 10.9995L11.8759 15.3043Z" fill="white"/>
</svg>
