<svg width="509" height="114" viewBox="0 0 509 114" fill="none" xmlns="http://www.w3.org/2000/svg">
<path d="M158.835 18.0906C156.972 11.1213 151.483 5.63332 144.513 3.77065C131.881 0.385315 81.2293 0.385315 81.2293 0.385315C81.2293 0.385315 30.5773 0.385315 17.9453 3.77065C10.976 5.63332 5.48666 11.1213 3.62399 18.0906C0.239993 30.7226 0.23999 57.0786 0.23999 57.0786C0.23999 57.0786 0.239993 83.4346 3.62399 96.0653C5.48666 103.035 10.976 108.524 17.9453 110.387C30.5773 113.772 81.2293 113.772 81.2293 113.772C81.2293 113.772 131.881 113.772 144.513 110.387C151.483 108.524 156.972 103.035 158.835 96.0653C162.22 83.4346 162.22 57.0786 162.22 57.0786C162.22 57.0786 162.22 30.7226 158.835 18.0906Z" fill="#FF0000"/>
<path d="M65.0312 81.3759L107.114 57.0785L65.0312 32.7812V81.3759Z" fill="white"/>
<path d="M253.308 92.4162C254.195 90.1015 254.64 86.3175 254.64 81.0655V58.9402C254.64 53.8442 254.195 50.1188 253.308 47.7628C252.419 45.4082 250.855 44.2295 248.616 44.2295C246.453 44.2295 244.928 45.4082 244.041 47.7628C243.152 50.1188 242.709 53.8442 242.709 58.9402V81.0655C242.709 86.3175 243.132 90.1015 243.983 92.4162C244.832 94.7335 246.376 95.8908 248.616 95.8908C250.855 95.8908 252.419 94.7335 253.308 92.4162ZM235.353 103.537C232.148 101.377 229.869 98.0162 228.52 93.4588C227.168 88.9042 226.492 82.8415 226.492 75.2735V64.9642C226.492 57.3188 227.263 51.1788 228.809 46.5468C230.352 41.9135 232.765 38.5348 236.048 36.4108C239.329 34.2882 243.636 33.2255 248.964 33.2255C254.215 33.2255 258.423 34.3068 261.589 36.4695C264.756 38.6308 267.072 42.0108 268.54 46.6042C270.005 51.1988 270.741 57.3188 270.741 64.9642V75.2735C270.741 82.8415 270.027 88.9242 268.599 93.5175C267.169 98.1122 264.852 101.472 261.648 103.595C258.443 105.719 254.099 106.78 248.616 106.78C242.979 106.78 238.557 105.699 235.353 103.537Z" fill="white"/>
<path d="M483.408 45.5568C482.598 46.5608 482.056 48.2021 481.786 50.4795C481.514 52.7581 481.381 56.2128 481.381 60.8461V65.9435H493.08V60.8461C493.08 56.2915 492.925 52.8355 492.617 50.4795C492.308 48.1248 491.749 46.4648 490.937 45.4995C490.126 44.5328 488.872 44.0501 487.173 44.0501C485.473 44.0501 484.218 44.5541 483.408 45.5568ZM481.381 75.4421V79.0328C481.381 83.5901 481.514 87.0075 481.786 89.2848C482.056 91.5635 482.614 93.2235 483.466 94.2661C484.316 95.3075 485.626 95.8301 487.405 95.8301C489.797 95.8301 491.438 94.9035 492.326 93.0488C493.213 91.1955 493.697 88.1075 493.774 83.7821L507.56 84.5928C507.637 85.2128 507.676 86.0621 507.676 87.1408C507.676 93.7061 505.88 98.6101 502.289 101.854C498.7 105.095 493.62 106.718 487.057 106.718C479.181 106.718 473.658 104.249 470.492 99.3048C467.324 94.3635 465.742 86.7181 465.742 76.3688V63.9741C465.742 53.3168 467.382 45.5381 470.666 40.6328C473.948 35.7301 479.566 33.2781 487.521 33.2781C493.002 33.2781 497.212 34.2821 500.146 36.2888C503.08 38.2981 505.146 41.4261 506.344 45.6715C507.541 49.9195 508.14 55.7901 508.14 63.2795V75.4421H481.381Z" fill="white"/>
<path d="M196.428 74.1127L178.242 8.43274H194.111L200.482 38.2034C202.104 45.5407 203.3 51.7954 204.072 56.9687H204.536C205.076 53.2621 206.274 47.0461 208.127 38.3194L214.73 8.43274H230.599L212.182 74.1127V105.622H196.428V74.1127Z" fill="white"/>
<path d="M322.354 34.6148V105.621H309.843L308.453 96.9348H308.106C304.707 103.499 299.61 106.78 292.815 106.78C288.105 106.78 284.63 105.236 282.39 102.147C280.15 99.0588 279.031 94.2308 279.031 87.6682V34.6148H295.017V86.7402C295.017 89.9082 295.365 92.1668 296.059 93.5161C296.754 94.8695 297.911 95.5441 299.534 95.5441C300.925 95.5441 302.257 95.1202 303.53 94.2695C304.805 93.4202 305.75 92.3401 306.369 91.0268V34.6148H322.354Z" fill="white"/>
<path d="M404.349 34.6148V105.621H391.838L390.448 96.9348H390.101C386.701 103.499 381.605 106.78 374.81 106.78C370.1 106.78 366.625 105.236 364.385 102.147C362.145 99.0588 361.026 94.2308 361.026 87.6682V34.6148H377.012V86.7402C377.012 89.9082 377.358 92.1668 378.053 93.5161C378.749 94.8695 379.906 95.5441 381.529 95.5441C382.92 95.5441 384.252 95.1202 385.525 94.2695C386.8 93.4202 387.744 92.3401 388.364 91.0268V34.6148H404.349Z" fill="white"/>
<path d="M365.792 21.293H349.922V105.622H334.285V21.293H318.416V8.43432H365.792V21.293Z" fill="white"/>
<path d="M442.601 74.9292C442.601 80.1038 442.388 84.1585 441.963 87.0918C441.539 90.0278 440.824 92.1132 439.82 93.3465C438.816 94.5825 437.463 95.1998 435.767 95.1998C434.454 95.1998 433.238 94.8932 432.119 94.2732C430.998 93.6558 430.091 92.7305 429.396 91.4932V51.1825C429.935 49.2532 430.861 47.6692 432.176 46.4332C433.488 45.1998 434.915 44.5798 436.462 44.5798C438.083 44.5798 439.337 45.2172 440.227 46.4905C441.114 47.7652 441.732 49.9078 442.079 52.9212C442.427 55.9318 442.601 60.2172 442.601 65.7772V74.9292ZM457.253 45.9652C456.288 41.4878 454.724 38.2438 452.563 36.2345C450.4 34.2292 447.425 33.2238 443.643 33.2238C440.708 33.2238 437.967 34.0545 435.419 35.7145C432.871 37.3745 430.902 39.5572 429.512 42.2598H429.395L429.396 4.84383H413.99V105.621H427.194L428.816 98.9025H429.164C430.399 101.296 432.251 103.188 434.724 104.578C437.194 105.968 439.936 106.664 442.949 106.664C448.352 106.664 452.331 104.173 454.879 99.1918C457.427 94.2105 458.701 86.4318 458.701 75.8505V64.6158C458.701 56.6625 458.219 50.4452 457.253 45.9652Z" fill="white"/>
</svg>
