<svg width="24" height="23" viewBox="0 0 24 23" fill="none" xmlns="http://www.w3.org/2000/svg">
<path fill-rule="evenodd" clip-rule="evenodd" d="M10.3193 5.0961C3.18561 5.07588 2.54956 5.07408 2.54956 11.4999C2.54956 17.9259 3.18563 17.9241 10.3197 17.9039C10.7413 17.9027 11.1856 17.9015 11.6537 17.9015C12.1219 17.9015 12.5662 17.9027 12.9878 17.9039C20.1218 17.9241 20.7579 17.9259 20.7579 11.4999C20.7579 5.07408 20.1219 5.07588 12.9882 5.0961C12.5665 5.09729 12.1221 5.09855 11.6537 5.09855C11.1854 5.09855 10.741 5.09729 10.3193 5.0961ZM9.80546 14.2026V8.7969L14.5061 11.4997L9.80546 14.2026Z" fill="white"/>
<path d="M16.1259 6.06946H14.8481V9.90279H16.1259V6.06946Z" fill="white"/>
<path d="M12.612 6.06946H11.3342V9.90279H12.612V6.06946Z" fill="white"/>
</svg>
