<svg width="37" height="37" viewBox="0 0 37 37" fill="none" xmlns="http://www.w3.org/2000/svg">
<path d="M24.5 10.6213C24.5 7.30634 21.815 4.62134 18.5 4.62134C15.185 4.62134 12.5 7.30634 12.5 10.6213C12.5 13.9363 15.185 16.6213 18.5 16.6213C21.815 16.6213 24.5 13.9363 24.5 10.6213ZM18.5 13.6213C16.85 13.6213 15.5 12.2713 15.5 10.6213C15.5 8.97134 16.85 7.62134 18.5 7.62134C20.15 7.62134 21.5 8.97134 21.5 10.6213C21.5 12.2713 20.15 13.6213 18.5 13.6213ZM11 19.6213C7.685 19.6213 5 22.3063 5 25.6213C5 28.9363 7.685 31.6213 11 31.6213C14.315 31.6213 17 28.9363 17 25.6213C17 22.3063 14.315 19.6213 11 19.6213ZM11 28.6213C9.35 28.6213 8 27.2713 8 25.6213C8 23.9713 9.35 22.6213 11 22.6213C12.65 22.6213 14 23.9713 14 25.6213C14 27.2713 12.65 28.6213 11 28.6213ZM26 19.6213C22.685 19.6213 20 22.3063 20 25.6213C20 28.9363 22.685 31.6213 26 31.6213C29.315 31.6213 32 28.9363 32 25.6213C32 22.3063 29.315 19.6213 26 19.6213ZM26 28.6213C24.35 28.6213 23 27.2713 23 25.6213C23 23.9713 24.35 22.6213 26 22.6213C27.65 22.6213 29 23.9713 29 25.6213C29 27.2713 27.65 28.6213 26 28.6213Z" fill="#00E0B5"/>
</svg>
