<svg width="18" height="19" viewBox="0 0 18 19" fill="none" xmlns="http://www.w3.org/2000/svg">
<path d="M13.9461 5.0363C13.0237 4.60533 12.0374 4.29211 11.0062 4.11377C10.8796 4.3424 10.7316 4.64992 10.6296 4.89454C9.53348 4.72993 8.44742 4.72993 7.37144 4.89454C7.26945 4.64992 7.11814 4.3424 6.99037 4.11377C5.9581 4.29211 4.97067 4.60648 4.04824 5.03858C2.18769 7.84613 1.68333 10.5839 1.93551 13.2829C3.16952 14.2031 4.36543 14.7621 5.54115 15.1279C5.83145 14.729 6.09035 14.3049 6.31339 13.8579C5.8886 13.6967 5.48175 13.4978 5.09733 13.2669C5.19931 13.1914 5.29907 13.1126 5.39545 13.0314C7.74018 14.1265 10.2878 14.1265 12.6045 13.0314C12.702 13.1126 12.8018 13.1914 12.9026 13.2669C12.5171 13.4989 12.1091 13.6978 11.6843 13.859C11.9074 14.3049 12.1651 14.7301 12.4566 15.129C13.6334 14.7632 14.8304 14.2043 16.0644 13.2829C16.3603 10.1541 15.559 7.44145 13.9461 5.0363ZM6.63282 11.6231C5.92896 11.6231 5.35173 10.9669 5.35173 10.1678C5.35173 9.36878 5.91663 8.71148 6.63282 8.71148C7.34903 8.71148 7.92624 9.36763 7.91391 10.1678C7.91503 10.9669 7.34903 11.6231 6.63282 11.6231ZM11.3671 11.6231C10.6633 11.6231 10.086 10.9669 10.086 10.1678C10.086 9.36878 10.6509 8.71148 11.3671 8.71148C12.0833 8.71148 12.6605 9.36763 12.6482 10.1678C12.6482 10.9669 12.0833 11.6231 11.3671 11.6231Z" fill="#00E0B5"/>
</svg>
