<svg width="37" height="36" viewBox="0 0 37 36" fill="none" xmlns="http://www.w3.org/2000/svg">
<path d="M3.5 24H33.5V27H3.5V24ZM5.225 17.925L6.5 15.705L7.775 17.925L9.725 16.8L8.45 14.58H11V12.33H8.45L9.725 10.125L7.775 9L6.5 11.205L5.225 9L3.275 10.125L4.55 12.33H2V14.58H4.55L3.275 16.8L5.225 17.925ZM15.275 16.8L17.225 17.925L18.5 15.705L19.775 17.925L21.725 16.8L20.45 14.58H23V12.33H20.45L21.725 10.125L19.775 9L18.5 11.205L17.225 9L15.275 10.125L16.55 12.33H14V14.58H16.55L15.275 16.8ZM35 12.33H32.45L33.725 10.125L31.775 9L30.5 11.205L29.225 9L27.275 10.125L28.55 12.33H26V14.58H28.55L27.275 16.8L29.225 17.925L30.5 15.705L31.775 17.925L33.725 16.8L32.45 14.58H35V12.33Z" fill="#00E0B5"/>
</svg>
