<svg width="1068" height="84" viewBox="0 0 1068 84" fill="none" xmlns="http://www.w3.org/2000/svg">
<g filter="url(#filter0_dd_1212_4398)">
<rect x="18" y="10" width="1032" height="48" rx="12" fill="#1C1C1C"/>
<rect x="18" y="10" width="1032" height="48" rx="12" fill="#00E0B5" fill-opacity="0.01"/>
<rect x="18" y="10" width="1032" height="48" rx="12" fill="white" fill-opacity="0.04"/>
<path fill-rule="evenodd" clip-rule="evenodd" d="M51.1016 28.8984C49.2857 27.0824 46.3414 27.0824 44.5255 28.8984C42.7095 30.7143 42.7095 33.6586 44.5255 35.4745C46.3414 37.2905 49.2857 37.2905 51.1016 35.4745C52.9176 33.6586 52.9176 30.7143 51.1016 28.8984ZM43.4391 27.812C45.855 25.396 49.7721 25.396 52.188 27.812C54.604 30.2279 54.604 34.145 52.188 36.5609C49.956 38.7929 46.4428 38.9629 44.0157 37.0707L39.0864 42.0001L38 40.9137L42.9293 35.9843C41.0371 33.5572 41.2071 30.044 43.4391 27.812Z" fill="#BFC9C4"/>
<path d="M66.242 38.168C68.762 38.168 69.98 36.88 69.98 35.172C69.98 31.686 64.618 32.68 64.618 31.196C64.618 30.636 65.094 30.258 65.948 30.258C66.9 30.258 67.908 30.58 68.664 31.28L69.77 29.824C68.846 28.97 67.614 28.522 66.13 28.522C63.932 28.522 62.588 29.81 62.588 31.364C62.588 34.878 67.964 33.744 67.964 35.396C67.964 35.928 67.432 36.432 66.34 36.432C65.052 36.432 64.03 35.858 63.372 35.172L62.294 36.684C63.162 37.566 64.45 38.168 66.242 38.168ZM74.5545 38.168C75.6045 38.168 76.6685 37.846 77.3405 37.23L76.5565 36.082C76.1225 36.502 75.3245 36.754 74.7505 36.754C73.6025 36.754 72.9165 36.04 72.8045 35.186H77.8305V34.794C77.8305 32.582 76.4585 31.07 74.4425 31.07C72.3845 31.07 70.9425 32.652 70.9425 34.612C70.9425 36.782 72.4965 38.168 74.5545 38.168ZM76.1085 33.982H72.7765C72.8605 33.31 73.3365 32.484 74.4425 32.484C75.6185 32.484 76.0665 33.338 76.1085 33.982ZM85.0528 38V33.632C85.0528 31.686 83.6388 31.07 82.0988 31.07C81.0348 31.07 79.9708 31.406 79.1448 32.134L79.8168 33.324C80.3908 32.792 81.0628 32.526 81.7908 32.526C82.6868 32.526 83.2748 32.974 83.2748 33.66V34.57C82.8268 34.038 82.0288 33.744 81.1328 33.744C80.0548 33.744 78.7808 34.346 78.7808 35.928C78.7808 37.44 80.0548 38.168 81.1328 38.168C82.0148 38.168 82.8128 37.846 83.2748 37.3V38H85.0528ZM81.8468 36.964C81.1468 36.964 80.5728 36.6 80.5728 35.97C80.5728 35.312 81.1468 34.948 81.8468 34.948C82.4208 34.948 82.9808 35.144 83.2748 35.536V36.376C82.9808 36.768 82.4208 36.964 81.8468 36.964ZM88.6944 38V33.534C88.9884 33.1 89.7724 32.764 90.3604 32.764C90.5564 32.764 90.7244 32.778 90.8504 32.806V31.07C90.0104 31.07 89.1704 31.56 88.6944 32.162V31.238H86.9164V38H88.6944ZM95.2113 38.168C96.5973 38.168 97.4373 37.566 97.8853 36.936L96.7233 35.858C96.4013 36.306 95.9113 36.586 95.2953 36.586C94.2173 36.586 93.4613 35.788 93.4613 34.612C93.4613 33.436 94.2173 32.652 95.2953 32.652C95.9113 32.652 96.4013 32.904 96.7233 33.38L97.8853 32.288C97.4373 31.672 96.5973 31.07 95.2113 31.07C93.1253 31.07 91.6273 32.54 91.6273 34.612C91.6273 36.698 93.1253 38.168 95.2113 38.168ZM105.504 38V33.198C105.504 31.882 104.79 31.07 103.306 31.07C102.2 31.07 101.36 31.602 100.926 32.12V28.662H99.1476V38H100.926V33.45C101.234 33.044 101.78 32.652 102.466 32.652C103.236 32.652 103.726 32.946 103.726 33.884V38H105.504ZM113.235 38V32.792H114.607V31.238H113.235V30.874C113.235 30.244 113.585 29.922 114.075 29.922C114.397 29.922 114.635 30.02 114.817 30.202L115.489 29.152C115.055 28.69 114.369 28.522 113.725 28.522C112.367 28.522 111.443 29.432 111.443 30.874V31.238H110.323V32.792H111.443V38H113.235ZM118.867 38.168C121.107 38.168 122.451 36.544 122.451 34.612C122.451 32.694 121.107 31.07 118.867 31.07C116.641 31.07 115.297 32.694 115.297 34.612C115.297 36.544 116.641 38.168 118.867 38.168ZM118.867 36.586C117.761 36.586 117.145 35.676 117.145 34.612C117.145 33.562 117.761 32.652 118.867 32.652C119.973 32.652 120.603 33.562 120.603 34.612C120.603 35.676 119.973 36.586 118.867 36.586ZM125.648 38V33.534C125.942 33.1 126.726 32.764 127.314 32.764C127.51 32.764 127.678 32.778 127.804 32.806V31.07C126.964 31.07 126.124 31.56 125.648 32.162V31.238H123.87V38H125.648ZM136.897 38V30.412H139.613V28.662H132.165V30.412H134.895V38H136.897ZM142.714 38.168C144.954 38.168 146.298 36.544 146.298 34.612C146.298 32.694 144.954 31.07 142.714 31.07C140.488 31.07 139.144 32.694 139.144 34.612C139.144 36.544 140.488 38.168 142.714 38.168ZM142.714 36.586C141.608 36.586 140.992 35.676 140.992 34.612C140.992 33.562 141.608 32.652 142.714 32.652C143.82 32.652 144.45 33.562 144.45 34.612C144.45 35.676 143.82 36.586 142.714 36.586ZM154.059 38V31.238H152.281V35.816C151.973 36.208 151.427 36.586 150.741 36.586C149.985 36.586 149.495 36.278 149.495 35.34V31.238H147.717V36.04C147.717 37.356 148.417 38.168 149.901 38.168C151.007 38.168 151.819 37.664 152.281 37.146V38H154.059ZM157.703 38V33.534C157.997 33.1 158.781 32.764 159.369 32.764C159.565 32.764 159.733 32.778 159.859 32.806V31.07C159.019 31.07 158.179 31.56 157.703 32.162V31.238H155.925V38H157.703ZM167.412 38V33.226C167.412 31.91 166.698 31.07 165.214 31.07C164.108 31.07 163.282 31.602 162.848 32.12V31.238H161.07V38H162.848V33.45C163.142 33.044 163.688 32.652 164.388 32.652C165.144 32.652 165.634 32.974 165.634 33.912V38H167.412ZM175.115 38V33.632C175.115 31.686 173.701 31.07 172.161 31.07C171.097 31.07 170.033 31.406 169.207 32.134L169.879 33.324C170.453 32.792 171.125 32.526 171.853 32.526C172.749 32.526 173.337 32.974 173.337 33.66V34.57C172.889 34.038 172.091 33.744 171.195 33.744C170.117 33.744 168.843 34.346 168.843 35.928C168.843 37.44 170.117 38.168 171.195 38.168C172.077 38.168 172.875 37.846 173.337 37.3V38H175.115ZM171.909 36.964C171.209 36.964 170.635 36.6 170.635 35.97C170.635 35.312 171.209 34.948 171.909 34.948C172.483 34.948 173.043 35.144 173.337 35.536V36.376C173.043 36.768 172.483 36.964 171.909 36.964ZM187.156 38V33.114C187.156 31.728 186.414 31.07 185.168 31.07C184.132 31.07 183.236 31.686 182.844 32.302C182.592 31.532 181.962 31.07 180.968 31.07C179.932 31.07 179.036 31.714 178.756 32.12V31.238H176.978V38H178.756V33.45C179.022 33.072 179.54 32.652 180.156 32.652C180.884 32.652 181.164 33.1 181.164 33.73V38H182.956V33.436C183.208 33.072 183.726 32.652 184.356 32.652C185.084 32.652 185.364 33.1 185.364 33.73V38H187.156ZM192.178 38.168C193.228 38.168 194.292 37.846 194.964 37.23L194.18 36.082C193.746 36.502 192.948 36.754 192.374 36.754C191.226 36.754 190.54 36.04 190.428 35.186H195.454V34.794C195.454 32.582 194.082 31.07 192.066 31.07C190.008 31.07 188.566 32.652 188.566 34.612C188.566 36.782 190.12 38.168 192.178 38.168ZM193.732 33.982H190.4C190.484 33.31 190.96 32.484 192.066 32.484C193.242 32.484 193.69 33.338 193.732 33.982ZM203.181 38V33.226C203.181 31.91 202.467 31.07 200.983 31.07C199.877 31.07 199.051 31.602 198.617 32.12V31.238H196.839V38H198.617V33.45C198.911 33.044 199.457 32.652 200.157 32.652C200.913 32.652 201.403 32.974 201.403 33.912V38H203.181ZM207.314 38.168C208.056 38.168 208.532 37.972 208.798 37.734L208.42 36.39C208.322 36.488 208.07 36.586 207.804 36.586C207.412 36.586 207.188 36.264 207.188 35.844V32.792H208.56V31.238H207.188V29.39H205.396V31.238H204.276V32.792H205.396V36.32C205.396 37.524 206.068 38.168 207.314 38.168ZM212.313 38.168C214.189 38.168 215.239 37.23 215.239 35.998C215.239 33.268 211.235 34.108 211.235 33.1C211.235 32.722 211.655 32.428 212.299 32.428C213.125 32.428 213.895 32.778 214.301 33.212L215.015 31.994C214.343 31.462 213.433 31.07 212.285 31.07C210.507 31.07 209.513 32.064 209.513 33.198C209.513 35.858 213.531 34.948 213.531 36.068C213.531 36.488 213.167 36.796 212.397 36.796C211.557 36.796 210.549 36.334 210.059 35.872L209.289 37.118C210.003 37.776 211.137 38.168 212.313 38.168Z" fill="#BFC9C4"/>
<path d="M499.632 40L496.034 30.662H493.542L489.93 40H492.198L492.786 38.418H496.79L497.364 40H499.632ZM496.244 36.668H493.332L494.788 32.65L496.244 36.668ZM502.33 40V30.662H500.552V40H502.33ZM505.971 40V30.662H504.193V40H505.971ZM515.716 40V32.412H518.432V30.662H510.984V32.412H513.714V40H515.716ZM521.534 40.168C523.774 40.168 525.118 38.544 525.118 36.612C525.118 34.694 523.774 33.07 521.534 33.07C519.308 33.07 517.964 34.694 517.964 36.612C517.964 38.544 519.308 40.168 521.534 40.168ZM521.534 38.586C520.428 38.586 519.812 37.676 519.812 36.612C519.812 35.562 520.428 34.652 521.534 34.652C522.64 34.652 523.27 35.562 523.27 36.612C523.27 37.676 522.64 38.586 521.534 38.586ZM532.879 40V33.238H531.101V37.816C530.793 38.208 530.247 38.586 529.561 38.586C528.805 38.586 528.315 38.278 528.315 37.34V33.238H526.537V38.04C526.537 39.356 527.237 40.168 528.721 40.168C529.827 40.168 530.639 39.664 531.101 39.146V40H532.879ZM536.522 40V35.534C536.816 35.1 537.6 34.764 538.188 34.764C538.384 34.764 538.552 34.778 538.678 34.806V33.07C537.838 33.07 536.998 33.56 536.522 34.162V33.238H534.744V40H536.522ZM546.231 40V35.226C546.231 33.91 545.517 33.07 544.033 33.07C542.927 33.07 542.101 33.602 541.667 34.12V33.238H539.889V40H541.667V35.45C541.961 35.044 542.507 34.652 543.207 34.652C543.963 34.652 544.453 34.974 544.453 35.912V40H546.231ZM553.934 40V35.632C553.934 33.686 552.52 33.07 550.98 33.07C549.916 33.07 548.852 33.406 548.026 34.134L548.698 35.324C549.272 34.792 549.944 34.526 550.672 34.526C551.568 34.526 552.156 34.974 552.156 35.66V36.57C551.708 36.038 550.91 35.744 550.014 35.744C548.936 35.744 547.662 36.346 547.662 37.928C547.662 39.44 548.936 40.168 550.014 40.168C550.896 40.168 551.694 39.846 552.156 39.3V40H553.934ZM550.728 38.964C550.028 38.964 549.454 38.6 549.454 37.97C549.454 37.312 550.028 36.948 550.728 36.948C551.302 36.948 551.862 37.144 552.156 37.536V38.376C551.862 38.768 551.302 38.964 550.728 38.964ZM565.976 40V35.114C565.976 33.728 565.234 33.07 563.988 33.07C562.952 33.07 562.056 33.686 561.664 34.302C561.412 33.532 560.782 33.07 559.788 33.07C558.752 33.07 557.856 33.714 557.576 34.12V33.238H555.798V40H557.576V35.45C557.842 35.072 558.36 34.652 558.976 34.652C559.704 34.652 559.984 35.1 559.984 35.73V40H561.776V35.436C562.028 35.072 562.546 34.652 563.176 34.652C563.904 34.652 564.184 35.1 564.184 35.73V40H565.976ZM570.998 40.168C572.048 40.168 573.112 39.846 573.784 39.23L573 38.082C572.566 38.502 571.768 38.754 571.194 38.754C570.046 38.754 569.36 38.04 569.248 37.186H574.274V36.794C574.274 34.582 572.902 33.07 570.886 33.07C568.828 33.07 567.386 34.652 567.386 36.612C567.386 38.782 568.94 40.168 570.998 40.168ZM572.552 35.982H569.22C569.304 35.31 569.78 34.484 570.886 34.484C572.062 34.484 572.51 35.338 572.552 35.982ZM582 40V35.226C582 33.91 581.286 33.07 579.802 33.07C578.696 33.07 577.87 33.602 577.436 34.12V33.238H575.658V40H577.436V35.45C577.73 35.044 578.276 34.652 578.976 34.652C579.732 34.652 580.222 34.974 580.222 35.912V40H582ZM586.134 40.168C586.876 40.168 587.352 39.972 587.618 39.734L587.24 38.39C587.142 38.488 586.89 38.586 586.624 38.586C586.232 38.586 586.008 38.264 586.008 37.844V34.792H587.38V33.238H586.008V31.39H584.216V33.238H583.096V34.792H584.216V38.32C584.216 39.524 584.888 40.168 586.134 40.168ZM591.132 40.168C593.008 40.168 594.058 39.23 594.058 37.998C594.058 35.268 590.054 36.108 590.054 35.1C590.054 34.722 590.474 34.428 591.118 34.428C591.944 34.428 592.714 34.778 593.12 35.212L593.834 33.994C593.162 33.462 592.252 33.07 591.104 33.07C589.326 33.07 588.332 34.064 588.332 35.198C588.332 37.858 592.35 36.948 592.35 38.068C592.35 38.488 591.986 38.796 591.216 38.796C590.376 38.796 589.368 38.334 588.878 37.872L588.108 39.118C588.822 39.776 589.956 40.168 591.132 40.168Z" fill="#E0E3E0"/>
<path fill-rule="evenodd" clip-rule="evenodd" d="M595 58L490 58L490 56L595 56L595 58Z" fill="#E0E3E0"/>
<path d="M632.516 40V36.178L636.086 30.662H633.818L631.522 34.414L629.198 30.662H626.93L630.528 36.178V40H632.516ZM638.405 40.168C640.645 40.168 641.989 38.544 641.989 36.612C641.989 34.694 640.645 33.07 638.405 33.07C636.179 33.07 634.835 34.694 634.835 36.612C634.835 38.544 636.179 40.168 638.405 40.168ZM638.405 38.586C637.299 38.586 636.683 37.676 636.683 36.612C636.683 35.562 637.299 34.652 638.405 34.652C639.511 34.652 640.141 35.562 640.141 36.612C640.141 37.676 639.511 38.586 638.405 38.586ZM649.75 40V33.238H647.972V37.816C647.664 38.208 647.118 38.586 646.432 38.586C645.676 38.586 645.186 38.278 645.186 37.34V33.238H643.408V38.04C643.408 39.356 644.108 40.168 645.592 40.168C646.698 40.168 647.51 39.664 647.972 39.146V40H649.75ZM653.394 40V35.534C653.688 35.1 654.472 34.764 655.06 34.764C655.256 34.764 655.424 34.778 655.55 34.806V33.07C654.71 33.07 653.87 33.56 653.394 34.162V33.238H651.616V40H653.394ZM664.643 40V32.412H667.359V30.662H659.911V32.412H662.641V40H664.643ZM670.46 40.168C672.7 40.168 674.044 38.544 674.044 36.612C674.044 34.694 672.7 33.07 670.46 33.07C668.234 33.07 666.89 34.694 666.89 36.612C666.89 38.544 668.234 40.168 670.46 40.168ZM670.46 38.586C669.354 38.586 668.738 37.676 668.738 36.612C668.738 35.562 669.354 34.652 670.46 34.652C671.566 34.652 672.196 35.562 672.196 36.612C672.196 37.676 671.566 38.586 670.46 38.586ZM681.805 40V33.238H680.027V37.816C679.719 38.208 679.173 38.586 678.487 38.586C677.731 38.586 677.241 38.278 677.241 37.34V33.238H675.463V38.04C675.463 39.356 676.163 40.168 677.647 40.168C678.753 40.168 679.565 39.664 680.027 39.146V40H681.805ZM685.448 40V35.534C685.742 35.1 686.526 34.764 687.114 34.764C687.31 34.764 687.478 34.778 687.604 34.806V33.07C686.764 33.07 685.924 33.56 685.448 34.162V33.238H683.67V40H685.448ZM695.157 40V35.226C695.157 33.91 694.443 33.07 692.959 33.07C691.853 33.07 691.027 33.602 690.593 34.12V33.238H688.815V40H690.593V35.45C690.887 35.044 691.433 34.652 692.133 34.652C692.889 34.652 693.379 34.974 693.379 35.912V40H695.157ZM702.861 40V35.632C702.861 33.686 701.447 33.07 699.907 33.07C698.843 33.07 697.779 33.406 696.953 34.134L697.625 35.324C698.199 34.792 698.871 34.526 699.599 34.526C700.495 34.526 701.083 34.974 701.083 35.66V36.57C700.635 36.038 699.837 35.744 698.941 35.744C697.863 35.744 696.589 36.346 696.589 37.928C696.589 39.44 697.863 40.168 698.941 40.168C699.823 40.168 700.621 39.846 701.083 39.3V40H702.861ZM699.655 38.964C698.955 38.964 698.381 38.6 698.381 37.97C698.381 37.312 698.955 36.948 699.655 36.948C700.229 36.948 700.789 37.144 701.083 37.536V38.376C700.789 38.768 700.229 38.964 699.655 38.964ZM714.902 40V35.114C714.902 33.728 714.16 33.07 712.914 33.07C711.878 33.07 710.982 33.686 710.59 34.302C710.338 33.532 709.708 33.07 708.714 33.07C707.678 33.07 706.782 33.714 706.502 34.12V33.238H704.724V40H706.502V35.45C706.768 35.072 707.286 34.652 707.902 34.652C708.63 34.652 708.91 35.1 708.91 35.73V40H710.702V35.436C710.954 35.072 711.472 34.652 712.102 34.652C712.83 34.652 713.11 35.1 713.11 35.73V40H714.902ZM719.924 40.168C720.974 40.168 722.038 39.846 722.71 39.23L721.926 38.082C721.492 38.502 720.694 38.754 720.12 38.754C718.972 38.754 718.286 38.04 718.174 37.186H723.2V36.794C723.2 34.582 721.828 33.07 719.812 33.07C717.754 33.07 716.312 34.652 716.312 36.612C716.312 38.782 717.866 40.168 719.924 40.168ZM721.478 35.982H718.146C718.23 35.31 718.706 34.484 719.812 34.484C720.988 34.484 721.436 35.338 721.478 35.982ZM730.926 40V35.226C730.926 33.91 730.212 33.07 728.728 33.07C727.622 33.07 726.796 33.602 726.362 34.12V33.238H724.584V40H726.362V35.45C726.656 35.044 727.202 34.652 727.902 34.652C728.658 34.652 729.148 34.974 729.148 35.912V40H730.926ZM735.06 40.168C735.802 40.168 736.278 39.972 736.544 39.734L736.166 38.39C736.068 38.488 735.816 38.586 735.55 38.586C735.158 38.586 734.934 38.264 734.934 37.844V34.792H736.306V33.238H734.934V31.39H733.142V33.238H732.022V34.792H733.142V38.32C733.142 39.524 733.814 40.168 735.06 40.168ZM740.058 40.168C741.934 40.168 742.984 39.23 742.984 37.998C742.984 35.268 738.98 36.108 738.98 35.1C738.98 34.722 739.4 34.428 740.044 34.428C740.87 34.428 741.64 34.778 742.046 35.212L742.76 33.994C742.088 33.462 741.178 33.07 740.03 33.07C738.252 33.07 737.258 34.064 737.258 35.198C737.258 37.858 741.276 36.948 741.276 38.068C741.276 38.488 740.912 38.796 740.142 38.796C739.302 38.796 738.294 38.334 737.804 37.872L737.034 39.118C737.748 39.776 738.882 40.168 740.058 40.168Z" fill="#E0E3E0" fill-opacity="0.4"/>
<rect x="856" y="14" width="190" height="40" rx="9" fill="#1C1C1C"/>
<rect x="856" y="14" width="190" height="40" rx="9" fill="#00E0B5" fill-opacity="0.01"/>
<rect x="856" y="14" width="190" height="40" rx="9" fill="white" fill-opacity="0.06"/>
<path d="M887 34.75H881.75V40H880.25V34.75H875V33.25H880.25V28H881.75V33.25H887V34.75Z" fill="#00E0B5"/>
<path d="M903.446 38.168C905.504 38.168 906.68 37.034 907.352 35.872L905.644 35.046C905.252 35.816 904.412 36.404 903.446 36.404C901.752 36.404 900.52 35.102 900.52 33.338C900.52 31.574 901.752 30.272 903.446 30.272C904.412 30.272 905.252 30.874 905.644 31.63L907.352 30.79C906.694 29.628 905.504 28.508 903.446 28.508C900.646 28.508 898.476 30.468 898.476 33.338C898.476 36.208 900.646 38.168 903.446 38.168ZM910.371 38V33.534C910.665 33.1 911.449 32.764 912.037 32.764C912.233 32.764 912.401 32.778 912.527 32.806V31.07C911.687 31.07 910.847 31.56 910.371 32.162V31.238H908.593V38H910.371ZM916.916 38.168C917.966 38.168 919.03 37.846 919.702 37.23L918.918 36.082C918.484 36.502 917.686 36.754 917.112 36.754C915.964 36.754 915.278 36.04 915.166 35.186H920.192V34.794C920.192 32.582 918.82 31.07 916.804 31.07C914.746 31.07 913.304 32.652 913.304 34.612C913.304 36.782 914.858 38.168 916.916 38.168ZM918.47 33.982H915.138C915.222 33.31 915.698 32.484 916.804 32.484C917.98 32.484 918.428 33.338 918.47 33.982ZM927.415 38V33.632C927.415 31.686 926.001 31.07 924.461 31.07C923.397 31.07 922.333 31.406 921.507 32.134L922.179 33.324C922.753 32.792 923.425 32.526 924.153 32.526C925.049 32.526 925.637 32.974 925.637 33.66V34.57C925.189 34.038 924.391 33.744 923.495 33.744C922.417 33.744 921.143 34.346 921.143 35.928C921.143 37.44 922.417 38.168 923.495 38.168C924.377 38.168 925.175 37.846 925.637 37.3V38H927.415ZM924.209 36.964C923.509 36.964 922.935 36.6 922.935 35.97C922.935 35.312 923.509 34.948 924.209 34.948C924.783 34.948 925.343 35.144 925.637 35.536V36.376C925.343 36.768 924.783 36.964 924.209 36.964ZM931.546 38.168C932.288 38.168 932.764 37.972 933.03 37.734L932.652 36.39C932.554 36.488 932.302 36.586 932.036 36.586C931.644 36.586 931.42 36.264 931.42 35.844V32.792H932.792V31.238H931.42V29.39H929.628V31.238H928.508V32.792H929.628V36.32C929.628 37.524 930.3 38.168 931.546 38.168ZM937.287 38.168C938.337 38.168 939.401 37.846 940.073 37.23L939.289 36.082C938.855 36.502 938.057 36.754 937.483 36.754C936.335 36.754 935.649 36.04 935.537 35.186H940.563V34.794C940.563 32.582 939.191 31.07 937.175 31.07C935.117 31.07 933.675 32.652 933.675 34.612C933.675 36.782 935.229 38.168 937.287 38.168ZM938.841 33.982H935.509C935.593 33.31 936.069 32.484 937.175 32.484C938.351 32.484 938.799 33.338 938.841 33.982ZM949.829 38V30.412H952.545V28.662H945.097V30.412H947.827V38H949.829ZM955.646 38.168C957.886 38.168 959.23 36.544 959.23 34.612C959.23 32.694 957.886 31.07 955.646 31.07C953.42 31.07 952.076 32.694 952.076 34.612C952.076 36.544 953.42 38.168 955.646 38.168ZM955.646 36.586C954.54 36.586 953.924 35.676 953.924 34.612C953.924 33.562 954.54 32.652 955.646 32.652C956.752 32.652 957.382 33.562 957.382 34.612C957.382 35.676 956.752 36.586 955.646 36.586ZM966.991 38V31.238H965.213V35.816C964.905 36.208 964.359 36.586 963.673 36.586C962.917 36.586 962.427 36.278 962.427 35.34V31.238H960.649V36.04C960.649 37.356 961.349 38.168 962.833 38.168C963.939 38.168 964.751 37.664 965.213 37.146V38H966.991ZM970.635 38V33.534C970.929 33.1 971.713 32.764 972.301 32.764C972.497 32.764 972.665 32.778 972.791 32.806V31.07C971.951 31.07 971.111 31.56 970.635 32.162V31.238H968.857V38H970.635ZM980.344 38V33.226C980.344 31.91 979.63 31.07 978.146 31.07C977.04 31.07 976.214 31.602 975.78 32.12V31.238H974.002V38H975.78V33.45C976.074 33.044 976.62 32.652 977.32 32.652C978.076 32.652 978.566 32.974 978.566 33.912V38H980.344ZM988.047 38V33.632C988.047 31.686 986.633 31.07 985.093 31.07C984.029 31.07 982.965 31.406 982.139 32.134L982.811 33.324C983.385 32.792 984.057 32.526 984.785 32.526C985.681 32.526 986.269 32.974 986.269 33.66V34.57C985.821 34.038 985.023 33.744 984.127 33.744C983.049 33.744 981.775 34.346 981.775 35.928C981.775 37.44 983.049 38.168 984.127 38.168C985.009 38.168 985.807 37.846 986.269 37.3V38H988.047ZM984.841 36.964C984.141 36.964 983.567 36.6 983.567 35.97C983.567 35.312 984.141 34.948 984.841 34.948C985.415 34.948 985.975 35.144 986.269 35.536V36.376C985.975 36.768 985.415 36.964 984.841 36.964ZM1000.09 38V33.114C1000.09 31.728 999.347 31.07 998.101 31.07C997.065 31.07 996.169 31.686 995.777 32.302C995.525 31.532 994.895 31.07 993.901 31.07C992.865 31.07 991.969 31.714 991.689 32.12V31.238H989.911V38H991.689V33.45C991.955 33.072 992.473 32.652 993.089 32.652C993.817 32.652 994.097 33.1 994.097 33.73V38H995.889V33.436C996.141 33.072 996.659 32.652 997.289 32.652C998.017 32.652 998.297 33.1 998.297 33.73V38H1000.09ZM1005.11 38.168C1006.16 38.168 1007.22 37.846 1007.9 37.23L1007.11 36.082C1006.68 36.502 1005.88 36.754 1005.31 36.754C1004.16 36.754 1003.47 36.04 1003.36 35.186H1008.39V34.794C1008.39 32.582 1007.01 31.07 1005 31.07C1002.94 31.07 1001.5 32.652 1001.5 34.612C1001.5 36.782 1003.05 38.168 1005.11 38.168ZM1006.66 33.982H1003.33C1003.42 33.31 1003.89 32.484 1005 32.484C1006.17 32.484 1006.62 33.338 1006.66 33.982ZM1016.11 38V33.226C1016.11 31.91 1015.4 31.07 1013.91 31.07C1012.81 31.07 1011.98 31.602 1011.55 32.12V31.238H1009.77V38H1011.55V33.45C1011.84 33.044 1012.39 32.652 1013.09 32.652C1013.84 32.652 1014.33 32.974 1014.33 33.912V38H1016.11ZM1020.25 38.168C1020.99 38.168 1021.46 37.972 1021.73 37.734L1021.35 36.39C1021.25 36.488 1021 36.586 1020.74 36.586C1020.34 36.586 1020.12 36.264 1020.12 35.844V32.792H1021.49V31.238H1020.12V29.39H1018.33V31.238H1017.21V32.792H1018.33V36.32C1018.33 37.524 1019 38.168 1020.25 38.168Z" fill="#00E0B5"/>
</g>
<defs>
<filter id="filter0_dd_1212_4398" x="0" y="0" width="1068" height="84" filterUnits="userSpaceOnUse" color-interpolation-filters="sRGB">
<feFlood flood-opacity="0" result="BackgroundImageFix"/>
<feColorMatrix in="SourceAlpha" type="matrix" values="0 0 0 0 0 0 0 0 0 0 0 0 0 0 0 0 0 0 127 0" result="hardAlpha"/>
<feOffset dy="4"/>
<feGaussianBlur stdDeviation="2"/>
<feColorMatrix type="matrix" values="0 0 0 0 0 0 0 0 0 0 0 0 0 0 0 0 0 0 0.3 0"/>
<feBlend mode="normal" in2="BackgroundImageFix" result="effect1_dropShadow_1212_4398"/>
<feColorMatrix in="SourceAlpha" type="matrix" values="0 0 0 0 0 0 0 0 0 0 0 0 0 0 0 0 0 0 127 0" result="hardAlpha"/>
<feMorphology radius="6" operator="dilate" in="SourceAlpha" result="effect2_dropShadow_1212_4398"/>
<feOffset dy="8"/>
<feGaussianBlur stdDeviation="6"/>
<feColorMatrix type="matrix" values="0 0 0 0 0 0 0 0 0 0 0 0 0 0 0 0 0 0 0.15 0"/>
<feBlend mode="normal" in2="effect1_dropShadow_1212_4398" result="effect2_dropShadow_1212_4398"/>
<feBlend mode="normal" in="SourceGraphic" in2="effect2_dropShadow_1212_4398" result="shape"/>
</filter>
</defs>
</svg>
