<svg width="572" height="84" viewBox="0 0 572 84" fill="none" xmlns="http://www.w3.org/2000/svg">
<g filter="url(#filter0_dd_1259_5330)">
<rect x="18" y="10" width="536" height="48" rx="12" fill="#1C1C1C"/>
<rect x="18" y="10" width="536" height="48" rx="12" fill="#00E0B5" fill-opacity="0.01"/>
<rect x="18" y="10" width="536" height="48" rx="12" fill="white" fill-opacity="0.04"/>
<path fill-rule="evenodd" clip-rule="evenodd" d="M51.1016 28.8984C49.2857 27.0824 46.3414 27.0824 44.5255 28.8984C42.7095 30.7143 42.7095 33.6586 44.5255 35.4745C46.3414 37.2905 49.2857 37.2905 51.1016 35.4745C52.9176 33.6586 52.9176 30.7143 51.1016 28.8984ZM43.4391 27.812C45.855 25.396 49.7721 25.396 52.188 27.812C54.604 30.2279 54.604 34.145 52.188 36.5609C49.956 38.7929 46.4428 38.9629 44.0157 37.0707L39.0864 42.0001L38 40.9137L42.9293 35.9843C41.0371 33.5572 41.2071 30.044 43.4391 27.812Z" fill="#BFC9C4"/>
<path d="M66.242 38.168C64.45 38.168 63.162 37.566 62.294 36.684L63.372 35.172C64.03 35.858 65.052 36.432 66.34 36.432C67.432 36.432 67.964 35.928 67.964 35.396C67.964 33.744 62.588 34.878 62.588 31.364C62.588 29.81 63.932 28.522 66.13 28.522C67.614 28.522 68.846 28.97 69.77 29.824L68.664 31.28C67.908 30.58 66.9 30.258 65.948 30.258C65.094 30.258 64.618 30.636 64.618 31.196C64.618 32.68 69.98 31.686 69.98 35.172C69.98 36.88 68.762 38.168 66.242 38.168ZM74.5545 38.168C72.4965 38.168 70.9425 36.782 70.9425 34.612C70.9425 32.652 72.3845 31.07 74.4425 31.07C76.4585 31.07 77.8305 32.582 77.8305 34.794V35.186H72.8045C72.9165 36.04 73.6025 36.754 74.7505 36.754C75.3245 36.754 76.1225 36.502 76.5565 36.082L77.3405 37.23C76.6685 37.846 75.6045 38.168 74.5545 38.168ZM76.1085 33.982C76.0665 33.338 75.6185 32.484 74.4425 32.484C73.3365 32.484 72.8605 33.31 72.7765 33.982H76.1085ZM85.0528 38H83.2748V37.3C82.8128 37.846 82.0148 38.168 81.1328 38.168C80.0548 38.168 78.7808 37.44 78.7808 35.928C78.7808 34.346 80.0548 33.744 81.1328 33.744C82.0288 33.744 82.8268 34.038 83.2748 34.57V33.66C83.2748 32.974 82.6868 32.526 81.7908 32.526C81.0628 32.526 80.3908 32.792 79.8168 33.324L79.1448 32.134C79.9708 31.406 81.0348 31.07 82.0988 31.07C83.6388 31.07 85.0528 31.686 85.0528 33.632V38ZM81.8468 36.964C82.4208 36.964 82.9808 36.768 83.2748 36.376V35.536C82.9808 35.144 82.4208 34.948 81.8468 34.948C81.1468 34.948 80.5728 35.312 80.5728 35.97C80.5728 36.6 81.1468 36.964 81.8468 36.964ZM88.6944 38H86.9164V31.238H88.6944V32.162C89.1704 31.56 90.0104 31.07 90.8504 31.07V32.806C90.7244 32.778 90.5564 32.764 90.3604 32.764C89.7724 32.764 88.9884 33.1 88.6944 33.534V38ZM95.2113 38.168C93.1253 38.168 91.6273 36.698 91.6273 34.612C91.6273 32.54 93.1253 31.07 95.2113 31.07C96.5973 31.07 97.4373 31.672 97.8853 32.288L96.7233 33.38C96.4013 32.904 95.9113 32.652 95.2953 32.652C94.2173 32.652 93.4613 33.436 93.4613 34.612C93.4613 35.788 94.2173 36.586 95.2953 36.586C95.9113 36.586 96.4013 36.306 96.7233 35.858L97.8853 36.936C97.4373 37.566 96.5973 38.168 95.2113 38.168ZM105.504 38H103.726V33.884C103.726 32.946 103.236 32.652 102.466 32.652C101.78 32.652 101.234 33.044 100.926 33.45V38H99.1476V28.662H100.926V32.12C101.36 31.602 102.2 31.07 103.306 31.07C104.79 31.07 105.504 31.882 105.504 33.198V38ZM113.235 38H111.443V32.792H110.323V31.238H111.443V30.874C111.443 29.432 112.367 28.522 113.725 28.522C114.369 28.522 115.055 28.69 115.489 29.152L114.817 30.202C114.635 30.02 114.397 29.922 114.075 29.922C113.585 29.922 113.235 30.244 113.235 30.874V31.238H114.607V32.792H113.235V38ZM118.867 38.168C116.641 38.168 115.297 36.544 115.297 34.612C115.297 32.694 116.641 31.07 118.867 31.07C121.107 31.07 122.451 32.694 122.451 34.612C122.451 36.544 121.107 38.168 118.867 38.168ZM118.867 36.586C119.973 36.586 120.603 35.676 120.603 34.612C120.603 33.562 119.973 32.652 118.867 32.652C117.761 32.652 117.145 33.562 117.145 34.612C117.145 35.676 117.761 36.586 118.867 36.586ZM125.648 38H123.87V31.238H125.648V32.162C126.124 31.56 126.964 31.07 127.804 31.07V32.806C127.678 32.778 127.51 32.764 127.314 32.764C126.726 32.764 125.942 33.1 125.648 33.534V38ZM136.897 38H134.895V30.412H132.165V28.662H139.613V30.412H136.897V38ZM142.714 38.168C140.488 38.168 139.144 36.544 139.144 34.612C139.144 32.694 140.488 31.07 142.714 31.07C144.954 31.07 146.298 32.694 146.298 34.612C146.298 36.544 144.954 38.168 142.714 38.168ZM142.714 36.586C143.82 36.586 144.45 35.676 144.45 34.612C144.45 33.562 143.82 32.652 142.714 32.652C141.608 32.652 140.992 33.562 140.992 34.612C140.992 35.676 141.608 36.586 142.714 36.586ZM154.059 38H152.281V37.146C151.819 37.664 151.007 38.168 149.901 38.168C148.417 38.168 147.717 37.356 147.717 36.04V31.238H149.495V35.34C149.495 36.278 149.985 36.586 150.741 36.586C151.427 36.586 151.973 36.208 152.281 35.816V31.238H154.059V38ZM157.703 38H155.925V31.238H157.703V32.162C158.179 31.56 159.019 31.07 159.859 31.07V32.806C159.733 32.778 159.565 32.764 159.369 32.764C158.781 32.764 157.997 33.1 157.703 33.534V38ZM167.412 38H165.634V33.912C165.634 32.974 165.144 32.652 164.388 32.652C163.688 32.652 163.142 33.044 162.848 33.45V38H161.07V31.238H162.848V32.12C163.282 31.602 164.108 31.07 165.214 31.07C166.698 31.07 167.412 31.91 167.412 33.226V38ZM175.115 38H173.337V37.3C172.875 37.846 172.077 38.168 171.195 38.168C170.117 38.168 168.843 37.44 168.843 35.928C168.843 34.346 170.117 33.744 171.195 33.744C172.091 33.744 172.889 34.038 173.337 34.57V33.66C173.337 32.974 172.749 32.526 171.853 32.526C171.125 32.526 170.453 32.792 169.879 33.324L169.207 32.134C170.033 31.406 171.097 31.07 172.161 31.07C173.701 31.07 175.115 31.686 175.115 33.632V38ZM171.909 36.964C172.483 36.964 173.043 36.768 173.337 36.376V35.536C173.043 35.144 172.483 34.948 171.909 34.948C171.209 34.948 170.635 35.312 170.635 35.97C170.635 36.6 171.209 36.964 171.909 36.964ZM187.156 38H185.364V33.73C185.364 33.1 185.084 32.652 184.356 32.652C183.726 32.652 183.208 33.072 182.956 33.436V38H181.164V33.73C181.164 33.1 180.884 32.652 180.156 32.652C179.54 32.652 179.022 33.072 178.756 33.45V38H176.978V31.238H178.756V32.12C179.036 31.714 179.932 31.07 180.968 31.07C181.962 31.07 182.592 31.532 182.844 32.302C183.236 31.686 184.132 31.07 185.168 31.07C186.414 31.07 187.156 31.728 187.156 33.114V38ZM192.178 38.168C190.12 38.168 188.566 36.782 188.566 34.612C188.566 32.652 190.008 31.07 192.066 31.07C194.082 31.07 195.454 32.582 195.454 34.794V35.186H190.428C190.54 36.04 191.226 36.754 192.374 36.754C192.948 36.754 193.746 36.502 194.18 36.082L194.964 37.23C194.292 37.846 193.228 38.168 192.178 38.168ZM193.732 33.982C193.69 33.338 193.242 32.484 192.066 32.484C190.96 32.484 190.484 33.31 190.4 33.982H193.732ZM203.181 38H201.403V33.912C201.403 32.974 200.913 32.652 200.157 32.652C199.457 32.652 198.911 33.044 198.617 33.45V38H196.839V31.238H198.617V32.12C199.051 31.602 199.877 31.07 200.983 31.07C202.467 31.07 203.181 31.91 203.181 33.226V38ZM207.314 38.168C206.068 38.168 205.396 37.524 205.396 36.32V32.792H204.276V31.238H205.396V29.39H207.188V31.238H208.56V32.792H207.188V35.844C207.188 36.264 207.412 36.586 207.804 36.586C208.07 36.586 208.322 36.488 208.42 36.39L208.798 37.734C208.532 37.972 208.056 38.168 207.314 38.168ZM212.313 38.168C211.137 38.168 210.003 37.776 209.289 37.118L210.059 35.872C210.549 36.334 211.557 36.796 212.397 36.796C213.167 36.796 213.531 36.488 213.531 36.068C213.531 34.948 209.513 35.858 209.513 33.198C209.513 32.064 210.507 31.07 212.285 31.07C213.433 31.07 214.343 31.462 215.015 31.994L214.301 33.212C213.895 32.778 213.125 32.428 212.299 32.428C211.655 32.428 211.235 32.722 211.235 33.1C211.235 34.108 215.239 33.268 215.239 35.998C215.239 37.23 214.189 38.168 212.313 38.168Z" fill="#BFC9C4"/>
<rect x="360" y="14" width="190" height="40" rx="9" fill="#1C1C1C"/>
<rect x="360" y="14" width="190" height="40" rx="9" fill="#00E0B5" fill-opacity="0.01"/>
<rect x="360" y="14" width="190" height="40" rx="9" fill="white" fill-opacity="0.06"/>
<path d="M391 34.75H385.75V40H384.25V34.75H379V33.25H384.25V28H385.75V33.25H391V34.75Z" fill="#00E0B5"/>
<path d="M407.446 38.168C409.504 38.168 410.68 37.034 411.352 35.872L409.644 35.046C409.252 35.816 408.412 36.404 407.446 36.404C405.752 36.404 404.52 35.102 404.52 33.338C404.52 31.574 405.752 30.272 407.446 30.272C408.412 30.272 409.252 30.874 409.644 31.63L411.352 30.79C410.694 29.628 409.504 28.508 407.446 28.508C404.646 28.508 402.476 30.468 402.476 33.338C402.476 36.208 404.646 38.168 407.446 38.168ZM414.371 38V33.534C414.665 33.1 415.449 32.764 416.037 32.764C416.233 32.764 416.401 32.778 416.527 32.806V31.07C415.687 31.07 414.847 31.56 414.371 32.162V31.238H412.593V38H414.371ZM420.916 38.168C421.966 38.168 423.03 37.846 423.702 37.23L422.918 36.082C422.484 36.502 421.686 36.754 421.112 36.754C419.964 36.754 419.278 36.04 419.166 35.186H424.192V34.794C424.192 32.582 422.82 31.07 420.804 31.07C418.746 31.07 417.304 32.652 417.304 34.612C417.304 36.782 418.858 38.168 420.916 38.168ZM422.47 33.982H419.138C419.222 33.31 419.698 32.484 420.804 32.484C421.98 32.484 422.428 33.338 422.47 33.982ZM431.415 38V33.632C431.415 31.686 430.001 31.07 428.461 31.07C427.397 31.07 426.333 31.406 425.507 32.134L426.179 33.324C426.753 32.792 427.425 32.526 428.153 32.526C429.049 32.526 429.637 32.974 429.637 33.66V34.57C429.189 34.038 428.391 33.744 427.495 33.744C426.417 33.744 425.143 34.346 425.143 35.928C425.143 37.44 426.417 38.168 427.495 38.168C428.377 38.168 429.175 37.846 429.637 37.3V38H431.415ZM428.209 36.964C427.509 36.964 426.935 36.6 426.935 35.97C426.935 35.312 427.509 34.948 428.209 34.948C428.783 34.948 429.343 35.144 429.637 35.536V36.376C429.343 36.768 428.783 36.964 428.209 36.964ZM435.546 38.168C436.288 38.168 436.764 37.972 437.03 37.734L436.652 36.39C436.554 36.488 436.302 36.586 436.036 36.586C435.644 36.586 435.42 36.264 435.42 35.844V32.792H436.792V31.238H435.42V29.39H433.628V31.238H432.508V32.792H433.628V36.32C433.628 37.524 434.3 38.168 435.546 38.168ZM441.287 38.168C442.337 38.168 443.401 37.846 444.073 37.23L443.289 36.082C442.855 36.502 442.057 36.754 441.483 36.754C440.335 36.754 439.649 36.04 439.537 35.186H444.563V34.794C444.563 32.582 443.191 31.07 441.175 31.07C439.117 31.07 437.675 32.652 437.675 34.612C437.675 36.782 439.229 38.168 441.287 38.168ZM442.841 33.982H439.509C439.593 33.31 440.069 32.484 441.175 32.484C442.351 32.484 442.799 33.338 442.841 33.982ZM453.829 38V30.412H456.545V28.662H449.097V30.412H451.827V38H453.829ZM459.646 38.168C461.886 38.168 463.23 36.544 463.23 34.612C463.23 32.694 461.886 31.07 459.646 31.07C457.42 31.07 456.076 32.694 456.076 34.612C456.076 36.544 457.42 38.168 459.646 38.168ZM459.646 36.586C458.54 36.586 457.924 35.676 457.924 34.612C457.924 33.562 458.54 32.652 459.646 32.652C460.752 32.652 461.382 33.562 461.382 34.612C461.382 35.676 460.752 36.586 459.646 36.586ZM470.991 38V31.238H469.213V35.816C468.905 36.208 468.359 36.586 467.673 36.586C466.917 36.586 466.427 36.278 466.427 35.34V31.238H464.649V36.04C464.649 37.356 465.349 38.168 466.833 38.168C467.939 38.168 468.751 37.664 469.213 37.146V38H470.991ZM474.635 38V33.534C474.929 33.1 475.713 32.764 476.301 32.764C476.497 32.764 476.665 32.778 476.791 32.806V31.07C475.951 31.07 475.111 31.56 474.635 32.162V31.238H472.857V38H474.635ZM484.344 38V33.226C484.344 31.91 483.63 31.07 482.146 31.07C481.04 31.07 480.214 31.602 479.78 32.12V31.238H478.002V38H479.78V33.45C480.074 33.044 480.62 32.652 481.32 32.652C482.076 32.652 482.566 32.974 482.566 33.912V38H484.344ZM492.047 38V33.632C492.047 31.686 490.633 31.07 489.093 31.07C488.029 31.07 486.965 31.406 486.139 32.134L486.811 33.324C487.385 32.792 488.057 32.526 488.785 32.526C489.681 32.526 490.269 32.974 490.269 33.66V34.57C489.821 34.038 489.023 33.744 488.127 33.744C487.049 33.744 485.775 34.346 485.775 35.928C485.775 37.44 487.049 38.168 488.127 38.168C489.009 38.168 489.807 37.846 490.269 37.3V38H492.047ZM488.841 36.964C488.141 36.964 487.567 36.6 487.567 35.97C487.567 35.312 488.141 34.948 488.841 34.948C489.415 34.948 489.975 35.144 490.269 35.536V36.376C489.975 36.768 489.415 36.964 488.841 36.964ZM504.089 38V33.114C504.089 31.728 503.347 31.07 502.101 31.07C501.065 31.07 500.169 31.686 499.777 32.302C499.525 31.532 498.895 31.07 497.901 31.07C496.865 31.07 495.969 31.714 495.689 32.12V31.238H493.911V38H495.689V33.45C495.955 33.072 496.473 32.652 497.089 32.652C497.817 32.652 498.097 33.1 498.097 33.73V38H499.889V33.436C500.141 33.072 500.659 32.652 501.289 32.652C502.017 32.652 502.297 33.1 502.297 33.73V38H504.089ZM509.11 38.168C510.16 38.168 511.224 37.846 511.896 37.23L511.112 36.082C510.678 36.502 509.88 36.754 509.306 36.754C508.158 36.754 507.472 36.04 507.36 35.186H512.386V34.794C512.386 32.582 511.014 31.07 508.998 31.07C506.94 31.07 505.498 32.652 505.498 34.612C505.498 36.782 507.052 38.168 509.11 38.168ZM510.664 33.982H507.332C507.416 33.31 507.892 32.484 508.998 32.484C510.174 32.484 510.622 33.338 510.664 33.982ZM520.113 38V33.226C520.113 31.91 519.399 31.07 517.915 31.07C516.809 31.07 515.983 31.602 515.549 32.12V31.238H513.771V38H515.549V33.45C515.843 33.044 516.389 32.652 517.089 32.652C517.845 32.652 518.335 32.974 518.335 33.912V38H520.113ZM524.246 38.168C524.988 38.168 525.464 37.972 525.73 37.734L525.352 36.39C525.254 36.488 525.002 36.586 524.736 36.586C524.344 36.586 524.12 36.264 524.12 35.844V32.792H525.492V31.238H524.12V29.39H522.328V31.238H521.208V32.792H522.328V36.32C522.328 37.524 523 38.168 524.246 38.168Z" fill="#00E0B5"/>
</g>
<defs>
<filter id="filter0_dd_1259_5330" x="0" y="0" width="572" height="84" filterUnits="userSpaceOnUse" color-interpolation-filters="sRGB">
<feFlood flood-opacity="0" result="BackgroundImageFix"/>
<feColorMatrix in="SourceAlpha" type="matrix" values="0 0 0 0 0 0 0 0 0 0 0 0 0 0 0 0 0 0 127 0" result="hardAlpha"/>
<feOffset dy="4"/>
<feGaussianBlur stdDeviation="2"/>
<feColorMatrix type="matrix" values="0 0 0 0 0 0 0 0 0 0 0 0 0 0 0 0 0 0 0.3 0"/>
<feBlend mode="normal" in2="BackgroundImageFix" result="effect1_dropShadow_1259_5330"/>
<feColorMatrix in="SourceAlpha" type="matrix" values="0 0 0 0 0 0 0 0 0 0 0 0 0 0 0 0 0 0 127 0" result="hardAlpha"/>
<feMorphology radius="6" operator="dilate" in="SourceAlpha" result="effect2_dropShadow_1259_5330"/>
<feOffset dy="8"/>
<feGaussianBlur stdDeviation="6"/>
<feColorMatrix type="matrix" values="0 0 0 0 0 0 0 0 0 0 0 0 0 0 0 0 0 0 0.15 0"/>
<feBlend mode="normal" in2="effect1_dropShadow_1259_5330" result="effect2_dropShadow_1259_5330"/>
<feBlend mode="normal" in="SourceGraphic" in2="effect2_dropShadow_1259_5330" result="shape"/>
</filter>
</defs>
</svg>
