<svg width="396" height="500" viewBox="0 0 396 500" fill="none" xmlns="http://www.w3.org/2000/svg">
<g filter="url(#filter0_dd_1212_4409)">
<rect x="18" y="10" width="360" height="464" rx="12" fill="#1C1C1C"/>
<rect x="18" y="10" width="360" height="464" rx="12" fill="#00E0B5" fill-opacity="0.01"/>
<rect x="18" y="10" width="360" height="464" rx="12" fill="white" fill-opacity="0.04"/>
<path d="M44 44H48V42H44V44ZM37 32V34H55V32H37ZM40 39H52V37H40V39Z" fill="#BFC9C4"/>
<path d="M64.912 42V38.136H69.434V36.386H64.912V34.412H69.532V32.662H62.924V42H64.912ZM71.862 34.51C72.45 34.51 72.926 34.034 72.926 33.446C72.926 32.858 72.45 32.396 71.862 32.396C71.288 32.396 70.798 32.858 70.798 33.446C70.798 34.034 71.288 34.51 71.862 34.51ZM72.758 42V35.238H70.98V42H72.758ZM76.3991 42V32.662H74.6211V42H76.3991ZM80.5301 42.168C81.2721 42.168 81.7481 41.972 82.0141 41.734L81.6361 40.39C81.5381 40.488 81.2861 40.586 81.0201 40.586C80.6281 40.586 80.4041 40.264 80.4041 39.844V36.792H81.7761V35.238H80.4041V33.39H78.6121V35.238H77.4921V36.792H78.6121V40.32C78.6121 41.524 79.2841 42.168 80.5301 42.168ZM86.2705 42.168C87.3205 42.168 88.3845 41.846 89.0565 41.23L88.2725 40.082C87.8385 40.502 87.0405 40.754 86.4665 40.754C85.3185 40.754 84.6325 40.04 84.5205 39.186H89.5465V38.794C89.5465 36.582 88.1745 35.07 86.1585 35.07C84.1005 35.07 82.6585 36.652 82.6585 38.612C82.6585 40.782 84.2125 42.168 86.2705 42.168ZM87.8245 37.982H84.4925C84.5765 37.31 85.0525 36.484 86.1585 36.484C87.3345 36.484 87.7825 37.338 87.8245 37.982ZM92.7088 42V37.534C93.0028 37.1 93.7868 36.764 94.3748 36.764C94.5708 36.764 94.7388 36.778 94.8648 36.806V35.07C94.0248 35.07 93.1848 35.56 92.7088 36.162V35.238H90.9308V42H92.7088Z" fill="#BFC9C4"/>
<g clip-path="url(#clip0_1212_4409)">
<path fill-rule="evenodd" clip-rule="evenodd" d="M296.25 31.25V32H300V33.5H299.25V43.25C299.25 44.075 298.575 44.75 297.75 44.75H290.25C289.425 44.75 288.75 44.075 288.75 43.25V33.5H288V32H291.75V31.25H296.25ZM290.25 43.25H297.75V33.5H290.25V43.25ZM291.75 35H293.25V41.75H291.75V35ZM296.25 35H294.75V41.75H296.25V35Z" fill="#FFB4A9"/>
<path d="M315.726 42L313.626 38.444C314.634 38.206 315.67 37.324 315.67 35.672C315.67 33.936 314.48 32.662 312.534 32.662H308.166V42H310.154V38.682H311.61L313.444 42H315.726ZM312.24 36.932H310.154V34.412H312.24C313.038 34.412 313.64 34.888 313.64 35.672C313.64 36.456 313.038 36.932 312.24 36.932ZM319.974 42.168C321.024 42.168 322.088 41.846 322.76 41.23L321.976 40.082C321.542 40.502 320.744 40.754 320.17 40.754C319.022 40.754 318.336 40.04 318.224 39.186H323.25V38.794C323.25 36.582 321.878 35.07 319.862 35.07C317.804 35.07 316.362 36.652 316.362 38.612C316.362 40.782 317.916 42.168 319.974 42.168ZM321.528 37.982H318.196C318.28 37.31 318.756 36.484 319.862 36.484C321.038 36.484 321.486 37.338 321.528 37.982ZM327.07 42.168C328.946 42.168 329.996 41.23 329.996 39.998C329.996 37.268 325.992 38.108 325.992 37.1C325.992 36.722 326.412 36.428 327.056 36.428C327.882 36.428 328.652 36.778 329.058 37.212L329.772 35.994C329.1 35.462 328.19 35.07 327.042 35.07C325.264 35.07 324.27 36.064 324.27 37.198C324.27 39.858 328.288 38.948 328.288 40.068C328.288 40.488 327.924 40.796 327.154 40.796C326.314 40.796 325.306 40.334 324.816 39.872L324.046 41.118C324.76 41.776 325.894 42.168 327.07 42.168ZM334.584 42.168C335.634 42.168 336.698 41.846 337.37 41.23L336.586 40.082C336.152 40.502 335.354 40.754 334.78 40.754C333.632 40.754 332.946 40.04 332.834 39.186H337.86V38.794C337.86 36.582 336.488 35.07 334.472 35.07C332.414 35.07 330.972 36.652 330.972 38.612C330.972 40.782 332.526 42.168 334.584 42.168ZM336.138 37.982H332.806C332.89 37.31 333.366 36.484 334.472 36.484C335.648 36.484 336.096 37.338 336.138 37.982ZM341.512 42.168C342.254 42.168 342.73 41.972 342.996 41.734L342.618 40.39C342.52 40.488 342.268 40.586 342.002 40.586C341.61 40.586 341.386 40.264 341.386 39.844V36.792H342.758V35.238H341.386V33.39H339.594V35.238H338.474V36.792H339.594V40.32C339.594 41.524 340.266 42.168 341.512 42.168ZM353.595 42V37.632C353.595 35.686 352.181 35.07 350.641 35.07C349.577 35.07 348.513 35.406 347.687 36.134L348.359 37.324C348.933 36.792 349.605 36.526 350.333 36.526C351.229 36.526 351.817 36.974 351.817 37.66V38.57C351.369 38.038 350.571 37.744 349.675 37.744C348.597 37.744 347.323 38.346 347.323 39.928C347.323 41.44 348.597 42.168 349.675 42.168C350.557 42.168 351.355 41.846 351.817 41.3V42H353.595ZM350.389 40.964C349.689 40.964 349.115 40.6 349.115 39.97C349.115 39.312 349.689 38.948 350.389 38.948C350.963 38.948 351.523 39.144 351.817 39.536V40.376C351.523 40.768 350.963 40.964 350.389 40.964ZM357.236 42V32.662H355.458V42H357.236ZM360.877 42V32.662H359.099V42H360.877Z" fill="#FFB4A9"/>
</g>
<g filter="url(#filter1_dd_1212_4409)">
<rect x="34" y="62" width="328" height="44" rx="5" fill="#1C1C1C"/>
<rect x="34" y="62" width="328" height="44" rx="5" fill="#00E0B5" fill-opacity="0.01"/>
<rect x="34" y="62" width="328" height="44" rx="5" fill="white" fill-opacity="0.08"/>
<path d="M59 76V78.67L58 79.67L57 78.67V76H59ZM66 83V85H63.33L62.33 84L63.33 83H66ZM52.67 83L53.67 84L52.67 85H50V83H52.67ZM58 88.33L59 89.33V92H57V89.33L58 88.33ZM61 74H55V79.5L58 82.5L61 79.5V74ZM68 81H62.5L59.5 84L62.5 87H68V81ZM53.5 81H48V87H53.5L56.5 84L53.5 81ZM58 85.5L55 88.5V94H61V88.5L58 85.5Z" fill="#E0E3E0"/>
<path d="M90.668 80.156C92.12 80.156 93.26 79.556 94.076 78.644V75.572H90.26V77.06H92.372V78.02C92.048 78.32 91.376 78.632 90.668 78.632C89.216 78.632 88.16 77.516 88.16 76.004C88.16 74.492 89.216 73.376 90.668 73.376C91.52 73.376 92.204 73.856 92.564 74.42L93.98 73.652C93.38 72.704 92.336 71.864 90.668 71.864C88.328 71.864 86.408 73.472 86.408 76.004C86.408 78.524 88.328 80.156 90.668 80.156ZM100.397 80V76.256C100.397 74.588 99.1847 74.06 97.8647 74.06C96.9527 74.06 96.0407 74.348 95.3327 74.972L95.9087 75.992C96.4007 75.536 96.9767 75.308 97.6007 75.308C98.3687 75.308 98.8727 75.692 98.8727 76.28V77.06C98.4887 76.604 97.8047 76.352 97.0367 76.352C96.1127 76.352 95.0207 76.868 95.0207 78.224C95.0207 79.52 96.1127 80.144 97.0367 80.144C97.7927 80.144 98.4767 79.868 98.8727 79.4V80H100.397ZM97.6487 79.112C97.0487 79.112 96.5567 78.8 96.5567 78.26C96.5567 77.696 97.0487 77.384 97.6487 77.384C98.1407 77.384 98.6207 77.552 98.8727 77.888V78.608C98.6207 78.944 98.1407 79.112 97.6487 79.112ZM110.632 80V75.812C110.632 74.624 109.996 74.06 108.928 74.06C108.04 74.06 107.272 74.588 106.936 75.116C106.72 74.456 106.18 74.06 105.328 74.06C104.44 74.06 103.672 74.612 103.432 74.96V74.204H101.908V80H103.432V76.1C103.66 75.776 104.104 75.416 104.632 75.416C105.256 75.416 105.496 75.8 105.496 76.34V80H107.032V76.088C107.248 75.776 107.692 75.416 108.232 75.416C108.856 75.416 109.096 75.8 109.096 76.34V80H110.632ZM114.851 80.144C115.751 80.144 116.663 79.868 117.239 79.34L116.567 78.356C116.195 78.716 115.511 78.932 115.019 78.932C114.035 78.932 113.447 78.32 113.351 77.588H117.659V77.252C117.659 75.356 116.483 74.06 114.755 74.06C112.991 74.06 111.755 75.416 111.755 77.096C111.755 78.956 113.087 80.144 114.851 80.144ZM116.183 76.556H113.327C113.399 75.98 113.807 75.272 114.755 75.272C115.763 75.272 116.147 76.004 116.183 76.556ZM128.73 80C128.166 79.436 127.662 78.908 127.182 78.392C127.638 77.78 128.01 77.096 128.298 76.46L127.074 75.896C126.93 76.364 126.678 76.928 126.342 77.444C126.126 77.18 125.898 76.916 125.67 76.628C125.466 76.388 125.214 76.088 124.974 75.764C125.958 75.308 126.942 74.792 126.942 73.568C126.942 72.5 125.97 71.876 124.842 71.876C123.51 71.876 122.55 72.716 122.55 73.796C122.55 74.336 122.766 74.936 123.078 75.524C122.166 75.98 121.362 76.616 121.362 77.828C121.362 79.376 122.538 80.144 124.002 80.144C124.854 80.144 125.586 79.856 126.186 79.4C126.414 79.64 126.618 79.844 126.786 80H128.73ZM124.218 78.944C123.558 78.944 122.982 78.464 122.982 77.684C122.982 77.132 123.258 76.76 123.678 76.46C123.942 76.832 124.218 77.192 124.482 77.516C124.674 77.756 125.01 78.14 125.37 78.536C125.022 78.788 124.626 78.944 124.218 78.944ZM124.074 73.832C124.074 73.34 124.446 72.98 124.914 72.98C125.31 72.98 125.622 73.232 125.622 73.652C125.622 74.24 125.094 74.588 124.422 74.912C124.218 74.528 124.074 74.156 124.074 73.832ZM141.37 80V71.996H138.97L137.026 76.832L135.082 71.996H132.694V80H134.398V74.396L136.654 80H137.398L139.654 74.396V80H141.37ZM145.612 80.144C147.532 80.144 148.684 78.752 148.684 77.096C148.684 75.452 147.532 74.06 145.612 74.06C143.704 74.06 142.552 75.452 142.552 77.096C142.552 78.752 143.704 80.144 145.612 80.144ZM145.612 78.788C144.664 78.788 144.136 78.008 144.136 77.096C144.136 76.196 144.664 75.416 145.612 75.416C146.56 75.416 147.1 76.196 147.1 77.096C147.1 78.008 146.56 78.788 145.612 78.788ZM155.335 80V71.996H153.799V74.948C153.343 74.36 152.695 74.06 152.011 74.06C150.535 74.06 149.443 75.212 149.443 77.108C149.443 79.04 150.547 80.144 152.011 80.144C152.707 80.144 153.343 79.832 153.799 79.256V80H155.335ZM152.479 78.788C151.615 78.788 151.015 78.104 151.015 77.108C151.015 76.1 151.615 75.416 152.479 75.416C152.995 75.416 153.547 75.692 153.799 76.076V78.128C153.547 78.512 152.995 78.788 152.479 78.788ZM159.57 80.144C160.47 80.144 161.382 79.868 161.958 79.34L161.286 78.356C160.914 78.716 160.23 78.932 159.738 78.932C158.754 78.932 158.166 78.32 158.07 77.588H162.378V77.252C162.378 75.356 161.202 74.06 159.474 74.06C157.71 74.06 156.474 75.416 156.474 77.096C156.474 78.956 157.806 80.144 159.57 80.144ZM160.902 76.556H158.046C158.118 75.98 158.526 75.272 159.474 75.272C160.482 75.272 160.866 76.004 160.902 76.556ZM91.564 96C93.215 96 94.086 94.96 94.086 93.66C94.086 92.568 93.345 91.671 92.422 91.528C93.241 91.359 93.917 90.631 93.917 89.539C93.917 88.382 93.072 87.329 91.421 87.329H86.858V96H91.564ZM91.018 90.8H88.704V88.915H91.018C91.642 88.915 92.032 89.318 92.032 89.864C92.032 90.41 91.642 90.8 91.018 90.8ZM91.083 94.401H88.704V92.386H91.083C91.811 92.386 92.201 92.854 92.201 93.4C92.201 94.024 91.785 94.401 91.083 94.401ZM97.4801 96V91.853C97.7531 91.45 98.4811 91.138 99.0271 91.138C99.2091 91.138 99.3651 91.151 99.4821 91.177V89.565C98.7021 89.565 97.9221 90.02 97.4801 90.579V89.721H95.8291V96H97.4801ZM106.325 96V91.944C106.325 90.137 105.012 89.565 103.582 89.565C102.594 89.565 101.606 89.877 100.839 90.553L101.463 91.658C101.996 91.164 102.62 90.917 103.296 90.917C104.128 90.917 104.674 91.333 104.674 91.97V92.815C104.258 92.321 103.517 92.048 102.685 92.048C101.684 92.048 100.501 92.607 100.501 94.076C100.501 95.48 101.684 96.156 102.685 96.156C103.504 96.156 104.245 95.857 104.674 95.35V96H106.325ZM103.348 95.038C102.698 95.038 102.165 94.7 102.165 94.115C102.165 93.504 102.698 93.166 103.348 93.166C103.881 93.166 104.401 93.348 104.674 93.712V94.492C104.401 94.856 103.881 95.038 103.348 95.038ZM115.619 96L117.53 89.721H115.814L114.644 93.946L113.266 89.721H111.797L110.419 93.946L109.249 89.721H107.533L109.444 96H111.212L112.538 91.723L113.864 96H115.619ZM120.384 96V87.329H118.733V96H120.384ZM128.314 96V91.541C128.314 90.319 127.651 89.565 126.273 89.565C125.246 89.565 124.466 90.059 124.063 90.54V87.329H122.412V96H124.063V91.775C124.349 91.398 124.856 91.034 125.493 91.034C126.208 91.034 126.663 91.307 126.663 92.178V96H128.314ZM135.764 96V91.944C135.764 90.137 134.451 89.565 133.021 89.565C132.033 89.565 131.045 89.877 130.278 90.553L130.902 91.658C131.435 91.164 132.059 90.917 132.735 90.917C133.567 90.917 134.113 91.333 134.113 91.97V92.815C133.697 92.321 132.956 92.048 132.124 92.048C131.123 92.048 129.94 92.607 129.94 94.076C129.94 95.48 131.123 96.156 132.124 96.156C132.943 96.156 133.684 95.857 134.113 95.35V96H135.764ZM132.787 95.038C132.137 95.038 131.604 94.7 131.604 94.115C131.604 93.504 132.137 93.166 132.787 93.166C133.32 93.166 133.84 93.348 134.113 93.712V94.492C133.84 94.856 133.32 95.038 132.787 95.038ZM139.442 96V87.329H137.791V96H139.442ZM143.12 96V87.329H141.469V96H143.12ZM150.568 96V91.944C150.568 90.137 149.255 89.565 147.825 89.565C146.837 89.565 145.849 89.877 145.082 90.553L145.706 91.658C146.239 91.164 146.863 90.917 147.539 90.917C148.371 90.917 148.917 91.333 148.917 91.97V92.815C148.501 92.321 147.76 92.048 146.928 92.048C145.927 92.048 144.744 92.607 144.744 94.076C144.744 95.48 145.927 96.156 146.928 96.156C147.747 96.156 148.488 95.857 148.917 95.35V96H150.568ZM147.591 95.038C146.941 95.038 146.408 94.7 146.408 94.115C146.408 93.504 146.941 93.166 147.591 93.166C148.124 93.166 148.644 93.348 148.917 93.712V94.492C148.644 94.856 148.124 95.038 147.591 95.038ZM163.787 96C163.176 95.389 162.63 94.817 162.11 94.258C162.604 93.595 163.007 92.854 163.319 92.165L161.993 91.554C161.837 92.061 161.564 92.672 161.2 93.231C160.966 92.945 160.719 92.659 160.472 92.347C160.251 92.087 159.978 91.762 159.718 91.411C160.784 90.917 161.85 90.358 161.85 89.032C161.85 87.875 160.797 87.199 159.575 87.199C158.132 87.199 157.092 88.109 157.092 89.279C157.092 89.864 157.326 90.514 157.664 91.151C156.676 91.645 155.805 92.334 155.805 93.647C155.805 95.324 157.079 96.156 158.665 96.156C159.588 96.156 160.381 95.844 161.031 95.35C161.278 95.61 161.499 95.831 161.681 96H163.787ZM158.899 94.856C158.184 94.856 157.56 94.336 157.56 93.491C157.56 92.893 157.859 92.49 158.314 92.165C158.6 92.568 158.899 92.958 159.185 93.309C159.393 93.569 159.757 93.985 160.147 94.414C159.77 94.687 159.341 94.856 158.899 94.856ZM158.743 89.318C158.743 88.785 159.146 88.395 159.653 88.395C160.082 88.395 160.42 88.668 160.42 89.123C160.42 89.76 159.848 90.137 159.12 90.488C158.899 90.072 158.743 89.669 158.743 89.318ZM173.568 96C175.219 96 176.09 94.96 176.09 93.66C176.09 92.568 175.349 91.671 174.426 91.528C175.245 91.359 175.921 90.631 175.921 89.539C175.921 88.382 175.076 87.329 173.425 87.329H168.862V96H173.568ZM173.022 90.8H170.708V88.915H173.022C173.646 88.915 174.036 89.318 174.036 89.864C174.036 90.41 173.646 90.8 173.022 90.8ZM173.087 94.401H170.708V92.386H173.087C173.815 92.386 174.205 92.854 174.205 93.4C174.205 94.024 173.789 94.401 173.087 94.401ZM179.484 96V91.853C179.757 91.45 180.485 91.138 181.031 91.138C181.213 91.138 181.369 91.151 181.486 91.177V89.565C180.706 89.565 179.926 90.02 179.484 90.579V89.721H177.833V96H179.484ZM188.328 96V91.944C188.328 90.137 187.015 89.565 185.585 89.565C184.597 89.565 183.609 89.877 182.842 90.553L183.466 91.658C183.999 91.164 184.623 90.917 185.299 90.917C186.131 90.917 186.677 91.333 186.677 91.97V92.815C186.261 92.321 185.52 92.048 184.688 92.048C183.687 92.048 182.504 92.607 182.504 94.076C182.504 95.48 183.687 96.156 184.688 96.156C185.507 96.156 186.248 95.857 186.677 95.35V96H188.328ZM185.351 95.038C184.701 95.038 184.168 94.7 184.168 94.115C184.168 93.504 184.701 93.166 185.351 93.166C185.884 93.166 186.404 93.348 186.677 93.712V94.492C186.404 94.856 185.884 95.038 185.351 95.038ZM197.623 96L199.534 89.721H197.818L196.648 93.946L195.27 89.721H193.801L192.423 93.946L191.253 89.721H189.537L191.448 96H193.216L194.542 91.723L195.868 96H197.623ZM202.388 96V87.329H200.737V96H202.388Z" fill="#E0E3E0"/>
<path fill-rule="evenodd" clip-rule="evenodd" d="M343.25 77.25V78H347V79.5H346.25V89.25C346.25 90.075 345.575 90.75 344.75 90.75H337.25C336.425 90.75 335.75 90.075 335.75 89.25V79.5H335V78H338.75V77.25H343.25ZM337.25 89.25H344.75V79.5H337.25V89.25ZM338.75 81H340.25V87.75H338.75V81ZM343.25 81H341.75V87.75H343.25V81Z" fill="#BFC9C4"/>
</g>
<g filter="url(#filter2_dd_1212_4409)">
<rect x="34" y="114" width="328" height="44" rx="5" fill="#1C1C1C"/>
<rect x="34" y="114" width="328" height="44" rx="5" fill="#00E0B5" fill-opacity="0.01"/>
<rect x="34" y="114" width="328" height="44" rx="5" fill="white" fill-opacity="0.08"/>
<path d="M50 137C51.1 137 52 136.1 52 135C52 133.9 51.1 133 50 133C48.9 133 48 133.9 48 135C48 136.1 48.9 137 50 137ZM51.13 138.1C50.76 138.04 50.39 138 50 138C49.01 138 48.07 138.21 47.22 138.58C46.48 138.9 46 139.62 46 140.43V142H50.5V140.39C50.5 139.56 50.73 138.78 51.13 138.1ZM66 137C67.1 137 68 136.1 68 135C68 133.9 67.1 133 66 133C64.9 133 64 133.9 64 135C64 136.1 64.9 137 66 137ZM70 140.43C70 139.62 69.52 138.9 68.78 138.58C67.93 138.21 66.99 138 66 138C65.61 138 65.24 138.04 64.87 138.1C65.27 138.78 65.5 139.56 65.5 140.39V142H70V140.43ZM62.24 137.65C61.07 137.13 59.63 136.75 58 136.75C56.37 136.75 54.93 137.14 53.76 137.65C52.68 138.13 52 139.21 52 140.39V142H64V140.39C64 139.21 63.32 138.13 62.24 137.65ZM54.07 140C54.16 139.77 54.2 139.61 54.98 139.31C55.95 138.93 56.97 138.75 58 138.75C59.03 138.75 60.05 138.93 61.02 139.31C61.79 139.61 61.83 139.77 61.93 140H54.07ZM58 132C58.55 132 59 132.45 59 133C59 133.55 58.55 134 58 134C57.45 134 57 133.55 57 133C57 132.45 57.45 132 58 132ZM58 130C56.34 130 55 131.34 55 133C55 134.66 56.34 136 58 136C59.66 136 61 134.66 61 133C61 131.34 59.66 130 58 130Z" fill="#E0E3E0"/>
<path d="M90.356 132V125.496H92.684V123.996H86.3V125.496H88.64V132H90.356ZM95.2925 132.144C96.1925 132.144 97.1045 131.868 97.6805 131.34L97.0085 130.356C96.6365 130.716 95.9525 130.932 95.4605 130.932C94.4765 130.932 93.8885 130.32 93.7925 129.588H98.1005V129.252C98.1005 127.356 96.9245 126.06 95.1965 126.06C93.4325 126.06 92.1965 127.416 92.1965 129.096C92.1965 130.956 93.5285 132.144 95.2925 132.144ZM96.6245 128.556H93.7685C93.8405 127.98 94.2485 127.272 95.1965 127.272C96.2045 127.272 96.5885 128.004 96.6245 128.556ZM104.205 132V128.256C104.205 126.588 102.993 126.06 101.673 126.06C100.761 126.06 99.8493 126.348 99.1413 126.972L99.7173 127.992C100.209 127.536 100.785 127.308 101.409 127.308C102.177 127.308 102.681 127.692 102.681 128.28V129.06C102.297 128.604 101.613 128.352 100.845 128.352C99.9213 128.352 98.8293 128.868 98.8293 130.224C98.8293 131.52 99.9213 132.144 100.845 132.144C101.601 132.144 102.285 131.868 102.681 131.4V132H104.205ZM101.457 131.112C100.857 131.112 100.365 130.8 100.365 130.26C100.365 129.696 100.857 129.384 101.457 129.384C101.949 129.384 102.429 129.552 102.681 129.888V130.608C102.429 130.944 101.949 131.112 101.457 131.112ZM114.441 132V127.812C114.441 126.624 113.805 126.06 112.737 126.06C111.849 126.06 111.081 126.588 110.745 127.116C110.529 126.456 109.989 126.06 109.137 126.06C108.249 126.06 107.481 126.612 107.241 126.96V126.204H105.717V132H107.241V128.1C107.469 127.776 107.913 127.416 108.441 127.416C109.065 127.416 109.305 127.8 109.305 128.34V132H110.841V128.088C111.057 127.776 111.501 127.416 112.041 127.416C112.665 127.416 112.905 127.8 112.905 128.34V132H114.441ZM121.094 132.144C122.702 132.144 123.602 131.34 123.602 130.284C123.602 127.944 120.17 128.664 120.17 127.8C120.17 127.476 120.53 127.224 121.082 127.224C121.79 127.224 122.45 127.524 122.798 127.896L123.41 126.852C122.834 126.396 122.054 126.06 121.07 126.06C119.546 126.06 118.694 126.912 118.694 127.884C118.694 130.164 122.138 129.384 122.138 130.344C122.138 130.704 121.826 130.968 121.166 130.968C120.446 130.968 119.582 130.572 119.162 130.176L118.502 131.244C119.114 131.808 120.086 132.144 121.094 132.144ZM125.481 125.58C125.985 125.58 126.393 125.172 126.393 124.668C126.393 124.164 125.985 123.768 125.481 123.768C124.989 123.768 124.569 124.164 124.569 124.668C124.569 125.172 124.989 125.58 125.481 125.58ZM126.249 132V126.204H124.725V132H126.249ZM132.236 132V130.668H129.536L132.188 127.308V126.204H127.508V127.536H130.124L127.508 130.86V132H132.236ZM136.226 132.144C137.126 132.144 138.038 131.868 138.614 131.34L137.942 130.356C137.57 130.716 136.886 130.932 136.394 130.932C135.41 130.932 134.822 130.32 134.726 129.588H139.034V129.252C139.034 127.356 137.858 126.06 136.13 126.06C134.366 126.06 133.13 127.416 133.13 129.096C133.13 130.956 134.462 132.144 136.226 132.144ZM137.558 128.556H134.702C134.774 127.98 135.182 127.272 136.13 127.272C137.138 127.272 137.522 128.004 137.558 128.556ZM90.485 148V139.329H88.873L86.143 142.072L87.196 143.177L88.639 141.708V148H90.485ZM99.0779 149.781C98.2069 148.221 97.7649 146.791 97.7649 144.841C97.7649 142.891 98.2069 141.461 99.0779 139.875L98.0379 139.095C96.7769 140.525 95.9839 142.748 95.9839 144.841C95.9839 146.934 96.7769 149.17 98.0379 150.587L99.0779 149.781ZM104.185 148V139.329H102.573L99.8433 142.072L100.896 143.177L102.339 141.708V148H104.185ZM109.66 148L112.182 141.721H110.401L108.763 146.089L107.125 141.721H105.357L107.879 148H109.66ZM116.975 148V139.329H115.363L112.633 142.072L113.686 143.177L115.129 141.708V148H116.975ZM119.486 150.587C120.76 149.17 121.566 146.934 121.566 144.841C121.566 142.748 120.76 140.525 119.486 139.095L118.446 139.875C119.343 141.461 119.772 142.891 119.772 144.841C119.772 146.791 119.343 148.221 118.446 149.781L119.486 150.587Z" fill="#E0E3E0"/>
<path fill-rule="evenodd" clip-rule="evenodd" d="M343.25 129.25V130H347V131.5H346.25V141.25C346.25 142.075 345.575 142.75 344.75 142.75H337.25C336.425 142.75 335.75 142.075 335.75 141.25V131.5H335V130H338.75V129.25H343.25ZM337.25 141.25H344.75V131.5H337.25V141.25ZM338.75 133H340.25V139.75H338.75V133ZM343.25 133H341.75V139.75H343.25V133Z" fill="#BFC9C4"/>
</g>
<g filter="url(#filter3_dd_1212_4409)">
<rect x="34" y="166" width="328" height="44" rx="5" fill="#1C1C1C"/>
<rect x="34" y="166" width="328" height="44" rx="5" fill="#00E0B5" fill-opacity="0.01"/>
<rect x="34" y="166" width="328" height="44" rx="5" fill="white" fill-opacity="0.08"/>
<rect x="47" y="180" width="10" height="7" rx="1" fill="#E0E3E0"/>
<rect width="10" height="7" rx="1" transform="matrix(1 0 0 -1 47 196)" fill="#E0E3E0"/>
<mask id="path-18-inside-1_1212_4409" fill="white">
<rect x="59" y="184.5" width="10" height="7" rx="1"/>
</mask>
<rect x="59" y="184.5" width="10" height="7" rx="1" stroke="#E0E3E0" stroke-width="4" mask="url(#path-18-inside-1_1212_4409)"/>
<path d="M90.356 184V177.496H92.684V175.996H86.3V177.496H88.64V184H90.356ZM95.2565 184.144C97.1765 184.144 98.3285 182.752 98.3285 181.096C98.3285 179.452 97.1765 178.06 95.2565 178.06C93.3485 178.06 92.1965 179.452 92.1965 181.096C92.1965 182.752 93.3485 184.144 95.2565 184.144ZM95.2565 182.788C94.3085 182.788 93.7805 182.008 93.7805 181.096C93.7805 180.196 94.3085 179.416 95.2565 179.416C96.2045 179.416 96.7445 180.196 96.7445 181.096C96.7445 182.008 96.2045 182.788 95.2565 182.788ZM104.895 184V178.204H103.371V182.128C103.107 182.464 102.639 182.788 102.051 182.788C101.403 182.788 100.983 182.524 100.983 181.72V178.204H99.4591V182.32C99.4591 183.448 100.059 184.144 101.331 184.144C102.279 184.144 102.975 183.712 103.371 183.268V184H104.895ZM107.932 184V180.172C108.184 179.8 108.856 179.512 109.36 179.512C109.528 179.512 109.672 179.524 109.78 179.548V178.06C109.06 178.06 108.34 178.48 107.932 178.996V178.204H106.408V184H107.932ZM116.169 184V179.908C116.169 178.78 115.557 178.06 114.285 178.06C113.337 178.06 112.629 178.516 112.257 178.96V178.204H110.733V184H112.257V180.1C112.509 179.752 112.977 179.416 113.577 179.416C114.225 179.416 114.645 179.692 114.645 180.496V184H116.169ZM122.686 184V180.256C122.686 178.588 121.474 178.06 120.154 178.06C119.242 178.06 118.33 178.348 117.622 178.972L118.198 179.992C118.69 179.536 119.266 179.308 119.89 179.308C120.658 179.308 121.162 179.692 121.162 180.28V181.06C120.778 180.604 120.094 180.352 119.326 180.352C118.402 180.352 117.31 180.868 117.31 182.224C117.31 183.52 118.402 184.144 119.326 184.144C120.082 184.144 120.766 183.868 121.162 183.4V184H122.686ZM119.938 183.112C119.338 183.112 118.846 182.8 118.846 182.26C118.846 181.696 119.338 181.384 119.938 181.384C120.43 181.384 120.91 181.552 121.162 181.888V182.608C120.91 182.944 120.43 183.112 119.938 183.112ZM132.921 184V179.812C132.921 178.624 132.285 178.06 131.217 178.06C130.329 178.06 129.561 178.588 129.225 179.116C129.009 178.456 128.469 178.06 127.617 178.06C126.729 178.06 125.961 178.612 125.721 178.96V178.204H124.197V184H125.721V180.1C125.949 179.776 126.393 179.416 126.921 179.416C127.545 179.416 127.785 179.8 127.785 180.34V184H129.321V180.088C129.537 179.776 129.981 179.416 130.521 179.416C131.145 179.416 131.385 179.8 131.385 180.34V184H132.921ZM137.14 184.144C138.04 184.144 138.952 183.868 139.528 183.34L138.856 182.356C138.484 182.716 137.8 182.932 137.308 182.932C136.324 182.932 135.736 182.32 135.64 181.588H139.948V181.252C139.948 179.356 138.772 178.06 137.044 178.06C135.28 178.06 134.044 179.416 134.044 181.096C134.044 182.956 135.376 184.144 137.14 184.144ZM138.472 180.556H135.616C135.688 179.98 136.096 179.272 137.044 179.272C138.052 179.272 138.436 180.004 138.472 180.556ZM146.485 184V179.908C146.485 178.78 145.873 178.06 144.601 178.06C143.653 178.06 142.945 178.516 142.573 178.96V178.204H141.049V184H142.573V180.1C142.825 179.752 143.293 179.416 143.893 179.416C144.541 179.416 144.961 179.692 144.961 180.496V184H146.485ZM149.942 184.144C150.578 184.144 150.986 183.976 151.214 183.772L150.89 182.62C150.806 182.704 150.59 182.788 150.362 182.788C150.026 182.788 149.834 182.512 149.834 182.152V179.536H151.01V178.204H149.834V176.62H148.298V178.204H147.338V179.536H148.298V182.56C148.298 183.592 148.874 184.144 149.942 184.144ZM163.835 184V175.996H161.435L159.491 180.832L157.547 175.996H155.159V184H156.863V178.396L159.119 184H159.863L162.119 178.396V184H163.835ZM168.077 184.144C169.997 184.144 171.149 182.752 171.149 181.096C171.149 179.452 169.997 178.06 168.077 178.06C166.169 178.06 165.017 179.452 165.017 181.096C165.017 182.752 166.169 184.144 168.077 184.144ZM168.077 182.788C167.129 182.788 166.601 182.008 166.601 181.096C166.601 180.196 167.129 179.416 168.077 179.416C169.025 179.416 169.565 180.196 169.565 181.096C169.565 182.008 169.025 182.788 168.077 182.788ZM177.799 184V175.996H176.263V178.948C175.807 178.36 175.159 178.06 174.475 178.06C172.999 178.06 171.907 179.212 171.907 181.108C171.907 183.04 173.011 184.144 174.475 184.144C175.171 184.144 175.807 183.832 176.263 183.256V184H177.799ZM174.943 182.788C174.079 182.788 173.479 182.104 173.479 181.108C173.479 180.1 174.079 179.416 174.943 179.416C175.459 179.416 176.011 179.692 176.263 180.076V182.128C176.011 182.512 175.459 182.788 174.943 182.788ZM182.035 184.144C182.935 184.144 183.847 183.868 184.423 183.34L183.751 182.356C183.379 182.716 182.695 182.932 182.203 182.932C181.219 182.932 180.631 182.32 180.535 181.588H184.843V181.252C184.843 179.356 183.667 178.06 181.939 178.06C180.175 178.06 178.939 179.416 178.939 181.096C178.939 182.956 180.271 184.144 182.035 184.144ZM183.367 180.556H180.511C180.583 179.98 180.991 179.272 181.939 179.272C182.947 179.272 183.331 180.004 183.367 180.556ZM89.939 200.156C92.279 200.156 93.41 198.96 93.41 197.374C93.41 194.137 88.431 195.06 88.431 193.682C88.431 193.162 88.873 192.811 89.666 192.811C90.55 192.811 91.486 193.11 92.188 193.76L93.215 192.408C92.357 191.615 91.213 191.199 89.835 191.199C87.794 191.199 86.546 192.395 86.546 193.838C86.546 197.101 91.538 196.048 91.538 197.582C91.538 198.076 91.044 198.544 90.03 198.544C88.834 198.544 87.885 198.011 87.274 197.374L86.273 198.778C87.079 199.597 88.275 200.156 89.939 200.156ZM95.8229 193.045C96.3689 193.045 96.8109 192.603 96.8109 192.057C96.8109 191.511 96.3689 191.082 95.8229 191.082C95.2899 191.082 94.8349 191.511 94.8349 192.057C94.8349 192.603 95.2899 193.045 95.8229 193.045ZM96.6549 200V193.721H95.0039V200H96.6549ZM104.571 200V195.567C104.571 194.345 103.908 193.565 102.53 193.565C101.503 193.565 100.736 194.059 100.333 194.54V193.721H98.682V200H100.333V195.775C100.606 195.398 101.113 195.034 101.763 195.034C102.465 195.034 102.92 195.333 102.92 196.204V200H104.571ZM109.174 202.548C110.721 202.548 112.567 201.963 112.567 199.571V193.721H110.903V194.527C110.396 193.89 109.72 193.565 108.966 193.565C107.38 193.565 106.197 194.709 106.197 196.763C106.197 198.856 107.393 199.961 108.966 199.961C109.733 199.961 110.409 199.597 110.903 198.973V199.61C110.903 200.845 109.967 201.196 109.174 201.196C108.381 201.196 107.718 200.975 107.211 200.416L106.47 201.612C107.263 202.301 108.095 202.548 109.174 202.548ZM109.486 198.492C108.55 198.492 107.9 197.842 107.9 196.763C107.9 195.684 108.55 195.034 109.486 195.034C110.032 195.034 110.63 195.333 110.903 195.749V197.777C110.63 198.18 110.032 198.492 109.486 198.492ZM116.246 200V191.329H114.595V200H116.246ZM121.224 200.156C122.199 200.156 123.187 199.857 123.811 199.285L123.083 198.219C122.68 198.609 121.939 198.843 121.406 198.843C120.34 198.843 119.703 198.18 119.599 197.387H124.266V197.023C124.266 194.969 122.992 193.565 121.12 193.565C119.209 193.565 117.87 195.034 117.87 196.854C117.87 198.869 119.313 200.156 121.224 200.156ZM122.667 196.269H119.573C119.651 195.645 120.093 194.878 121.12 194.878C122.212 194.878 122.628 195.671 122.667 196.269ZM135.74 200V198.375H131.45V196.412H135.649V194.787H131.45V192.954H135.74V191.329H129.604V200H135.74ZM139.185 200V191.329H137.534V200H139.185ZM142.031 193.045C142.577 193.045 143.019 192.603 143.019 192.057C143.019 191.511 142.577 191.082 142.031 191.082C141.498 191.082 141.043 191.511 141.043 192.057C141.043 192.603 141.498 193.045 142.031 193.045ZM142.863 200V193.721H141.212V200H142.863ZM154.341 200V195.463C154.341 194.176 153.652 193.565 152.495 193.565C151.533 193.565 150.701 194.137 150.337 194.709C150.103 193.994 149.518 193.565 148.595 193.565C147.633 193.565 146.801 194.163 146.541 194.54V193.721H144.89V200H146.541V195.775C146.788 195.424 147.269 195.034 147.841 195.034C148.517 195.034 148.777 195.45 148.777 196.035V200H150.441V195.762C150.675 195.424 151.156 195.034 151.741 195.034C152.417 195.034 152.677 195.45 152.677 196.035V200H154.341ZM157.169 193.045C157.715 193.045 158.157 192.603 158.157 192.057C158.157 191.511 157.715 191.082 157.169 191.082C156.636 191.082 156.181 191.511 156.181 192.057C156.181 192.603 156.636 193.045 157.169 193.045ZM158.001 200V193.721H156.35V200H158.001ZM165.917 200V195.567C165.917 194.345 165.254 193.565 163.876 193.565C162.849 193.565 162.082 194.059 161.679 194.54V193.721H160.028V200H161.679V195.775C161.952 195.398 162.459 195.034 163.109 195.034C163.811 195.034 164.266 195.333 164.266 196.204V200H165.917ZM173.368 200V195.944C173.368 194.137 172.055 193.565 170.625 193.565C169.637 193.565 168.649 193.877 167.882 194.553L168.506 195.658C169.039 195.164 169.663 194.917 170.339 194.917C171.171 194.917 171.717 195.333 171.717 195.97V196.815C171.301 196.321 170.56 196.048 169.728 196.048C168.727 196.048 167.544 196.607 167.544 198.076C167.544 199.48 168.727 200.156 169.728 200.156C170.547 200.156 171.288 199.857 171.717 199.35V200H173.368ZM170.391 199.038C169.741 199.038 169.208 198.7 169.208 198.115C169.208 197.504 169.741 197.166 170.391 197.166C170.924 197.166 171.444 197.348 171.717 197.712V198.492C171.444 198.856 170.924 199.038 170.391 199.038ZM177.501 200.156C178.19 200.156 178.632 199.974 178.879 199.753L178.528 198.505C178.437 198.596 178.203 198.687 177.956 198.687C177.592 198.687 177.384 198.388 177.384 197.998V195.164H178.658V193.721H177.384V192.005H175.72V193.721H174.68V195.164H175.72V198.44C175.72 199.558 176.344 200.156 177.501 200.156ZM180.997 193.045C181.543 193.045 181.985 192.603 181.985 192.057C181.985 191.511 181.543 191.082 180.997 191.082C180.464 191.082 180.009 191.511 180.009 192.057C180.009 192.603 180.464 193.045 180.997 193.045ZM181.829 200V193.721H180.178V200H181.829ZM186.768 200.156C188.848 200.156 190.096 198.648 190.096 196.854C190.096 195.073 188.848 193.565 186.768 193.565C184.701 193.565 183.453 195.073 183.453 196.854C183.453 198.648 184.701 200.156 186.768 200.156ZM186.768 198.687C185.741 198.687 185.169 197.842 185.169 196.854C185.169 195.879 185.741 195.034 186.768 195.034C187.795 195.034 188.38 195.879 188.38 196.854C188.38 197.842 187.795 198.687 186.768 198.687ZM197.6 200V195.567C197.6 194.345 196.937 193.565 195.559 193.565C194.532 193.565 193.765 194.059 193.362 194.54V193.721H191.711V200H193.362V195.775C193.635 195.398 194.142 195.034 194.792 195.034C195.494 195.034 195.949 195.333 195.949 196.204V200H197.6Z" fill="#E0E3E0"/>
<path fill-rule="evenodd" clip-rule="evenodd" d="M343.25 181.25V182H347V183.5H346.25V193.25C346.25 194.075 345.575 194.75 344.75 194.75H337.25C336.425 194.75 335.75 194.075 335.75 193.25V183.5H335V182H338.75V181.25H343.25ZM337.25 193.25H344.75V183.5H337.25V193.25ZM338.75 185H340.25V191.75H338.75V185ZM343.25 185H341.75V191.75H343.25V185Z" fill="#BFC9C4"/>
</g>
<rect x="34" y="218" width="328" height="44" rx="5" fill="#1C1C1C"/>
<rect x="34" y="218" width="328" height="44" rx="5" fill="#00E0B5" fill-opacity="0.01"/>
<rect x="34" y="218" width="328" height="44" rx="5" fill="white" fill-opacity="0.02"/>
<path d="M50 234H68V232H50C48.9 232 48 232.9 48 234V245H46V248H60V245H50V234ZM69 236H63C62.45 236 62 236.45 62 237V247C62 247.55 62.45 248 63 248H69C69.55 248 70 247.55 70 247V237C70 236.45 69.55 236 69 236ZM68 245H64V238H68V245Z" fill="#BFC9C4"/>
<path d="M88.704 244H86.858V235.329H90.914C91.824 235.329 92.5347 235.598 93.046 236.135C93.566 236.664 93.826 237.327 93.826 238.124C93.826 238.913 93.566 239.576 93.046 240.113C92.526 240.65 91.8153 240.919 90.914 240.919H88.704V244ZM90.667 239.294C91.0397 239.294 91.343 239.19 91.577 238.982C91.8197 238.765 91.941 238.479 91.941 238.124C91.941 237.769 91.8197 237.487 91.577 237.279C91.343 237.062 91.0397 236.954 90.667 236.954H88.704V239.294H90.667ZM96.8423 244H95.1913V235.329H96.8423V244ZM104.16 244H102.509V243.35C102.059 243.887 101.396 244.156 100.52 244.156C99.9571 244.156 99.4501 243.974 98.9994 243.61C98.5574 243.237 98.3364 242.726 98.3364 242.076C98.3364 241.4 98.5531 240.893 98.9864 240.555C99.4284 240.217 99.9397 240.048 100.52 240.048C101.413 240.048 102.076 240.304 102.509 240.815V239.97C102.509 239.649 102.384 239.394 102.132 239.203C101.881 239.012 101.547 238.917 101.131 238.917C100.447 238.917 99.8357 239.164 99.2984 239.658L98.6744 238.553C99.4197 237.894 100.334 237.565 101.417 237.565C102.223 237.565 102.882 237.751 103.393 238.124C103.905 238.497 104.16 239.103 104.16 239.944V244ZM101.183 243.038C101.799 243.038 102.241 242.856 102.509 242.492V241.712C102.241 241.348 101.799 241.166 101.183 241.166C100.845 241.166 100.564 241.253 100.338 241.426C100.113 241.591 100 241.82 100 242.115C100 242.401 100.113 242.626 100.338 242.791C100.564 242.956 100.845 243.038 101.183 243.038ZM108.164 244.156C107.583 244.156 107.141 244.009 106.838 243.714C106.535 243.419 106.383 242.995 106.383 242.44V239.164H105.343V237.721H106.383V236.005H108.047V237.721H109.321V239.164H108.047V241.998C108.047 242.197 108.099 242.362 108.203 242.492C108.307 242.622 108.446 242.687 108.619 242.687C108.879 242.687 109.07 242.626 109.191 242.505L109.542 243.753C109.239 244.022 108.779 244.156 108.164 244.156ZM112.739 244H111.075V239.164H110.035V237.721H111.075V237.383C111.075 236.716 111.27 236.187 111.66 235.797C112.05 235.398 112.561 235.199 113.194 235.199C113.922 235.199 114.468 235.394 114.832 235.784L114.208 236.759C114.034 236.586 113.805 236.499 113.519 236.499C113.285 236.499 113.094 236.577 112.947 236.733C112.808 236.88 112.739 237.097 112.739 237.383V237.721H114.013V239.164H112.739V244ZM120.553 243.207C119.947 243.84 119.141 244.156 118.135 244.156C117.13 244.156 116.324 243.84 115.717 243.207C115.119 242.566 114.82 241.781 114.82 240.854C114.82 239.927 115.119 239.147 115.717 238.514C116.324 237.881 117.13 237.565 118.135 237.565C119.141 237.565 119.947 237.881 120.553 238.514C121.16 239.147 121.463 239.927 121.463 240.854C121.463 241.781 121.16 242.566 120.553 243.207ZM116.965 242.167C117.251 242.514 117.641 242.687 118.135 242.687C118.629 242.687 119.019 242.514 119.305 242.167C119.6 241.812 119.747 241.374 119.747 240.854C119.747 240.343 119.6 239.914 119.305 239.567C119.019 239.212 118.629 239.034 118.135 239.034C117.641 239.034 117.251 239.212 116.965 239.567C116.679 239.914 116.536 240.343 116.536 240.854C116.536 241.374 116.679 241.812 116.965 242.167ZM124.599 244H122.948V237.721H124.599V238.579C124.833 238.284 125.132 238.042 125.496 237.851C125.86 237.66 126.229 237.565 126.601 237.565V239.177C126.489 239.151 126.337 239.138 126.146 239.138C125.869 239.138 125.574 239.207 125.262 239.346C124.95 239.485 124.729 239.654 124.599 239.853V244ZM137.344 244H135.68V240.035C135.68 239.368 135.368 239.034 134.744 239.034C134.475 239.034 134.224 239.108 133.99 239.255C133.765 239.402 133.583 239.571 133.444 239.762V244H131.78V240.035C131.78 239.368 131.468 239.034 130.844 239.034C130.584 239.034 130.337 239.108 130.103 239.255C129.869 239.402 129.683 239.576 129.544 239.775V244H127.893V237.721H129.544V238.54C129.7 238.315 129.973 238.098 130.363 237.89C130.753 237.673 131.165 237.565 131.598 237.565C132.508 237.565 133.089 237.946 133.34 238.709C133.539 238.397 133.834 238.128 134.224 237.903C134.623 237.678 135.047 237.565 135.498 237.565C136.087 237.565 136.542 237.725 136.863 238.046C137.184 238.358 137.344 238.83 137.344 239.463V244Z" fill="#BFC9C4"/>
<rect x="34" y="270" width="328" height="44" rx="5" fill="#1C1C1C"/>
<rect x="34" y="270" width="328" height="44" rx="5" fill="#00E0B5" fill-opacity="0.01"/>
<rect x="34" y="270" width="328" height="44" rx="5" fill="white" fill-opacity="0.02"/>
<path d="M55 293.75C52.66 293.75 48 294.92 48 297.25V299H62V297.25C62 294.92 57.34 293.75 55 293.75ZM50.34 297C51.18 296.42 53.21 295.75 55 295.75C56.79 295.75 58.82 296.42 59.66 297H50.34ZM55 292C56.93 292 58.5 290.43 58.5 288.5C58.5 286.57 56.93 285 55 285C53.07 285 51.5 286.57 51.5 288.5C51.5 290.43 53.07 292 55 292ZM55 287C55.83 287 56.5 287.67 56.5 288.5C56.5 289.33 55.83 290 55 290C54.17 290 53.5 289.33 53.5 288.5C53.5 287.67 54.17 287 55 287ZM62.04 293.81C63.2 294.65 64 295.77 64 297.25V299H68V297.25C68 295.23 64.5 294.08 62.04 293.81ZM61 292C62.93 292 64.5 290.43 64.5 288.5C64.5 286.57 62.93 285 61 285C60.46 285 59.96 285.13 59.5 285.35C60.13 286.24 60.5 287.33 60.5 288.5C60.5 289.67 60.13 290.76 59.5 291.65C59.96 291.87 60.46 292 61 292Z" fill="#BFC9C4"/>
<path d="M89.939 296.156C88.3963 296.156 87.1743 295.697 86.273 294.778L87.274 293.374C88.0193 294.154 88.938 294.544 90.03 294.544C90.5067 294.544 90.875 294.453 91.135 294.271C91.4037 294.08 91.538 293.851 91.538 293.582C91.538 293.348 91.4123 293.153 91.161 292.997C90.9183 292.841 90.6107 292.728 90.238 292.659C89.874 292.59 89.4753 292.49 89.042 292.36C88.6087 292.23 88.2057 292.083 87.833 291.918C87.469 291.753 87.1613 291.493 86.91 291.138C86.6673 290.783 86.546 290.349 86.546 289.838C86.546 289.093 86.845 288.469 87.443 287.966C88.041 287.455 88.8383 287.199 89.835 287.199C91.213 287.199 92.3397 287.602 93.215 288.408L92.188 289.76C91.5033 289.127 90.6627 288.811 89.666 288.811C89.276 288.811 88.9727 288.889 88.756 289.045C88.5393 289.201 88.431 289.413 88.431 289.682C88.431 289.89 88.5523 290.068 88.795 290.215C89.0463 290.354 89.354 290.458 89.718 290.527C90.0907 290.596 90.4893 290.7 90.914 290.839C91.3473 290.969 91.746 291.121 92.11 291.294C92.4827 291.459 92.7903 291.723 93.033 292.087C93.2843 292.442 93.41 292.871 93.41 293.374C93.41 294.206 93.111 294.878 92.513 295.389C91.9237 295.9 91.0657 296.156 89.939 296.156ZM96.6549 296H95.0039V287.329H96.6549V296ZM104.012 295.207C103.405 295.84 102.599 296.156 101.594 296.156C100.589 296.156 99.7827 295.84 99.176 295.207C98.578 294.566 98.279 293.781 98.279 292.854C98.279 291.927 98.578 291.147 99.176 290.514C99.7827 289.881 100.589 289.565 101.594 289.565C102.599 289.565 103.405 289.881 104.012 290.514C104.619 291.147 104.922 291.927 104.922 292.854C104.922 293.781 104.619 294.566 104.012 295.207ZM100.424 294.167C100.71 294.514 101.1 294.687 101.594 294.687C102.088 294.687 102.478 294.514 102.764 294.167C103.059 293.812 103.206 293.374 103.206 292.854C103.206 292.343 103.059 291.914 102.764 291.567C102.478 291.212 102.088 291.034 101.594 291.034C101.1 291.034 100.71 291.212 100.424 291.567C100.138 291.914 99.995 292.343 99.995 292.854C99.995 293.374 100.138 293.812 100.424 294.167ZM108.643 296.156C108.062 296.156 107.62 296.009 107.317 295.714C107.014 295.419 106.862 294.995 106.862 294.44V291.164H105.822V289.721H106.862V288.005H108.526V289.721H109.8V291.164H108.526V293.998C108.526 294.197 108.578 294.362 108.682 294.492C108.786 294.622 108.925 294.687 109.098 294.687C109.358 294.687 109.549 294.626 109.67 294.505L110.021 295.753C109.718 296.022 109.258 296.156 108.643 296.156ZM113.581 296.156C113.035 296.156 112.511 296.069 112.008 295.896C111.514 295.723 111.103 295.484 110.773 295.181L111.488 294.024C111.731 294.249 112.06 294.449 112.476 294.622C112.892 294.795 113.287 294.882 113.659 294.882C114.006 294.882 114.266 294.821 114.439 294.7C114.621 294.579 114.712 294.414 114.712 294.206C114.712 294.05 114.617 293.924 114.426 293.829C114.244 293.725 114.015 293.651 113.737 293.608C113.469 293.565 113.17 293.5 112.84 293.413C112.52 293.326 112.221 293.222 111.943 293.101C111.675 292.98 111.445 292.789 111.254 292.529C111.072 292.26 110.981 291.931 110.981 291.541C110.981 290.986 111.211 290.518 111.67 290.137C112.13 289.756 112.758 289.565 113.555 289.565C114.526 289.565 115.371 289.851 116.09 290.423L115.427 291.554C115.228 291.346 114.959 291.173 114.621 291.034C114.292 290.895 113.941 290.826 113.568 290.826C113.274 290.826 113.035 290.887 112.853 291.008C112.671 291.121 112.58 291.268 112.58 291.45C112.58 291.589 112.671 291.706 112.853 291.801C113.035 291.888 113.265 291.953 113.542 291.996C113.82 292.039 114.119 292.109 114.439 292.204C114.76 292.291 115.059 292.399 115.336 292.529C115.614 292.65 115.843 292.85 116.025 293.127C116.207 293.404 116.298 293.742 116.298 294.141C116.298 294.73 116.056 295.216 115.57 295.597C115.094 295.97 114.431 296.156 113.581 296.156Z" fill="#BFC9C4"/>
<rect x="34" y="322" width="328" height="44" rx="5" fill="#1C1C1C"/>
<rect x="34" y="322" width="328" height="44" rx="5" fill="#00E0B5" fill-opacity="0.01"/>
<rect x="34" y="322" width="328" height="44" rx="5" fill="white" fill-opacity="0.02"/>
<path d="M65 347V351H51V347H65ZM66 345H50C49.45 345 49 345.45 49 346V352C49 352.55 49.45 353 50 353H66C66.55 353 67 352.55 67 352V346C67 345.45 66.55 345 66 345ZM53 350.5C52.18 350.5 51.5 349.83 51.5 349C51.5 348.17 52.18 347.5 53 347.5C53.82 347.5 54.5 348.17 54.5 349C54.5 349.83 53.83 350.5 53 350.5ZM65 337V341H51V337H65ZM66 335H50C49.45 335 49 335.45 49 336V342C49 342.55 49.45 343 50 343H66C66.55 343 67 342.55 67 342V336C67 335.45 66.55 335 66 335ZM53 340.5C52.18 340.5 51.5 339.83 51.5 339C51.5 338.17 52.18 337.5 53 337.5C53.82 337.5 54.5 338.18 54.5 339C54.5 339.82 53.83 340.5 53 340.5Z" fill="#BFC9C4"/>
<path d="M89.939 348.156C88.3963 348.156 87.1743 347.697 86.273 346.778L87.274 345.374C88.0193 346.154 88.938 346.544 90.03 346.544C90.5067 346.544 90.875 346.453 91.135 346.271C91.4037 346.08 91.538 345.851 91.538 345.582C91.538 345.348 91.4123 345.153 91.161 344.997C90.9183 344.841 90.6107 344.728 90.238 344.659C89.874 344.59 89.4753 344.49 89.042 344.36C88.6087 344.23 88.2057 344.083 87.833 343.918C87.469 343.753 87.1613 343.493 86.91 343.138C86.6673 342.783 86.546 342.349 86.546 341.838C86.546 341.093 86.845 340.469 87.443 339.966C88.041 339.455 88.8383 339.199 89.835 339.199C91.213 339.199 92.3397 339.602 93.215 340.408L92.188 341.76C91.5033 341.127 90.6627 340.811 89.666 340.811C89.276 340.811 88.9727 340.889 88.756 341.045C88.5393 341.201 88.431 341.413 88.431 341.682C88.431 341.89 88.5523 342.068 88.795 342.215C89.0463 342.354 89.354 342.458 89.718 342.527C90.0907 342.596 90.4893 342.7 90.914 342.839C91.3473 342.969 91.746 343.121 92.11 343.294C92.4827 343.459 92.7903 343.723 93.033 344.087C93.2843 344.442 93.41 344.871 93.41 345.374C93.41 346.206 93.111 346.878 92.513 347.389C91.9237 347.9 91.0657 348.156 89.939 348.156ZM97.9549 348.156C96.9843 348.156 96.1826 347.853 95.5499 347.246C94.9173 346.639 94.6009 345.842 94.6009 344.854C94.6009 343.927 94.9043 343.147 95.5109 342.514C96.1263 341.881 96.9063 341.565 97.8509 341.565C98.7869 341.565 99.5453 341.886 100.126 342.527C100.707 343.16 100.997 343.992 100.997 345.023V345.387H96.3299C96.3819 345.803 96.5683 346.15 96.8889 346.427C97.2096 346.704 97.6256 346.843 98.1369 346.843C98.4143 346.843 98.7133 346.787 99.0339 346.674C99.3633 346.561 99.6233 346.41 99.8139 346.219L100.542 347.285C99.9093 347.866 99.0469 348.156 97.9549 348.156ZM99.3979 344.269C99.3719 343.914 99.2289 343.593 98.9689 343.307C98.7176 343.021 98.3449 342.878 97.8509 342.878C97.3829 342.878 97.0189 343.021 96.7589 343.307C96.4989 343.584 96.3473 343.905 96.3039 344.269H99.3979ZM104.23 348H102.579V341.721H104.23V342.579C104.464 342.284 104.763 342.042 105.127 341.851C105.491 341.66 105.86 341.565 106.232 341.565V343.177C106.12 343.151 105.968 343.138 105.777 343.138C105.5 343.138 105.205 343.207 104.893 343.346C104.581 343.485 104.36 343.654 104.23 343.853V348ZM111.06 348H109.279L106.757 341.721H108.525L110.163 346.089L111.801 341.721H113.582L111.06 348ZM117.66 348.156C116.689 348.156 115.888 347.853 115.255 347.246C114.622 346.639 114.306 345.842 114.306 344.854C114.306 343.927 114.609 343.147 115.216 342.514C115.831 341.881 116.611 341.565 117.556 341.565C118.492 341.565 119.25 341.886 119.831 342.527C120.412 343.16 120.702 343.992 120.702 345.023V345.387H116.035C116.087 345.803 116.273 346.15 116.594 346.427C116.915 346.704 117.331 346.843 117.842 346.843C118.119 346.843 118.418 346.787 118.739 346.674C119.068 346.561 119.328 346.41 119.519 346.219L120.247 347.285C119.614 347.866 118.752 348.156 117.66 348.156ZM119.103 344.269C119.077 343.914 118.934 343.593 118.674 343.307C118.423 343.021 118.05 342.878 117.556 342.878C117.088 342.878 116.724 343.021 116.464 343.307C116.204 343.584 116.052 343.905 116.009 344.269H119.103ZM123.936 348H122.285V341.721H123.936V342.579C124.17 342.284 124.469 342.042 124.833 341.851C125.197 341.66 125.565 341.565 125.938 341.565V343.177C125.825 343.151 125.673 343.138 125.483 343.138C125.205 343.138 124.911 343.207 124.599 343.346C124.287 343.485 124.066 343.654 123.936 343.853V348ZM138.134 348H136.015L134.312 344.919H132.96V348H131.114V339.329H135.17C136.063 339.329 136.769 339.589 137.289 340.109C137.818 340.629 138.082 341.301 138.082 342.124C138.082 342.835 137.896 343.411 137.523 343.853C137.159 344.295 136.713 344.577 136.184 344.698L138.134 348ZM134.897 343.294C135.279 343.294 135.591 343.19 135.833 342.982C136.076 342.765 136.197 342.479 136.197 342.124C136.197 341.769 136.076 341.487 135.833 341.279C135.591 341.062 135.279 340.954 134.897 340.954H132.96V343.294H134.897ZM142.376 348.156C141.406 348.156 140.604 347.853 139.971 347.246C139.339 346.639 139.022 345.842 139.022 344.854C139.022 343.927 139.326 343.147 139.932 342.514C140.548 341.881 141.328 341.565 142.272 341.565C143.208 341.565 143.967 341.886 144.547 342.527C145.128 343.16 145.418 343.992 145.418 345.023V345.387H140.751C140.803 345.803 140.99 346.15 141.31 346.427C141.631 346.704 142.047 346.843 142.558 346.843C142.836 346.843 143.135 346.787 143.455 346.674C143.785 346.561 144.045 346.41 144.235 346.219L144.963 347.285C144.331 347.866 143.468 348.156 142.376 348.156ZM143.819 344.269C143.793 343.914 143.65 343.593 143.39 343.307C143.139 343.021 142.766 342.878 142.272 342.878C141.804 342.878 141.44 343.021 141.18 343.307C140.92 343.584 140.769 343.905 140.725 344.269H143.819ZM149.575 350.548C148.492 350.548 147.59 350.236 146.871 349.612L147.612 348.416C148.08 348.936 148.734 349.196 149.575 349.196C150.043 349.196 150.446 349.07 150.784 348.819C151.131 348.576 151.304 348.173 151.304 347.61V346.973C150.784 347.632 150.138 347.961 149.367 347.961C148.552 347.961 147.885 347.684 147.365 347.129C146.854 346.566 146.598 345.777 146.598 344.763C146.598 343.758 146.854 342.973 147.365 342.41C147.885 341.847 148.552 341.565 149.367 341.565C150.147 341.565 150.793 341.886 151.304 342.527V341.721H152.968V347.571C152.968 348.143 152.864 348.633 152.656 349.04C152.457 349.447 152.184 349.755 151.837 349.963C151.49 350.171 151.131 350.318 150.758 350.405C150.394 350.5 150 350.548 149.575 350.548ZM149.887 346.492C150.156 346.492 150.424 346.423 150.693 346.284C150.962 346.145 151.165 345.976 151.304 345.777V343.749C151.165 343.541 150.962 343.372 150.693 343.242C150.433 343.103 150.164 343.034 149.887 343.034C149.41 343.034 149.025 343.19 148.73 343.502C148.444 343.814 148.301 344.234 148.301 344.763C148.301 345.292 148.444 345.712 148.73 346.024C149.025 346.336 149.41 346.492 149.887 346.492ZM155.814 341.045C155.546 341.045 155.312 340.95 155.112 340.759C154.922 340.56 154.826 340.326 154.826 340.057C154.826 339.788 154.922 339.559 155.112 339.368C155.312 339.177 155.546 339.082 155.814 339.082C156.092 339.082 156.326 339.177 156.516 339.368C156.707 339.559 156.802 339.788 156.802 340.057C156.802 340.326 156.707 340.56 156.516 340.759C156.326 340.95 156.092 341.045 155.814 341.045ZM156.646 348H154.995V341.721H156.646V348ZM164.003 347.207C163.397 347.84 162.591 348.156 161.585 348.156C160.58 348.156 159.774 347.84 159.167 347.207C158.569 346.566 158.27 345.781 158.27 344.854C158.27 343.927 158.569 343.147 159.167 342.514C159.774 341.881 160.58 341.565 161.585 341.565C162.591 341.565 163.397 341.881 164.003 342.514C164.61 343.147 164.913 343.927 164.913 344.854C164.913 345.781 164.61 346.566 164.003 347.207ZM160.415 346.167C160.701 346.514 161.091 346.687 161.585 346.687C162.079 346.687 162.469 346.514 162.755 346.167C163.05 345.812 163.197 345.374 163.197 344.854C163.197 344.343 163.05 343.914 162.755 343.567C162.469 343.212 162.079 343.034 161.585 343.034C161.091 343.034 160.701 343.212 160.415 343.567C160.129 343.914 159.986 344.343 159.986 344.854C159.986 345.374 160.129 345.812 160.415 346.167ZM172.417 348H170.766V344.204C170.766 343.424 170.381 343.034 169.609 343.034C169.011 343.034 168.535 343.281 168.179 343.775V348H166.528V341.721H168.179V342.54C168.725 341.89 169.458 341.565 170.376 341.565C171.052 341.565 171.559 341.743 171.897 342.098C172.244 342.453 172.417 342.943 172.417 343.567V348Z" fill="#BFC9C4"/>
<rect x="34" y="374" width="328" height="44" rx="5" fill="#1C1C1C"/>
<rect x="34" y="374" width="328" height="44" rx="5" fill="#00E0B5" fill-opacity="0.01"/>
<rect x="34" y="374" width="328" height="44" rx="5" fill="white" fill-opacity="0.02"/>
<path d="M57.99 386C52.47 386 48 390.48 48 396C48 401.52 52.47 406 57.99 406C63.52 406 68 401.52 68 396C68 390.48 63.52 386 57.99 386ZM64.92 392H61.97C61.65 390.75 61.19 389.55 60.59 388.44C62.43 389.07 63.96 390.35 64.92 392ZM58 388.04C58.83 389.24 59.48 390.57 59.91 392H56.09C56.52 390.57 57.17 389.24 58 388.04ZM50.26 398C50.1 397.36 50 396.69 50 396C50 395.31 50.1 394.64 50.26 394H53.64C53.56 394.66 53.5 395.32 53.5 396C53.5 396.68 53.56 397.34 53.64 398H50.26ZM51.08 400H54.03C54.35 401.25 54.81 402.45 55.41 403.56C53.57 402.93 52.04 401.66 51.08 400ZM54.03 392H51.08C52.04 390.34 53.57 389.07 55.41 388.44C54.81 389.55 54.35 390.75 54.03 392ZM58 403.96C57.17 402.76 56.52 401.43 56.09 400H59.91C59.48 401.43 58.83 402.76 58 403.96ZM60.34 398H55.66C55.57 397.34 55.5 396.68 55.5 396C55.5 395.32 55.57 394.65 55.66 394H60.34C60.43 394.65 60.5 395.32 60.5 396C60.5 396.68 60.43 397.34 60.34 398ZM60.59 403.56C61.19 402.45 61.65 401.25 61.97 400H64.92C63.96 401.65 62.43 402.93 60.59 403.56ZM62.36 398C62.44 397.34 62.5 396.68 62.5 396C62.5 395.32 62.44 394.66 62.36 394H65.74C65.9 394.64 66 395.31 66 396C66 396.69 65.9 397.36 65.74 398H62.36Z" fill="#BFC9C4"/>
<path d="M92.37 400H86.858V391.329H88.704V398.375H92.37V400ZM99.3458 400H97.6948V399.35C97.2442 399.887 96.5812 400.156 95.7058 400.156C95.1425 400.156 94.6355 399.974 94.1848 399.61C93.7428 399.237 93.5218 398.726 93.5218 398.076C93.5218 397.4 93.7385 396.893 94.1718 396.555C94.6138 396.217 95.1252 396.048 95.7058 396.048C96.5985 396.048 97.2615 396.304 97.6948 396.815V395.97C97.6948 395.649 97.5692 395.394 97.3178 395.203C97.0665 395.012 96.7328 394.917 96.3168 394.917C95.6322 394.917 95.0212 395.164 94.4838 395.658L93.8598 394.553C94.6052 393.894 95.5195 393.565 96.6028 393.565C97.4088 393.565 98.0675 393.751 98.5788 394.124C99.0902 394.497 99.3458 395.103 99.3458 395.944V400ZM96.3688 399.038C96.9842 399.038 97.4262 398.856 97.6948 398.492V397.712C97.4262 397.348 96.9842 397.166 96.3688 397.166C96.0308 397.166 95.7492 397.253 95.5238 397.426C95.2985 397.591 95.1858 397.82 95.1858 398.115C95.1858 398.401 95.2985 398.626 95.5238 398.791C95.7492 398.956 96.0308 399.038 96.3688 399.038ZM107.262 400H105.611V396.204C105.611 395.424 105.226 395.034 104.454 395.034C103.856 395.034 103.38 395.281 103.024 395.775V400H101.373V393.721H103.024V394.54C103.57 393.89 104.303 393.565 105.221 393.565C105.897 393.565 106.404 393.743 106.742 394.098C107.089 394.453 107.262 394.943 107.262 395.567V400ZM111.866 402.548C110.782 402.548 109.881 402.236 109.162 401.612L109.903 400.416C110.371 400.936 111.025 401.196 111.866 401.196C112.334 401.196 112.737 401.07 113.075 400.819C113.421 400.576 113.595 400.173 113.595 399.61V398.973C113.075 399.632 112.429 399.961 111.658 399.961C110.843 399.961 110.176 399.684 109.656 399.129C109.144 398.566 108.889 397.777 108.889 396.763C108.889 395.758 109.144 394.973 109.656 394.41C110.176 393.847 110.843 393.565 111.658 393.565C112.438 393.565 113.083 393.886 113.595 394.527V393.721H115.259V399.571C115.259 400.143 115.155 400.633 114.947 401.04C114.747 401.447 114.474 401.755 114.128 401.963C113.781 402.171 113.421 402.318 113.049 402.405C112.685 402.5 112.29 402.548 111.866 402.548ZM112.178 398.492C112.446 398.492 112.715 398.423 112.984 398.284C113.252 398.145 113.456 397.976 113.595 397.777V395.749C113.456 395.541 113.252 395.372 112.984 395.242C112.724 395.103 112.455 395.034 112.178 395.034C111.701 395.034 111.315 395.19 111.021 395.502C110.735 395.814 110.592 396.234 110.592 396.763C110.592 397.292 110.735 397.712 111.021 398.024C111.315 398.336 111.701 398.492 112.178 398.492ZM123.175 400H121.524V399.207C120.961 399.84 120.224 400.156 119.314 400.156C118.638 400.156 118.131 399.983 117.793 399.636C117.455 399.289 117.286 398.804 117.286 398.18V393.721H118.937V397.53C118.937 398.301 119.323 398.687 120.094 398.687C120.675 398.687 121.152 398.449 121.524 397.972V393.721H123.175V400ZM130.626 400H128.975V399.35C128.524 399.887 127.861 400.156 126.986 400.156C126.422 400.156 125.915 399.974 125.465 399.61C125.023 399.237 124.802 398.726 124.802 398.076C124.802 397.4 125.018 396.893 125.452 396.555C125.894 396.217 126.405 396.048 126.986 396.048C127.878 396.048 128.541 396.304 128.975 396.815V395.97C128.975 395.649 128.849 395.394 128.598 395.203C128.346 395.012 128.013 394.917 127.597 394.917C126.912 394.917 126.301 395.164 125.764 395.658L125.14 394.553C125.885 393.894 126.799 393.565 127.883 393.565C128.689 393.565 129.347 393.751 129.859 394.124C130.37 394.497 130.626 395.103 130.626 395.944V400ZM127.649 399.038C128.264 399.038 128.706 398.856 128.975 398.492V397.712C128.706 397.348 128.264 397.166 127.649 397.166C127.311 397.166 127.029 397.253 126.804 397.426C126.578 397.591 126.466 397.82 126.466 398.115C126.466 398.401 126.578 398.626 126.804 398.791C127.029 398.956 127.311 399.038 127.649 399.038ZM135.227 402.548C134.144 402.548 133.242 402.236 132.523 401.612L133.264 400.416C133.732 400.936 134.386 401.196 135.227 401.196C135.695 401.196 136.098 401.07 136.436 400.819C136.783 400.576 136.956 400.173 136.956 399.61V398.973C136.436 399.632 135.79 399.961 135.019 399.961C134.204 399.961 133.537 399.684 133.017 399.129C132.506 398.566 132.25 397.777 132.25 396.763C132.25 395.758 132.506 394.973 133.017 394.41C133.537 393.847 134.204 393.565 135.019 393.565C135.799 393.565 136.445 393.886 136.956 394.527V393.721H138.62V399.571C138.62 400.143 138.516 400.633 138.308 401.04C138.109 401.447 137.836 401.755 137.489 401.963C137.142 402.171 136.783 402.318 136.41 402.405C136.046 402.5 135.652 402.548 135.227 402.548ZM135.539 398.492C135.808 398.492 136.076 398.423 136.345 398.284C136.614 398.145 136.817 397.976 136.956 397.777V395.749C136.817 395.541 136.614 395.372 136.345 395.242C136.085 395.103 135.816 395.034 135.539 395.034C135.062 395.034 134.677 395.19 134.382 395.502C134.096 395.814 133.953 396.234 133.953 396.763C133.953 397.292 134.096 397.712 134.382 398.024C134.677 398.336 135.062 398.492 135.539 398.492ZM143.599 400.156C142.628 400.156 141.826 399.853 141.194 399.246C140.561 398.639 140.245 397.842 140.245 396.854C140.245 395.927 140.548 395.147 141.155 394.514C141.77 393.881 142.55 393.565 143.495 393.565C144.431 393.565 145.189 393.886 145.77 394.527C146.35 395.16 146.641 395.992 146.641 397.023V397.387H141.974C142.026 397.803 142.212 398.15 142.533 398.427C142.853 398.704 143.269 398.843 143.781 398.843C144.058 398.843 144.357 398.787 144.678 398.674C145.007 398.561 145.267 398.41 145.458 398.219L146.186 399.285C145.553 399.866 144.691 400.156 143.599 400.156ZM145.042 396.269C145.016 395.914 144.873 395.593 144.613 395.307C144.361 395.021 143.989 394.878 143.495 394.878C143.027 394.878 142.663 395.021 142.403 395.307C142.143 395.584 141.991 395.905 141.948 396.269H145.042Z" fill="#BFC9C4"/>
<path d="M36.964 448.156C35.898 448.156 35.053 447.827 34.429 447.168L34.936 446.466C35.1527 446.717 35.4473 446.93 35.82 447.103C36.2013 447.276 36.5957 447.363 37.003 447.363C37.471 447.363 37.835 447.263 38.095 447.064C38.355 446.865 38.485 446.605 38.485 446.284C38.485 446.007 38.3507 445.79 38.082 445.634C37.8133 445.469 37.4883 445.348 37.107 445.27C36.7343 445.183 36.3573 445.088 35.976 444.984C35.5947 444.871 35.2697 444.685 35.001 444.425C34.7323 444.156 34.598 443.805 34.598 443.372C34.598 442.861 34.806 442.432 35.222 442.085C35.6467 441.738 36.2187 441.565 36.938 441.565C37.8827 441.565 38.6583 441.868 39.265 442.475L38.81 443.151C38.368 442.622 37.744 442.358 36.938 442.358C36.5133 442.358 36.1753 442.453 35.924 442.644C35.6727 442.826 35.547 443.06 35.547 443.346C35.547 443.597 35.6813 443.797 35.95 443.944C36.2187 444.083 36.5393 444.195 36.912 444.282C37.2933 444.36 37.6747 444.455 38.056 444.568C38.4373 444.681 38.7623 444.88 39.031 445.166C39.2997 445.443 39.434 445.807 39.434 446.258C39.434 446.813 39.2173 447.268 38.784 447.623C38.3507 447.978 37.744 448.156 36.964 448.156ZM46.01 447.207C45.4466 447.84 44.697 448.156 43.761 448.156C42.825 448.156 42.071 447.84 41.499 447.207C40.9356 446.574 40.654 445.79 40.654 444.854C40.654 443.918 40.9356 443.138 41.499 442.514C42.071 441.881 42.825 441.565 43.761 441.565C44.697 441.565 45.4466 441.881 46.01 442.514C46.582 443.138 46.868 443.918 46.868 444.854C46.868 445.79 46.582 446.574 46.01 447.207ZM42.227 446.583C42.6083 447.051 43.1196 447.285 43.761 447.285C44.4023 447.285 44.9093 447.051 45.282 446.583C45.6546 446.106 45.841 445.53 45.841 444.854C45.841 444.178 45.6546 443.606 45.282 443.138C44.9093 442.67 44.4023 442.436 43.761 442.436C43.1196 442.436 42.6083 442.674 42.227 443.151C41.8543 443.619 41.668 444.187 41.668 444.854C41.668 445.53 41.8543 446.106 42.227 446.583ZM49.4324 448H48.4574V441.721H49.4324V442.735C50.0131 441.972 50.7108 441.591 51.5254 441.591V442.592C51.4041 442.566 51.2741 442.553 51.1354 442.553C50.8408 442.553 50.5201 442.657 50.1734 442.865C49.8268 443.073 49.5798 443.303 49.4324 443.554V448ZM54.3344 448.156C53.8751 448.156 53.5284 448.03 53.2944 447.779C53.0604 447.528 52.9434 447.164 52.9434 446.687V442.579H51.9034V441.721H52.9434V440.005H53.9184V441.721H55.1924V442.579H53.9184V446.479C53.9184 446.722 53.9704 446.917 54.0744 447.064C54.1871 447.211 54.3474 447.285 54.5554 447.285C54.8414 447.285 55.0624 447.198 55.2184 447.025L55.5044 447.753C55.2184 448.022 54.8284 448.156 54.3344 448.156ZM60.8963 446.297C61.0696 446.574 61.3296 446.808 61.6763 446.999C62.0316 447.19 62.3956 447.285 62.7683 447.285C63.3923 447.285 63.8863 447.06 64.2503 446.609C64.6143 446.158 64.7963 445.578 64.7963 444.867C64.7963 444.156 64.6143 443.576 64.2503 443.125C63.8863 442.666 63.3923 442.436 62.7683 442.436C62.3956 442.436 62.0316 442.536 61.6763 442.735C61.3296 442.926 61.0696 443.164 60.8963 443.45V446.297ZM60.8963 448H59.9213V439.329H60.8963V442.67C61.4423 441.933 62.1486 441.565 63.0153 441.565C63.8386 441.565 64.5103 441.868 65.0303 442.475C65.5503 443.073 65.8103 443.87 65.8103 444.867C65.8103 445.872 65.5503 446.674 65.0303 447.272C64.519 447.861 63.8473 448.156 63.0153 448.156C62.14 448.156 61.4336 447.792 60.8963 447.064V448ZM67.0478 450.457L67.2038 449.573C67.3598 449.642 67.5375 449.677 67.7368 449.677C67.9622 449.677 68.1485 449.629 68.2958 449.534C68.4432 449.439 68.5688 449.265 68.6728 449.014L69.0888 448.065L66.4628 441.721H67.5158L69.6088 446.869L71.6888 441.721H72.7548L69.6088 449.274C69.2622 450.106 68.6468 450.531 67.7628 450.548C67.5028 450.548 67.2645 450.518 67.0478 450.457Z" fill="#E0E3E0"/>
<rect x="77" y="430" width="83" height="28" rx="4" fill="#1C1C1C"/>
<rect x="77" y="430" width="83" height="28" rx="4" fill="#00E0B5" fill-opacity="0.01"/>
<rect x="77" y="430" width="83" height="28" rx="4" fill="white" fill-opacity="0.08"/>
<path d="M84.081 448.156C83.535 448.156 83.0107 448.069 82.508 447.896C82.014 447.723 81.6023 447.484 81.273 447.181L81.988 446.024C82.2307 446.249 82.56 446.449 82.976 446.622C83.392 446.795 83.7863 446.882 84.159 446.882C84.5057 446.882 84.7657 446.821 84.939 446.7C85.121 446.579 85.212 446.414 85.212 446.206C85.212 446.05 85.1167 445.924 84.926 445.829C84.744 445.725 84.5143 445.651 84.237 445.608C83.9683 445.565 83.6693 445.5 83.34 445.413C83.0193 445.326 82.7203 445.222 82.443 445.101C82.1743 444.98 81.9447 444.789 81.754 444.529C81.572 444.26 81.481 443.931 81.481 443.541C81.481 442.986 81.7107 442.518 82.17 442.137C82.6293 441.756 83.2577 441.565 84.055 441.565C85.0257 441.565 85.8707 441.851 86.59 442.423L85.927 443.554C85.7277 443.346 85.459 443.173 85.121 443.034C84.7917 442.895 84.4407 442.826 84.068 442.826C83.7733 442.826 83.535 442.887 83.353 443.008C83.171 443.121 83.08 443.268 83.08 443.45C83.08 443.589 83.171 443.706 83.353 443.801C83.535 443.888 83.7647 443.953 84.042 443.996C84.3193 444.039 84.6183 444.109 84.939 444.204C85.2597 444.291 85.5587 444.399 85.836 444.529C86.1133 444.65 86.343 444.85 86.525 445.127C86.707 445.404 86.798 445.742 86.798 446.141C86.798 446.73 86.5553 447.216 86.07 447.597C85.5933 447.97 84.9303 448.156 84.081 448.156ZM90.1203 448.156C89.5396 448.156 89.0976 448.009 88.7943 447.714C88.491 447.419 88.3393 446.995 88.3393 446.44V443.164H87.2993V441.721H88.3393V440.005H90.0033V441.721H91.2773V443.164H90.0033V445.998C90.0033 446.197 90.0553 446.362 90.1593 446.492C90.2633 446.622 90.402 446.687 90.5753 446.687C90.8353 446.687 91.026 446.626 91.1473 446.505L91.4983 447.753C91.195 448.022 90.7356 448.156 90.1203 448.156ZM97.8279 448H96.1769V447.35C95.7262 447.887 95.0632 448.156 94.1879 448.156C93.6246 448.156 93.1176 447.974 92.6669 447.61C92.2249 447.237 92.0039 446.726 92.0039 446.076C92.0039 445.4 92.2206 444.893 92.6539 444.555C93.0959 444.217 93.6072 444.048 94.1879 444.048C95.0806 444.048 95.7436 444.304 96.1769 444.815V443.97C96.1769 443.649 96.0512 443.394 95.7999 443.203C95.5486 443.012 95.2149 442.917 94.7989 442.917C94.1142 442.917 93.5032 443.164 92.9659 443.658L92.3419 442.553C93.0872 441.894 94.0016 441.565 95.0849 441.565C95.8909 441.565 96.5496 441.751 97.0609 442.124C97.5722 442.497 97.8279 443.103 97.8279 443.944V448ZM94.8509 447.038C95.4662 447.038 95.9082 446.856 96.1769 446.492V445.712C95.9082 445.348 95.4662 445.166 94.8509 445.166C94.5129 445.166 94.2312 445.253 94.0059 445.426C93.7806 445.591 93.6679 445.82 93.6679 446.115C93.6679 446.401 93.7806 446.626 94.0059 446.791C94.2312 446.956 94.5129 447.038 94.8509 447.038ZM101.116 448H99.4655V441.721H101.116V442.579C101.35 442.284 101.649 442.042 102.013 441.851C102.377 441.66 102.746 441.565 103.118 441.565V443.177C103.006 443.151 102.854 443.138 102.663 443.138C102.386 443.138 102.091 443.207 101.779 443.346C101.467 443.485 101.246 443.654 101.116 443.853V448ZM106.256 448.156C105.675 448.156 105.233 448.009 104.93 447.714C104.627 447.419 104.475 446.995 104.475 446.44V443.164H103.435V441.721H104.475V440.005H106.139V441.721H107.413V443.164H106.139V445.998C106.139 446.197 106.191 446.362 106.295 446.492C106.399 446.622 106.538 446.687 106.711 446.687C106.971 446.687 107.162 446.626 107.283 446.505L107.634 447.753C107.331 448.022 106.871 448.156 106.256 448.156ZM109.362 441.045C109.093 441.045 108.859 440.95 108.66 440.759C108.469 440.56 108.374 440.326 108.374 440.057C108.374 439.788 108.469 439.559 108.66 439.368C108.859 439.177 109.093 439.082 109.362 439.082C109.639 439.082 109.873 439.177 110.064 439.368C110.254 439.559 110.35 439.788 110.35 440.057C110.35 440.326 110.254 440.56 110.064 440.759C109.873 440.95 109.639 441.045 109.362 441.045ZM110.194 448H108.543V441.721H110.194V448ZM117.72 448H116.069V444.204C116.069 443.424 115.683 443.034 114.912 443.034C114.314 443.034 113.837 443.281 113.482 443.775V448H111.831V441.721H113.482V442.54C114.028 441.89 114.76 441.565 115.679 441.565C116.355 441.565 116.862 441.743 117.2 442.098C117.546 442.453 117.72 442.943 117.72 443.567V448ZM121.933 450.548C120.85 450.548 119.948 450.236 119.229 449.612L119.97 448.416C120.438 448.936 121.092 449.196 121.933 449.196C122.401 449.196 122.804 449.07 123.142 448.819C123.489 448.576 123.662 448.173 123.662 447.61V446.973C123.142 447.632 122.496 447.961 121.725 447.961C120.91 447.961 120.243 447.684 119.723 447.129C119.212 446.566 118.956 445.777 118.956 444.763C118.956 443.758 119.212 442.973 119.723 442.41C120.243 441.847 120.91 441.565 121.725 441.565C122.505 441.565 123.151 441.886 123.662 442.527V441.721H125.326V447.571C125.326 448.143 125.222 448.633 125.014 449.04C124.815 449.447 124.542 449.755 124.195 449.963C123.848 450.171 123.489 450.318 123.116 450.405C122.752 450.5 122.358 450.548 121.933 450.548ZM122.245 446.492C122.514 446.492 122.782 446.423 123.051 446.284C123.32 446.145 123.523 445.976 123.662 445.777V443.749C123.523 443.541 123.32 443.372 123.051 443.242C122.791 443.103 122.522 443.034 122.245 443.034C121.768 443.034 121.383 443.19 121.088 443.502C120.802 443.814 120.659 444.234 120.659 444.763C120.659 445.292 120.802 445.712 121.088 446.024C121.383 446.336 121.768 446.492 122.245 446.492ZM132.396 448.156C131.815 448.156 131.373 448.009 131.07 447.714C130.766 447.419 130.615 446.995 130.615 446.44V443.164H129.575V441.721H130.615V440.005H132.279V441.721H133.553V443.164H132.279V445.998C132.279 446.197 132.331 446.362 132.435 446.492C132.539 446.622 132.677 446.687 132.851 446.687C133.111 446.687 133.301 446.626 133.423 446.505L133.774 447.753C133.47 448.022 133.011 448.156 132.396 448.156ZM135.501 441.045C135.233 441.045 134.999 440.95 134.799 440.759C134.609 440.56 134.513 440.326 134.513 440.057C134.513 439.788 134.609 439.559 134.799 439.368C134.999 439.177 135.233 439.082 135.501 439.082C135.779 439.082 136.013 439.177 136.203 439.368C136.394 439.559 136.489 439.788 136.489 440.057C136.489 440.326 136.394 440.56 136.203 440.759C136.013 440.95 135.779 441.045 135.501 441.045ZM136.333 448H134.682V441.721H136.333V448ZM147.421 448H145.757V444.035C145.757 443.368 145.445 443.034 144.821 443.034C144.553 443.034 144.301 443.108 144.067 443.255C143.842 443.402 143.66 443.571 143.521 443.762V448H141.857V444.035C141.857 443.368 141.545 443.034 140.921 443.034C140.661 443.034 140.414 443.108 140.18 443.255C139.946 443.402 139.76 443.576 139.621 443.775V448H137.97V441.721H139.621V442.54C139.777 442.315 140.05 442.098 140.44 441.89C140.83 441.673 141.242 441.565 141.675 441.565C142.585 441.565 143.166 441.946 143.417 442.709C143.617 442.397 143.911 442.128 144.301 441.903C144.7 441.678 145.125 441.565 145.575 441.565C146.165 441.565 146.62 441.725 146.94 442.046C147.261 442.358 147.421 442.83 147.421 443.463V448ZM151.992 448.156C151.021 448.156 150.219 447.853 149.587 447.246C148.954 446.639 148.638 445.842 148.638 444.854C148.638 443.927 148.941 443.147 149.548 442.514C150.163 441.881 150.943 441.565 151.888 441.565C152.824 441.565 153.582 441.886 154.163 442.527C154.743 443.16 155.034 443.992 155.034 445.023V445.387H150.367C150.419 445.803 150.605 446.15 150.926 446.427C151.246 446.704 151.662 446.843 152.174 446.843C152.451 446.843 152.75 446.787 153.071 446.674C153.4 446.561 153.66 446.41 153.851 446.219L154.579 447.285C153.946 447.866 153.084 448.156 151.992 448.156ZM153.435 444.269C153.409 443.914 153.266 443.593 153.006 443.307C152.754 443.021 152.382 442.878 151.888 442.878C151.42 442.878 151.056 443.021 150.796 443.307C150.536 443.584 150.384 443.905 150.341 444.269H153.435Z" fill="#E0E3E0"/>
<rect x="164" y="430" width="32" height="28" rx="4" fill="#1C1C1C"/>
<rect x="164" y="430" width="32" height="28" rx="4" fill="#00E0B5" fill-opacity="0.01"/>
<rect x="164" y="430" width="32" height="28" rx="4" fill="white" fill-opacity="0.08"/>
<g clip-path="url(#clip1_1212_4409)">
<circle cx="182" cy="446" r="5.65619" stroke="#FF0000" stroke-opacity="0.3" stroke-width="0.01"/>
<circle cx="182" cy="446" r="11" stroke="#FF0000" stroke-opacity="0.3" stroke-width="0.01"/>
<circle cx="182" cy="446" r="5.65619" stroke="#FF0000" stroke-opacity="0.3" stroke-width="0.01"/>
<circle cx="182" cy="446" r="11" stroke="#FF0000" stroke-opacity="0.3" stroke-width="0.01"/>
<path d="M170 434L194 458" stroke="#FF0000" stroke-opacity="0.3" stroke-width="0.01"/>
<path d="M194 434L170 458" stroke="#FF0000" stroke-opacity="0.3" stroke-width="0.01"/>
<rect x="172.5" y="436.5" width="19" height="19" rx="1" stroke="#FF0000" stroke-opacity="0.3" stroke-width="0.01"/>
<line x1="182.005" y1="434" x2="182.005" y2="458" stroke="#FF0000" stroke-opacity="0.3" stroke-width="0.01"/>
<line x1="170" y1="445.995" x2="194" y2="445.995" stroke="#FF0000" stroke-opacity="0.3" stroke-width="0.01"/>
<line x1="170" y1="449.995" x2="194" y2="449.995" stroke="#FF0000" stroke-opacity="0.3" stroke-width="0.01"/>
<line x1="170" y1="441.995" x2="194" y2="441.995" stroke="#FF0000" stroke-opacity="0.3" stroke-width="0.01"/>
<line x1="178.005" y1="434" x2="178.005" y2="458" stroke="#FF0000" stroke-opacity="0.3" stroke-width="0.01"/>
<line x1="186.005" y1="434" x2="186.005" y2="458" stroke="#FF0000" stroke-opacity="0.3" stroke-width="0.01"/>
<rect x="171" y="438" width="22" height="16" rx="1" stroke="#FF0000" stroke-opacity="0.3" stroke-width="0.01"/>
<rect x="174" y="457" width="22" height="16" rx="1" transform="rotate(-90 174 457)" stroke="#FF0000" stroke-opacity="0.3" stroke-width="0.01"/>
<path d="M178.75 437.786C178.75 437.234 179.198 436.786 179.75 436.786H180.25C180.802 436.786 181.25 437.234 181.25 437.786V445.881L184.596 442.535C184.986 442.144 185.62 442.144 186.01 442.535L186.364 442.888C186.754 443.279 186.754 443.912 186.364 444.303L181.25 449.417L180.707 449.959C180.316 450.35 179.683 450.35 179.293 449.959L178.75 449.417L173.636 444.303C173.245 443.912 173.245 443.279 173.636 442.888L173.989 442.535C174.38 442.144 175.013 442.144 175.404 442.535L178.75 445.881V437.786Z" fill="#E0E3E0"/>
</g>
</g>
<defs>
<filter id="filter0_dd_1212_4409" x="0" y="0" width="396" height="500" filterUnits="userSpaceOnUse" color-interpolation-filters="sRGB">
<feFlood flood-opacity="0" result="BackgroundImageFix"/>
<feColorMatrix in="SourceAlpha" type="matrix" values="0 0 0 0 0 0 0 0 0 0 0 0 0 0 0 0 0 0 127 0" result="hardAlpha"/>
<feOffset dy="4"/>
<feGaussianBlur stdDeviation="2"/>
<feColorMatrix type="matrix" values="0 0 0 0 0 0 0 0 0 0 0 0 0 0 0 0 0 0 0.3 0"/>
<feBlend mode="normal" in2="BackgroundImageFix" result="effect1_dropShadow_1212_4409"/>
<feColorMatrix in="SourceAlpha" type="matrix" values="0 0 0 0 0 0 0 0 0 0 0 0 0 0 0 0 0 0 127 0" result="hardAlpha"/>
<feMorphology radius="6" operator="dilate" in="SourceAlpha" result="effect2_dropShadow_1212_4409"/>
<feOffset dy="8"/>
<feGaussianBlur stdDeviation="6"/>
<feColorMatrix type="matrix" values="0 0 0 0 0 0 0 0 0 0 0 0 0 0 0 0 0 0 0.15 0"/>
<feBlend mode="normal" in2="effect1_dropShadow_1212_4409" result="effect2_dropShadow_1212_4409"/>
<feBlend mode="normal" in="SourceGraphic" in2="effect2_dropShadow_1212_4409" result="shape"/>
</filter>
<filter id="filter1_dd_1212_4409" x="30" y="59" width="336" height="52" filterUnits="userSpaceOnUse" color-interpolation-filters="sRGB">
<feFlood flood-opacity="0" result="BackgroundImageFix"/>
<feColorMatrix in="SourceAlpha" type="matrix" values="0 0 0 0 0 0 0 0 0 0 0 0 0 0 0 0 0 0 127 0" result="hardAlpha"/>
<feOffset dy="1"/>
<feGaussianBlur stdDeviation="1"/>
<feColorMatrix type="matrix" values="0 0 0 0 0 0 0 0 0 0 0 0 0 0 0 0 0 0 0.3 0"/>
<feBlend mode="normal" in2="BackgroundImageFix" result="effect1_dropShadow_1212_4409"/>
<feColorMatrix in="SourceAlpha" type="matrix" values="0 0 0 0 0 0 0 0 0 0 0 0 0 0 0 0 0 0 127 0" result="hardAlpha"/>
<feMorphology radius="1" operator="dilate" in="SourceAlpha" result="effect2_dropShadow_1212_4409"/>
<feOffset dy="1"/>
<feGaussianBlur stdDeviation="1.5"/>
<feColorMatrix type="matrix" values="0 0 0 0 0 0 0 0 0 0 0 0 0 0 0 0 0 0 0.15 0"/>
<feBlend mode="normal" in2="effect1_dropShadow_1212_4409" result="effect2_dropShadow_1212_4409"/>
<feBlend mode="normal" in="SourceGraphic" in2="effect2_dropShadow_1212_4409" result="shape"/>
</filter>
<filter id="filter2_dd_1212_4409" x="30" y="111" width="336" height="52" filterUnits="userSpaceOnUse" color-interpolation-filters="sRGB">
<feFlood flood-opacity="0" result="BackgroundImageFix"/>
<feColorMatrix in="SourceAlpha" type="matrix" values="0 0 0 0 0 0 0 0 0 0 0 0 0 0 0 0 0 0 127 0" result="hardAlpha"/>
<feOffset dy="1"/>
<feGaussianBlur stdDeviation="1"/>
<feColorMatrix type="matrix" values="0 0 0 0 0 0 0 0 0 0 0 0 0 0 0 0 0 0 0.3 0"/>
<feBlend mode="normal" in2="BackgroundImageFix" result="effect1_dropShadow_1212_4409"/>
<feColorMatrix in="SourceAlpha" type="matrix" values="0 0 0 0 0 0 0 0 0 0 0 0 0 0 0 0 0 0 127 0" result="hardAlpha"/>
<feMorphology radius="1" operator="dilate" in="SourceAlpha" result="effect2_dropShadow_1212_4409"/>
<feOffset dy="1"/>
<feGaussianBlur stdDeviation="1.5"/>
<feColorMatrix type="matrix" values="0 0 0 0 0 0 0 0 0 0 0 0 0 0 0 0 0 0 0.15 0"/>
<feBlend mode="normal" in2="effect1_dropShadow_1212_4409" result="effect2_dropShadow_1212_4409"/>
<feBlend mode="normal" in="SourceGraphic" in2="effect2_dropShadow_1212_4409" result="shape"/>
</filter>
<filter id="filter3_dd_1212_4409" x="30" y="163" width="336" height="52" filterUnits="userSpaceOnUse" color-interpolation-filters="sRGB">
<feFlood flood-opacity="0" result="BackgroundImageFix"/>
<feColorMatrix in="SourceAlpha" type="matrix" values="0 0 0 0 0 0 0 0 0 0 0 0 0 0 0 0 0 0 127 0" result="hardAlpha"/>
<feOffset dy="1"/>
<feGaussianBlur stdDeviation="1"/>
<feColorMatrix type="matrix" values="0 0 0 0 0 0 0 0 0 0 0 0 0 0 0 0 0 0 0.3 0"/>
<feBlend mode="normal" in2="BackgroundImageFix" result="effect1_dropShadow_1212_4409"/>
<feColorMatrix in="SourceAlpha" type="matrix" values="0 0 0 0 0 0 0 0 0 0 0 0 0 0 0 0 0 0 127 0" result="hardAlpha"/>
<feMorphology radius="1" operator="dilate" in="SourceAlpha" result="effect2_dropShadow_1212_4409"/>
<feOffset dy="1"/>
<feGaussianBlur stdDeviation="1.5"/>
<feColorMatrix type="matrix" values="0 0 0 0 0 0 0 0 0 0 0 0 0 0 0 0 0 0 0.15 0"/>
<feBlend mode="normal" in2="effect1_dropShadow_1212_4409" result="effect2_dropShadow_1212_4409"/>
<feBlend mode="normal" in="SourceGraphic" in2="effect2_dropShadow_1212_4409" result="shape"/>
</filter>
<clipPath id="clip0_1212_4409">
<rect x="285" y="28" width="77" height="20" rx="10" fill="white"/>
</clipPath>
<clipPath id="clip1_1212_4409">
<rect width="20" height="20" fill="white" transform="translate(170 434)"/>
</clipPath>
</defs>
</svg>
