<svg width="36" height="36" viewBox="0 0 36 36" fill="none" xmlns="http://www.w3.org/2000/svg">
<g clip-path="url(#clip0_1253_5030)">
<path d="M31.5 10.5C29.01 10.5 27 12.51 27 15C27 15.105 27 15.21 27.015 15.315L23.97 16.335C23.01 14.52 21.24 13.2 19.14 12.855V9.615C21.06 9.105 22.5 7.35 22.5 5.25C22.5 2.76 20.49 0.75 18 0.75C15.51 0.75 13.5 2.76 13.5 5.25C13.5 7.35 14.94 9.105 16.875 9.615V12.855C14.775 13.2 13.005 14.52 12.045 16.335L8.985 15.315C9 15.21 9 15.105 9 15C9 12.51 6.99 10.5 4.5 10.5C2.01 10.5 0 12.51 0 15C0 17.49 2.01 19.5 4.5 19.5C6.09 19.5 7.47 18.675 8.28 17.445L11.325 18.465C11.025 20.4 11.58 22.455 12.96 24L10.845 26.655C10.275 26.385 9.66 26.25 9 26.25C6.51 26.25 4.5 28.26 4.5 30.75C4.5 33.24 6.51 35.25 9 35.25C11.49 35.25 13.5 33.24 13.5 30.75C13.5 29.73 13.17 28.8 12.6 28.05L14.715 25.395C16.755 26.535 19.245 26.52 21.27 25.395L23.385 28.05C22.83 28.8 22.5 29.73 22.5 30.75C22.5 33.24 24.51 35.25 27 35.25C29.49 35.25 31.5 33.24 31.5 30.75C31.5 28.26 29.49 26.25 27 26.25C26.34 26.25 25.725 26.385 25.155 26.64L23.04 23.985C24.435 22.425 24.975 20.385 24.675 18.45L27.72 17.43C28.515 18.66 29.91 19.485 31.5 19.485C33.99 19.485 36 17.475 36 14.985C36 12.495 33.99 10.5 31.5 10.5ZM4.5 16.5C3.675 16.5 3 15.825 3 15C3 14.175 3.675 13.5 4.5 13.5C5.325 13.5 6 14.175 6 15C6 15.825 5.325 16.5 4.5 16.5ZM9 32.25C8.175 32.25 7.5 31.575 7.5 30.75C7.5 29.925 8.175 29.25 9 29.25C9.825 29.25 10.5 29.925 10.5 30.75C10.5 31.575 9.825 32.25 9 32.25ZM16.5 5.25C16.5 4.425 17.175 3.75 18 3.75C18.825 3.75 19.5 4.425 19.5 5.25C19.5 6.075 18.825 6.75 18 6.75C17.175 6.75 16.5 6.075 16.5 5.25ZM18 23.25C15.93 23.25 14.25 21.57 14.25 19.5C14.25 17.43 15.93 15.75 18 15.75C20.07 15.75 21.75 17.43 21.75 19.5C21.75 21.57 20.07 23.25 18 23.25ZM27 29.25C27.825 29.25 28.5 29.925 28.5 30.75C28.5 31.575 27.825 32.25 27 32.25C26.175 32.25 25.5 31.575 25.5 30.75C25.5 29.925 26.175 29.25 27 29.25ZM31.5 16.5C30.675 16.5 30 15.825 30 15C30 14.175 30.675 13.5 31.5 13.5C32.325 13.5 33 14.175 33 15C33 15.825 32.325 16.5 31.5 16.5Z" fill="#00E0B5"/>
</g>
<defs>
<clipPath id="clip0_1253_5030">
<rect width="36" height="36" fill="white"/>
</clipPath>
</defs>
</svg>
