<svg width="37" height="36" viewBox="0 0 37 36" fill="none" xmlns="http://www.w3.org/2000/svg">
<path d="M32 7.5H35V28.5H32V7.5ZM26 7.5H29V28.5H26V7.5ZM21.5 7.5H3.5C2.675 7.5 2 8.175 2 9V27C2 27.825 2.675 28.5 3.5 28.5H21.5C22.325 28.5 23 27.825 23 27V9C23 8.175 22.325 7.5 21.5 7.5ZM20 25.5H5V10.5H20V25.5Z" fill="#00E0B5"/>
<path d="M12.5 17.835C14.1154 17.835 15.425 16.5254 15.425 14.91C15.425 13.2946 14.1154 11.985 12.5 11.985C10.8846 11.985 9.575 13.2946 9.575 14.91C9.575 16.5254 10.8846 17.835 12.5 17.835Z" fill="#00E0B5"/>
<path d="M18.335 23.025C18.335 21.075 14.45 20.1 12.5 20.1C10.55 20.1 6.665 21.075 6.665 23.025V24H18.335V23.025Z" fill="#00E0B5"/>
</svg>
