<svg width="456" height="255" viewBox="0 0 456 255" fill="none" xmlns="http://www.w3.org/2000/svg">
<rect x="34.1157" y="91.4526" width="387.768" height="63.6715" rx="7.10408" fill="#1C1C1C"/>
<rect x="34.1157" y="91.4526" width="387.768" height="63.6715" rx="7.10408" fill="#00E0B5" fill-opacity="0.01"/>
<rect x="34.1157" y="91.4526" width="387.768" height="63.6715" rx="7.10408" fill="white" fill-opacity="0.06"/>
<rect x="298.603" y="54.0344" width="146.036" height="141.21" rx="5.92006" transform="rotate(90 298.603 54.0344)" fill="#1C1C1C"/>
<rect x="298.603" y="54.0344" width="146.036" height="141.21" rx="5.92006" transform="rotate(90 298.603 54.0344)" fill="#00E0B5" fill-opacity="0.01"/>
<rect x="298.603" y="54.0344" width="146.036" height="141.21" rx="5.92006" transform="rotate(90 298.603 54.0344)" fill="white" fill-opacity="0.08"/>
<rect x="178" y="117.035" width="100" height="52" rx="10.2614" fill="#0DFFD2"/>
<path d="M213.898 147.292H211.667L210.544 143.924H208.982L208.243 147.292H206.225L208.314 137.815H212.363C213.159 137.815 213.845 138.061 214.423 138.554C215.001 139.046 215.29 139.69 215.29 140.486C215.29 141.329 215.034 142.054 214.523 142.66C214.021 143.266 213.377 143.64 212.59 143.782L213.898 147.292ZM211.468 142.148H211.496C212.017 142.148 212.425 142.016 212.718 141.751C213.021 141.476 213.173 141.121 213.173 140.685C213.173 140.372 213.055 140.112 212.818 139.904C212.581 139.695 212.302 139.591 211.979 139.591H209.948L209.379 142.148H211.468ZM222.061 147.292H215.355L217.444 137.815H224.15L223.752 139.591H219.078L218.637 141.594H223.212L222.814 143.37H218.239L217.77 145.516H222.445L222.061 147.292ZM232.476 147.292H230.288L230.046 145.686H225.983L225.031 147.292H222.63L228.384 137.815H230.913L232.476 147.292ZM229.876 143.91L229.308 139.832L226.935 143.91H229.876ZM237.074 147.292H233.351L235.44 137.815H239.105C240.204 137.815 241.161 138.199 241.975 138.966C242.8 139.733 243.212 140.709 243.212 141.893C243.212 142.404 243.141 142.911 242.998 143.413C242.866 143.905 242.638 144.389 242.316 144.862C242.004 145.336 241.616 145.753 241.151 146.112C240.697 146.463 240.119 146.747 239.418 146.965C238.717 147.183 237.936 147.292 237.074 147.292ZM237.372 145.516H237.443C238.551 145.516 239.437 145.179 240.1 144.507C240.772 143.825 241.109 142.996 241.109 142.021C241.109 141.329 240.886 140.751 240.441 140.287C239.996 139.823 239.423 139.591 238.722 139.591H237.074L235.766 145.516H237.372ZM247.308 147.292H245.29L246.143 143.413L243.727 137.815H245.915L247.436 141.623L250.604 137.815H253.019L248.16 143.413L247.308 147.292Z" fill="black"/>
<rect x="86.801" y="118.969" width="53.2364" height="7.91777" rx="3.95889" fill="#4F4F4F"/>
<rect width="53.2364" height="7.91777" rx="3.95889" transform="matrix(-1 0 0 1 369.196 118.969)" fill="#4F4F4F"/>
<rect x="86.801" y="110.13" width="32.6004" height="3.25379" rx="1.6269" fill="#4F4F4F"/>
<rect width="32.6004" height="3.25379" rx="1.6269" transform="matrix(-1 0 0 1 369.196 110.13)" fill="#4F4F4F"/>
<rect x="95.2568" y="134.028" width="44.7807" height="4.11966" rx="2.05983" fill="#4F4F4F"/>
<rect width="44.6058" height="4.11966" rx="2.05983" transform="matrix(-1 0 0 1 360.565 134.028)" fill="#4F4F4F"/>
<rect x="196.512" y="95.6218" width="79.7429" height="8.69734" rx="4.34867" fill="#4F4F4F"/>
<circle cx="90.415" cy="136.088" r="3.61402" fill="#4F4F4F"/>
<circle r="3.61402" transform="matrix(-1 0 0 1 365.582 136.088)" fill="#4F4F4F"/>
<ellipse cx="182.979" cy="99.9684" rx="6.78205" ry="6.90635" fill="#4F4F4F"/>
<rect x="43.4048" y="105.756" width="35.0646" height="35.0646" rx="5.52539" fill="#ACED8D"/>
<rect width="35.0646" height="35.0646" rx="5.52539" transform="matrix(-1 0 0 1 412.593 105.756)" fill="#ED8DC7"/>
<circle cx="51.7073" cy="118.874" r="3.11477" fill="#292B2B"/>
<ellipse cx="387.764" cy="117.293" rx="3.11477" ry="2.28569" fill="#292B2B"/>
<circle cx="70.1658" cy="118.874" r="3.11477" fill="#292B2B"/>
<path d="M405.472 117.481C405.472 118.639 404.077 117.917 402.357 117.917C400.637 117.917 399.242 118.639 399.242 117.481C399.242 116.322 400.637 115.383 402.357 115.383C404.077 115.383 405.472 116.322 405.472 117.481Z" fill="#292B2B"/>
<path d="M52.7297 129.997C52.7297 128.956 53.6613 128.164 54.6927 128.306C59.2551 128.935 62.441 128.979 66.8922 128.333C67.9314 128.182 68.8794 128.975 68.8794 130.025C68.8794 130.804 68.347 131.485 67.5871 131.655C62.6968 132.747 59.4128 132.752 54.0543 131.639C53.279 131.478 52.7297 130.789 52.7297 129.997Z" fill="#292B2B"/>
<path d="M387.273 129.362C387.273 128.695 387.9 128.204 388.554 128.339C395.733 129.818 399.271 128.722 400.954 127.744C401.596 127.371 402.411 127.658 402.505 128.394C402.663 129.636 401.832 130.793 400.601 131.023C394.886 132.095 393.4 131.969 388.084 130.782C387.612 130.676 387.273 130.256 387.273 129.772V129.362Z" fill="#292B2B"/>
</svg>
