<svg width="36" height="36" viewBox="0 0 36 36" fill="none" xmlns="http://www.w3.org/2000/svg">
<path d="M24 10.5C24 7.185 21.315 4.5 18 4.5C14.685 4.5 12 7.185 12 10.5C12 13.815 14.685 16.5 18 16.5C21.315 16.5 24 13.815 24 10.5ZM18 13.5C16.35 13.5 15 12.15 15 10.5C15 8.85 16.35 7.5 18 7.5C19.65 7.5 21 8.85 21 10.5C21 12.15 19.65 13.5 18 13.5ZM10.5 19.5C7.185 19.5 4.5 22.185 4.5 25.5C4.5 28.815 7.185 31.5 10.5 31.5C13.815 31.5 16.5 28.815 16.5 25.5C16.5 22.185 13.815 19.5 10.5 19.5ZM10.5 28.5C8.85 28.5 7.5 27.15 7.5 25.5C7.5 23.85 8.85 22.5 10.5 22.5C12.15 22.5 13.5 23.85 13.5 25.5C13.5 27.15 12.15 28.5 10.5 28.5ZM25.5 19.5C22.185 19.5 19.5 22.185 19.5 25.5C19.5 28.815 22.185 31.5 25.5 31.5C28.815 31.5 31.5 28.815 31.5 25.5C31.5 22.185 28.815 19.5 25.5 19.5ZM25.5 28.5C23.85 28.5 22.5 27.15 22.5 25.5C22.5 23.85 23.85 22.5 25.5 22.5C27.15 22.5 28.5 23.85 28.5 25.5C28.5 27.15 27.15 28.5 25.5 28.5Z" fill="#00E0B5"/>
</svg>
