<svg width="288" height="72" viewBox="0 0 288 72" fill="none" xmlns="http://www.w3.org/2000/svg">
<rect width="72" height="72" rx="10" fill="#00E0B5"/>
<circle cx="22" cy="27" r="6" fill="#202222"/>
<circle cx="50" cy="27" r="6" fill="#202222"/>
<path d="M50 42.0001C50 49.732 43.5081 56 35.5 56C27.4919 56 21 49.732 21 42.0001C35.5 42.0001 27.4919 42 35.5 42C43.5081 42 35.5 42.0001 50 42.0001Z" fill="#202222"/>
<rect x="144" width="72" height="72" rx="10" fill="#00E0B5"/>
<circle cx="166" cy="27" r="6" fill="#202222"/>
<circle cx="194" cy="27" r="6" fill="#202222"/>
<path d="M194 42.0001C194 49.732 187.508 56 179.5 56C171.492 56 165 49.732 165 42.0001C179.5 42.0001 171.492 42 179.5 42C187.508 42 179.5 42.0001 194 42.0001Z" fill="#202222"/>
<rect x="72" width="72" height="72" rx="10" fill="#00E0B5"/>
<circle cx="94" cy="27" r="6" fill="#202222"/>
<circle cx="122" cy="27" r="6" fill="#202222"/>
<path d="M122 42.0001C122 49.732 115.508 56 107.5 56C99.4919 56 93 49.732 93 42.0001C107.5 42.0001 99.4919 42 107.5 42C115.508 42 107.5 42.0001 122 42.0001Z" fill="#202222"/>
<rect x="216" width="72" height="72" rx="10" fill="#00E0B5"/>
<circle cx="238" cy="27" r="6" fill="#202222"/>
<circle cx="266" cy="27" r="6" fill="#202222"/>
<path d="M266 42.0001C266 49.732 259.508 56 251.5 56C243.492 56 237 49.732 237 42.0001C251.5 42.0001 243.492 42 251.5 42C259.508 42 251.5 42.0001 266 42.0001Z" fill="#202222"/>
</svg>
