<svg width="216" height="144" viewBox="0 0 216 144" fill="none" xmlns="http://www.w3.org/2000/svg">
<rect x="72" y="72" width="72" height="72" rx="10" fill="#BDA075"/>
<circle cx="94" cy="99" r="6" fill="#202222"/>
<circle cx="122" cy="99" r="6" fill="#202222"/>
<path d="M122 114C122 121.732 115.508 128 107.5 128C99.4919 128 93 121.732 93 114C107.5 114 99.4919 114 107.5 114C115.508 114 107.5 114 122 114Z" fill="#202222"/>
<rect y="72" width="72" height="72" rx="10" fill="#BDA075"/>
<circle cx="22" cy="99" r="6" fill="#202222"/>
<circle cx="50" cy="99" r="6" fill="#202222"/>
<path d="M50 114C50 121.732 43.5081 128 35.5 128C27.4919 128 21 121.732 21 114C35.5 114 27.4919 114 35.5 114C43.5081 114 35.5 114 50 114Z" fill="#202222"/>
<rect width="72" height="72" rx="10" fill="#BDA075"/>
<circle cx="22" cy="27" r="6" fill="#202222"/>
<circle cx="50" cy="27" r="6" fill="#202222"/>
<path d="M50 42.0001C50 49.732 43.5081 56 35.5 56C27.4919 56 21 49.732 21 42.0001C35.5 42.0001 27.4919 42 35.5 42C43.5081 42 35.5 42.0001 50 42.0001Z" fill="#202222"/>
<rect x="144" y="72" width="72" height="72" rx="10" fill="#BDA075"/>
<circle cx="166" cy="99" r="6" fill="#202222"/>
<circle cx="194" cy="99" r="6" fill="#202222"/>
<path d="M194 114C194 121.732 187.508 128 179.5 128C171.492 128 165 121.732 165 114C179.5 114 171.492 114 179.5 114C187.508 114 179.5 114 194 114Z" fill="#202222"/>
</svg>
