<svg width="36" height="36" viewBox="0 0 36 36" fill="none" xmlns="http://www.w3.org/2000/svg">
<path d="M27.3958 19.41L22.5358 16.98C24.4708 15.48 25.7158 13.14 25.7158 10.5C25.7158 5.955 22.0108 2.25 17.4658 2.25C12.9208 2.25 9.21584 5.955 9.21584 10.5C9.21584 13.695 11.0458 16.47 13.7158 17.835V22.725C10.4908 22.035 10.6858 22.065 10.3258 22.065C9.53084 22.065 8.78084 22.38 8.21084 22.95L6.11084 25.08L13.7458 32.715C14.3908 33.375 15.2908 33.75 16.2208 33.75H25.6708C27.1408 33.75 28.3858 32.7 28.6258 31.245L29.8258 24.18C30.1558 22.23 29.1808 20.31 27.3958 19.41ZM26.8708 23.685L25.6708 30.75H16.2208C16.0858 30.75 15.9658 30.69 15.8608 30.6L10.3408 25.08L16.7158 26.415V10.5C16.7158 10.08 17.0458 9.75 17.4658 9.75C17.8858 9.75 18.2158 10.08 18.2158 10.5V19.5H20.8558L26.0458 22.095C26.6458 22.395 26.9758 23.04 26.8708 23.685ZM12.2158 10.5C12.2158 7.605 14.5708 5.25 17.4658 5.25C20.3608 5.25 22.7158 7.605 22.7158 10.5C22.7158 11.925 22.1458 13.215 21.2158 14.16V10.5C21.2158 8.43 19.5358 6.75 17.4658 6.75C15.3958 6.75 13.7158 8.43 13.7158 10.5V14.16C12.7858 13.215 12.2158 11.925 12.2158 10.5Z" fill="#00E0B5"/>
</svg>
