<svg width="37" height="36" viewBox="0 0 37 36" fill="none" xmlns="http://www.w3.org/2000/svg">
<path d="M8.81 12.69L3.5 18L8.81 23.31L11.45 20.655L8.81 18L11.45 15.345L8.81 12.69ZM18.5 27.69L15.845 25.05L13.19 27.69L18.5 33L23.81 27.69L21.155 25.05L18.5 27.69ZM28.19 12.69L25.55 15.345L28.19 18L25.55 20.655L28.19 23.31L33.5 18L28.19 12.69ZM13.19 8.31L15.845 10.95L18.5 8.31L21.155 10.95L23.81 8.31L18.5 3L13.19 8.31Z" fill="#00E0B5"/>
<path d="M18.5 22.5C20.9853 22.5 23 20.4853 23 18C23 15.5147 20.9853 13.5 18.5 13.5C16.0147 13.5 14 15.5147 14 18C14 20.4853 16.0147 22.5 18.5 22.5Z" fill="#00E0B5"/>
</svg>
