<svg width="36" height="37" viewBox="0 0 36 37" fill="none" xmlns="http://www.w3.org/2000/svg">
<path d="M16.5 12.1213V19.6213L22.875 23.4013L24.03 21.4813L18.75 18.3463V12.1213H16.5ZM31.5 15.1213V4.62134L27.54 8.58134C25.11 6.13634 21.735 4.62134 18 4.62134C10.545 4.62134 4.5 10.6663 4.5 18.1213C4.5 25.5763 10.545 31.6213 18 31.6213C25.455 31.6213 31.5 25.5763 31.5 18.1213H28.5C28.5 23.9113 23.79 28.6213 18 28.6213C12.21 28.6213 7.5 23.9113 7.5 18.1213C7.5 12.3313 12.21 7.62134 18 7.62134C20.895 7.62134 23.52 8.80634 25.425 10.6963L21 15.1213H31.5Z" fill="#00E0B5"/>
</svg>
