<svg width="30" height="31" viewBox="0 0 30 31" fill="none" xmlns="http://www.w3.org/2000/svg">
<path d="M14.985 0.121338C6.705 0.121338 0 6.82634 0 15.1213C0 23.4163 6.705 30.1213 14.985 30.1213C23.265 30.1213 30 23.4163 30 15.1213C30 6.82634 23.28 0.121338 14.985 0.121338ZM15 27.1213C8.37 27.1213 3 21.7513 3 15.1213C3 8.49134 8.37 3.12134 15 3.12134C21.63 3.12134 27 8.49134 27 15.1213C27 21.7513 21.63 27.1213 15 27.1213ZM16.5 12.0313L18.09 13.6213L19.68 12.0313L21.27 13.6213L22.86 12.0313L19.68 8.85134L16.5 12.0313ZM10.32 12.0313L11.91 13.6213L13.5 12.0313L10.32 8.85134L7.14 12.0313L8.73 13.6213L10.32 12.0313ZM15 23.3713C18.495 23.3713 21.465 21.1813 22.665 18.1213H7.335C8.535 21.1813 11.505 23.3713 15 23.3713Z" fill="#00E0B5"/>
</svg>
