<svg width="39" height="28" viewBox="0 0 39 28" fill="none" xmlns="http://www.w3.org/2000/svg">
<path d="M25.9669 13.4018C25.9081 13.4528 25.8582 13.5121 25.8184 13.5771L19.3787 19.2053C19.3681 19.2145 19.3578 19.2241 19.3477 19.2339C17.9202 20.6298 16.0254 21.4 14.0011 21.4C9.81926 21.4 6.44014 18.0631 6.44014 13.9939C6.44014 9.92472 9.81926 6.58787 14.0011 6.58787C16.0181 6.58787 17.9149 7.35286 19.458 8.86247C19.4682 8.87248 19.4787 8.88219 19.4895 8.8916L22.2737 11.3212C22.558 11.5693 22.9826 11.5695 23.2671 11.3215L26.9712 8.09421C27.1352 7.95129 27.2293 7.74466 27.2294 7.5274C27.2295 7.31015 27.1355 7.10345 26.9716 6.96042L23.8848 4.26714C21.2424 1.68393 17.7349 0.259335 14.0016 0.259174C6.28587 0.246711 0 6.39901 0 13.9939C0 21.5893 6.28616 27.7408 14.0011 27.7408C17.7186 27.7408 21.2268 26.3189 23.7739 23.8421L30.5683 17.9047C30.6149 17.879 30.6594 17.848 30.701 17.8116L34.405 14.5722C34.4475 14.535 34.4853 14.4936 34.5179 14.4488L38.5185 10.8923C38.6792 10.7494 38.7711 10.5449 38.7711 10.3302V3.88359C38.7711 3.58776 38.5975 3.31935 38.3272 3.1975C38.057 3.07566 37.7403 3.12296 37.5177 3.31842L29.8124 10.084C29.7671 10.1091 29.7237 10.1393 29.6832 10.1745L25.9669 13.4018Z" fill="#EFEFEF"/>
<path d="M37.114 16.6792C37.3985 16.4304 37.8237 16.4302 38.1085 16.6787C38.5295 17.0461 38.7711 17.5776 38.7711 18.1363V22.803C38.7711 23.9897 37.3364 24.5839 36.4973 23.7448L34.9539 22.3982L33.4105 21.0516C33.2468 20.9087 33.1528 20.7023 33.1527 20.4853C33.1525 20.2683 33.2463 20.0617 33.4099 19.9187L37.114 16.6792Z" fill="#EFEFEF"/>
</svg>
