<svg width="38" height="38" viewBox="0 0 38 38" fill="none" xmlns="http://www.w3.org/2000/svg">
<path d="M10.3458 13.9981H5.00008L18.9978 0V5.34582L10.3458 13.9981Z" fill="white"/>
<path d="M27.6498 13.9979H32.9995L18.9977 28V22.6503L27.6498 13.9979Z" fill="white"/>
<path d="M16.3255 13.998L18.9983 11.3251H21.6751V13.998L18.9983 16.6749V13.998H16.3255Z" fill="white"/>
<path d="M16.3244 25.3274V16.6751H7.67234L16.3244 25.3274Z" fill="white"/>
<path d="M10.4838 34.5213L10.5798 35.8173C10.3718 35.8733 10.1398 35.9013 9.88379 35.9013C9.05179 35.9013 8.53579 35.5573 8.33579 34.8693C8.14379 35.1813 7.87979 35.4333 7.54379 35.6253C7.20779 35.8093 6.84379 35.9013 6.45179 35.9013C5.69979 35.9013 5.08379 35.6333 4.60379 35.0973C4.12379 34.5533 3.88379 33.8093 3.88379 32.8653C3.88379 31.9373 4.12379 31.1973 4.60379 30.6453C5.08379 30.0933 5.69979 29.8173 6.45179 29.8173C7.17979 29.8173 7.77179 30.1133 8.22779 30.7053V29.9613H9.77579V34.0173C9.77579 34.1853 9.81979 34.3173 9.90779 34.4133C9.99579 34.5013 10.1118 34.5453 10.2558 34.5453C10.3278 34.5453 10.4038 34.5373 10.4838 34.5213ZM6.91979 34.5453C7.17579 34.5453 7.42779 34.4853 7.67579 34.3653C7.92379 34.2373 8.11179 34.0773 8.23979 33.8853V31.8453C8.11179 31.6533 7.92379 31.4973 7.67579 31.3773C7.42779 31.2493 7.17579 31.1853 6.91979 31.1853C6.48779 31.1853 6.13579 31.3413 5.86379 31.6533C5.59179 31.9573 5.45579 32.3613 5.45579 32.8653C5.45579 33.3613 5.59179 33.7653 5.86379 34.0773C6.13579 34.3893 6.48779 34.5453 6.91979 34.5453Z" fill="white"/>
<path d="M12.9751 35.7573H11.4511V27.7533H12.9751V35.7573Z" fill="white"/>
<path d="M17.7983 35.9013C17.0703 35.9013 16.4743 35.6053 16.0103 35.0133V37.9653H14.4863V29.9613H16.0103V30.6933C16.4663 30.1093 17.0623 29.8173 17.7983 29.8173C18.5583 29.8173 19.1743 30.0893 19.6463 30.6333C20.1263 31.1693 20.3663 31.9093 20.3663 32.8533C20.3663 33.7973 20.1263 34.5413 19.6463 35.0853C19.1743 35.6293 18.5583 35.9013 17.7983 35.9013ZM17.3183 34.5453C17.7583 34.5453 18.1103 34.3893 18.3743 34.0773C18.6463 33.7653 18.7823 33.3573 18.7823 32.8533C18.7823 32.3573 18.6463 31.9533 18.3743 31.6413C18.1103 31.3293 17.7583 31.1733 17.3183 31.1733C17.0703 31.1733 16.8223 31.2373 16.5743 31.3653C16.3263 31.4933 16.1383 31.6493 16.0103 31.8333V33.8853C16.1383 34.0693 16.3263 34.2253 16.5743 34.3533C16.8303 34.4813 17.0783 34.5453 17.3183 34.5453Z" fill="white"/>
<path d="M26.9304 35.7573H25.4064V32.2293C25.4064 31.8453 25.3144 31.5733 25.1304 31.4133C24.9464 31.2533 24.6784 31.1733 24.3264 31.1733C23.7904 31.1733 23.3504 31.4013 23.0064 31.8573V35.7573H21.4824V27.7533H23.0064V30.7173C23.2144 30.4693 23.4944 30.2573 23.8464 30.0813C24.2064 29.9053 24.6064 29.8173 25.0464 29.8173C25.6704 29.8173 26.1384 29.9773 26.4504 30.2973C26.7704 30.6173 26.9304 31.0653 26.9304 31.6413V35.7573Z" fill="white"/>
<path d="M33.4473 35.7573H31.9233V35.1573C31.5073 35.6533 30.8953 35.9013 30.0873 35.9013C29.5673 35.9013 29.0993 35.7333 28.6833 35.3973C28.2753 35.0533 28.0713 34.5813 28.0713 33.9813C28.0713 33.3573 28.2713 32.8893 28.6713 32.5773C29.0793 32.2653 29.5513 32.1093 30.0873 32.1093C30.9113 32.1093 31.5233 32.3453 31.9233 32.8173V32.0373C31.9233 31.7413 31.8073 31.5053 31.5753 31.3293C31.3433 31.1533 31.0353 31.0653 30.6513 31.0653C30.0193 31.0653 29.4553 31.2933 28.9593 31.7493L28.3833 30.7293C29.0713 30.1213 29.9153 29.8173 30.9153 29.8173C31.6593 29.8173 32.2673 29.9893 32.7393 30.3333C33.2113 30.6773 33.4473 31.2373 33.4473 32.0133V35.7573ZM30.6993 34.8693C31.2673 34.8693 31.6753 34.7013 31.9233 34.3653V33.6453C31.6753 33.3093 31.2673 33.1413 30.6993 33.1413C30.3873 33.1413 30.1273 33.2213 29.9193 33.3813C29.7113 33.5333 29.6073 33.7453 29.6073 34.0173C29.6073 34.2813 29.7113 34.4893 29.9193 34.6413C30.1273 34.7933 30.3873 34.8693 30.6993 34.8693Z" fill="white"/>
</svg>
