<svg width="4296" height="749" viewBox="0 0 4296 749" fill="none" xmlns="http://www.w3.org/2000/svg">
<path d="M1101.85 672.752H1165.1V656.27H1120.88V635.5H1164.16V619.152H1120.88V599.722H1165.1V583.374H1101.85V672.752ZM1255.55 660.156C1263.99 668.598 1276.32 674.36 1293.47 674.36C1317.59 674.36 1329.25 662.032 1329.25 645.684C1329.25 625.852 1310.49 621.43 1295.75 618.08C1285.43 615.668 1277.93 613.792 1277.93 607.762C1277.93 602.402 1282.49 598.65 1291.06 598.65C1299.77 598.65 1309.42 601.732 1316.66 608.432L1327.24 594.496C1318.4 586.322 1306.61 582.034 1292.4 582.034C1271.36 582.034 1258.5 594.094 1258.5 608.968C1258.5 628.934 1277.26 632.954 1291.87 636.304C1302.18 638.716 1309.96 640.994 1309.96 647.694C1309.96 652.786 1304.86 657.744 1294.41 657.744C1282.08 657.744 1272.3 652.25 1266 645.684L1255.55 660.156ZM1423.8 672.752H1442.83V640.726H1465.61C1484.91 640.726 1495.63 627.728 1495.63 612.184C1495.63 596.506 1485.04 583.374 1465.61 583.374H1423.8V672.752ZM1476.2 612.05C1476.2 619.554 1470.57 624.378 1463.07 624.378H1442.83V599.722H1463.07C1470.57 599.722 1476.2 604.68 1476.2 612.05ZM1584.88 628.13C1584.88 655.064 1604.57 674.36 1631.51 674.36C1658.58 674.36 1678.27 655.064 1678.27 628.13C1678.27 601.196 1658.58 581.9 1631.51 581.9C1604.57 581.9 1584.88 601.196 1584.88 628.13ZM1658.71 628.13C1658.71 644.746 1647.99 657.476 1631.51 657.476C1615.03 657.476 1604.44 644.746 1604.44 628.13C1604.44 611.38 1615.03 598.784 1631.51 598.784C1647.99 598.784 1658.71 611.38 1658.71 628.13ZM1823.88 672.752H1845.73L1825.63 638.716C1835.27 636.438 1845.19 627.996 1845.19 612.184C1845.19 595.568 1833.8 583.374 1815.17 583.374H1773.37V672.752H1792.39V640.726H1806.33L1823.88 672.752ZM1825.76 612.05C1825.76 619.554 1820 624.378 1812.36 624.378H1792.39V599.722H1812.36C1820 599.722 1825.76 604.546 1825.76 612.05ZM1960.54 672.752H1979.7V600.124H2005.7V583.374H1934.41V600.124H1960.54V672.752ZM2092.56 660.156C2101 668.598 2113.33 674.36 2130.48 674.36C2154.6 674.36 2166.26 662.032 2166.26 645.684C2166.26 625.852 2147.5 621.43 2132.76 618.08C2122.44 615.668 2114.93 613.792 2114.93 607.762C2114.93 602.402 2119.49 598.65 2128.07 598.65C2136.78 598.65 2146.42 601.732 2153.66 608.432L2164.25 594.496C2155.4 586.322 2143.61 582.034 2129.41 582.034C2108.37 582.034 2095.5 594.094 2095.5 608.968C2095.5 628.934 2114.26 632.954 2128.87 636.304C2139.19 638.716 2146.96 640.994 2146.96 647.694C2146.96 652.786 2141.87 657.744 2131.42 657.744C2119.09 657.744 2109.31 652.25 2103.01 645.684L2092.56 660.156ZM2376.83 672.752H2395.86V635.5H2439.14V619.152H2395.86V599.722H2440.08V583.374H2376.83V672.752ZM2530.84 628.13C2530.84 655.064 2550.54 674.36 2577.47 674.36C2604.54 674.36 2624.24 655.064 2624.24 628.13C2624.24 601.196 2604.54 581.9 2577.47 581.9C2550.54 581.9 2530.84 601.196 2530.84 628.13ZM2604.67 628.13C2604.67 644.746 2593.95 657.476 2577.47 657.476C2560.99 657.476 2550.4 644.746 2550.4 628.13C2550.4 611.38 2560.99 598.784 2577.47 598.784C2593.95 598.784 2604.67 611.38 2604.67 628.13ZM2769.85 672.752H2791.69L2771.59 638.716C2781.24 636.438 2791.15 627.996 2791.15 612.184C2791.15 595.568 2779.76 583.374 2761.14 583.374H2719.33V672.752H2738.36V640.726H2752.29L2769.85 672.752ZM2771.72 612.05C2771.72 619.554 2765.96 624.378 2758.32 624.378H2738.36V599.722H2758.32C2765.96 599.722 2771.72 604.546 2771.72 612.05Z" fill="#EFEFEF"/>
<path d="M3003.2 672.752H3066.45V656.27H3022.23V635.5H3065.51V619.152H3022.23V599.722H3066.45V583.374H3003.2V672.752ZM3188.12 672.752H3211.97L3246.41 583.374H3224.7L3200.05 652.116L3175.26 583.374H3153.55L3188.12 672.752ZM3336.4 672.752H3399.65V656.27H3355.43V635.5H3398.71V619.152H3355.43V599.722H3399.65V583.374H3336.4V672.752ZM3546.78 672.752H3568.63L3548.53 638.716C3558.17 636.438 3568.09 627.996 3568.09 612.184C3568.09 595.568 3556.7 583.374 3538.07 583.374H3496.27V672.752H3515.29V640.726H3529.23L3546.78 672.752ZM3548.66 612.05C3548.66 619.554 3542.9 624.378 3535.26 624.378H3515.29V599.722H3535.26C3542.9 599.722 3548.66 604.546 3548.66 612.05ZM3686.68 672.752H3705.71V636.17L3739.88 583.374H3718.17L3696.19 619.286L3673.95 583.374H3652.24L3686.68 636.17V672.752ZM3820.21 628.13C3820.21 655.064 3839.91 674.36 3866.84 674.36C3893.91 674.36 3913.61 655.064 3913.61 628.13C3913.61 601.196 3893.91 581.9 3866.84 581.9C3839.91 581.9 3820.21 601.196 3820.21 628.13ZM3894.04 628.13C3894.04 644.746 3883.32 657.476 3866.84 657.476C3850.36 657.476 3839.77 644.746 3839.77 628.13C3839.77 611.38 3850.36 598.784 3866.84 598.784C3883.32 598.784 3894.04 611.38 3894.04 628.13ZM4070.34 672.752H4088.7V583.374H4069.67V641.262L4028.27 583.374H4008.7V672.752H4027.73V612.72L4070.34 672.752ZM4188.06 672.752H4251.31V656.27H4207.09V635.5H4250.37V619.152H4207.09V599.722H4251.31V583.374H4188.06V672.752Z" fill="url(#paint0_linear)"/>
<path fill-rule="evenodd" clip-rule="evenodd" d="M1823.27 263.256C1823.27 376.833 1906.41 456.006 2020.87 456.006C2135.33 456.006 2217.92 376.502 2217.92 262.926C2217.92 149.349 2135.11 70.0659 2020.87 70.0659C1906.63 70.0659 1823.27 149.57 1823.27 263.256ZM2128.16 263.256C2128.16 323.684 2082.84 378.818 2020.87 378.818C1958.9 378.818 1913.13 323.684 1913.13 263.587C1913.13 203.491 1958.79 147.805 2020.87 147.805C2082.95 147.805 2128.16 202.388 2128.16 263.256ZM3610.83 76.0214V153.209L3717.79 153.099V449.611H3806.01V153.209H3912.3V76.0214H3610.83ZM2441.98 456.004C2322.12 456.004 2271.72 389.842 2271.72 298.43L2271.94 76.1284H2361.26V295.011C2361.26 339.229 2390.81 378.595 2442.31 378.595C2493.8 378.595 2522.92 339.119 2522.92 295.011V76.1284H2612.12V297.768C2612.12 390.725 2561.84 456.004 2441.98 456.004ZM2895.95 449.94H2996.63L2916.68 310.23C2939.86 302.374 2959.93 287.326 2973.98 267.276C2988.02 247.226 2995.29 223.22 2994.75 198.748C2994.75 129.279 2952.08 76.4604 2869.15 76.4604H2686.22V449.94H2774.43V319.713H2828.25L2895.95 449.94ZM2905.1 197.976C2905.1 228.741 2883.05 244.73 2853.83 244.73H2774.1V151.222H2853.72C2878.97 151.222 2905.1 167.322 2905.1 197.976ZM3396.35 449.94H3311.55L3143.83 211.76V449.94H3055.62V76.4604H3146.15L3308.13 304.937V76.4604H3396.35V449.94ZM3471 449.94H3559.22V76.4604H3471V449.94ZM4066.12 449.94H4154.34V298.21L4295.92 76.4604H4196.02L4109.9 220.361L4023.56 76.4604H3924.32L4067.01 298.21L4066.12 449.94ZM1503.59 150.892V76.4604H1805.07V151.002H1698.77V449.94H1610.55V150.892H1503.59ZM1101.44 76.5699L1172.63 147.758H1403.06L1474.25 76.5699H1101.44ZM1403.07 378.199L1287.85 378.252L1172.63 378.199L1101.39 449.44L1474.31 449.44L1403.07 378.199ZM1323.44 227.387L1252.26 227.387L1287.85 262.981L1252.2 298.628H1323.5L1359.09 263.034L1323.44 227.387ZM1216.6 263.031L1101.38 378.25L1101.38 147.812L1216.6 263.031Z" fill="url(#paint1_linear)"/>
<path d="M894.512 31.4473V718.191H913.689V31.4471L894.512 31.4473Z" fill="white"/>
<g clip-path="url(#clip0)">
<path fill-rule="evenodd" clip-rule="evenodd" d="M144.692 373.765H2.0957L375.487 0.873047V143.279L144.692 373.765ZM490.954 489.057L606.299 373.761H749L375.504 746.759V604.247L490.954 489.057ZM304.215 373.76L375.513 302.557H446.916V373.76L375.513 445.068V373.76H304.215ZM304.18 675.561L304.18 445.074H73.385L304.18 675.561Z" fill="url(#paint2_linear)"/>
</g>
<defs>
<linearGradient id="paint0_linear" x1="1111.26" y1="626.935" x2="1977.95" y2="2049.02" gradientUnits="userSpaceOnUse">
<stop stop-color="#F7F0AC"/>
<stop offset="0.5" stop-color="#ACF7F0"/>
<stop offset="1" stop-color="#F0ACF7"/>
</linearGradient>
<linearGradient id="paint1_linear" x1="1119.63" y1="246.913" x2="3234.94" y2="1761.7" gradientUnits="userSpaceOnUse">
<stop stop-color="#F7F0AC"/>
<stop offset="0.5" stop-color="#ACF7F0"/>
<stop offset="1" stop-color="#F0ACF7"/>
</linearGradient>
<linearGradient id="paint2_linear" x1="6.36262" y1="342.656" x2="748.985" y2="406.992" gradientUnits="userSpaceOnUse">
<stop stop-color="#F7F0AC"/>
<stop offset="0.5" stop-color="#ACF7F0"/>
<stop offset="1" stop-color="#F0ACF7"/>
</linearGradient>
<clipPath id="clip0">
<rect width="749" height="748" fill="white" transform="translate(0 0.867676)"/>
</clipPath>
</defs>
</svg>
