<svg width="1920" height="1302" viewBox="0 0 1920 1302" fill="none" xmlns="http://www.w3.org/2000/svg">
<g clip-path="url(#clip0_471_2650)">
<g filter="url(#filter0_i_471_2650)">
<path d="M708.149 898.502C706.995 899.656 705.43 900.305 703.797 900.305L564.528 900.305C559.044 900.305 556.298 893.675 560.175 889.798L949.426 500.538C953.303 496.66 959.933 499.406 959.933 504.89L959.933 644.163C959.933 645.795 959.284 647.361 958.13 648.515L708.149 898.502Z" fill="#0BFFB7" fill-opacity="0.1"/>
<path d="M1211.73 902.106C1212.89 900.951 1214.45 900.302 1216.09 900.302L1355.47 900.302C1360.96 900.302 1363.7 906.931 1359.82 910.809L970.458 1300.19C966.58 1304.06 959.951 1301.32 959.951 1295.83L959.951 1156.45C959.951 1154.81 960.6 1153.25 961.755 1152.09L1211.73 902.106Z" fill="#0BFFB7" fill-opacity="0.1"/>
<path d="M896.47 900.301C890.987 900.301 888.24 893.671 892.118 889.794L958.147 823.763C959.302 822.608 960.867 821.96 962.499 821.96L1032.25 821.96C1035.65 821.96 1038.41 824.716 1038.41 828.115L1038.41 897.752C1038.41 899.384 1037.76 900.949 1036.6 902.104L970.457 968.251C966.58 972.128 959.95 969.382 959.95 963.898L959.95 906.456C959.95 903.057 957.194 900.301 953.795 900.301L896.47 900.301Z" fill="#0BFFB7" fill-opacity="0.1"/>
<path d="M871.088 1221.85C874.965 1225.73 881.595 1222.98 881.595 1217.5L881.595 984.92C881.595 981.521 878.84 978.765 875.44 978.765L642.868 978.765C637.385 978.765 634.638 985.395 638.516 989.272L871.088 1221.85Z" fill="#0BFFB7" fill-opacity="0.1"/>
</g>
<g opacity="0.7">
<g style="mix-blend-mode:hard-light" filter="url(#filter1_f_471_2650)">
<ellipse cx="1406" cy="454" rx="477.189" ry="477.188" fill="#33E9C6" fill-opacity="0.1"/>
</g>
<g style="mix-blend-mode:hard-light" filter="url(#filter2_f_471_2650)">
<path d="M1395.16 198.405L1150.4 443.175H1025.74L1395.16 73.7388V198.405ZM1416.72 709.482L1661.49 464.711L1786.26 464.711L1416.72 834.262V709.482ZM1415.35 710.853L1415.35 710.85L1415.35 710.853ZM1662.85 463.352L1662.85 463.343L1662.86 463.34C1662.85 463.344 1662.85 463.348 1662.85 463.352ZM1399.86 443.171H1354.39L1410.41 387.146H1472.86V449.48L1416.72 505.619V460.035C1416.72 450.721 1409.17 443.171 1399.86 443.171ZM1317.6 756.704L1103.3 542.396H1317.6V756.704Z" stroke="#00A8A8" stroke-width="21.5397"/>
</g>
<g style="mix-blend-mode:hard-light" filter="url(#filter3_f_471_2650)">
<path d="M1149.03 439.861L1033.74 439.861L1391.85 81.7392L1391.85 197.033L1149.03 439.861ZM1420.03 710.855L1662.86 468.025L1778.26 468.025L1420.03 826.261L1420.03 710.855ZM1417.69 713.198L1417.7 713.193L1417.69 713.198ZM1399.86 439.857L1362.39 439.857L1411.78 390.46L1469.54 390.46L1469.54 448.107L1420.03 497.618L1420.03 460.035C1420.03 448.891 1411 439.857 1399.86 439.857ZM1314.29 748.703L1111.3 545.71L1314.29 545.71L1314.29 748.703Z" stroke="#00A8A8" stroke-width="28.1674"/>
</g>
<g style="mix-blend-mode:hard-light" filter="url(#filter4_d_471_2650)">
<path d="M1395.16 198.405L1150.4 443.175L1025.74 443.175L1395.16 73.7388L1395.16 198.405ZM1416.72 709.482L1661.49 464.711L1786.26 464.711L1416.72 834.262L1416.72 709.482ZM1415.35 710.85L1415.36 710.842C1415.36 710.846 1415.35 710.85 1415.35 710.854L1415.35 710.85ZM1662.85 463.352L1662.85 463.343L1662.86 463.34C1662.85 463.344 1662.85 463.348 1662.85 463.352ZM1399.86 443.171L1354.39 443.171L1410.41 387.146L1472.86 387.146L1472.86 449.48L1416.72 505.619L1416.72 460.035C1416.72 450.721 1409.17 443.171 1399.86 443.171ZM1317.6 756.704L1103.3 542.396L1317.6 542.396L1317.6 756.704Z" stroke="#33E9C6" stroke-opacity="0.2" stroke-width="21.5397" shape-rendering="crispEdges"/>
</g>
<g style="mix-blend-mode:hard-light" filter="url(#filter5_d_471_2650)">
<path d="M1395.16 198.405L1150.4 443.175L1025.74 443.175L1395.16 73.7388L1395.16 198.405ZM1416.72 709.482L1661.49 464.711L1786.26 464.711L1416.72 834.262L1416.72 709.482ZM1415.35 710.85L1415.36 710.842C1415.36 710.846 1415.35 710.85 1415.35 710.854L1415.35 710.85ZM1662.85 463.352L1662.85 463.343L1662.86 463.34C1662.85 463.344 1662.85 463.348 1662.85 463.352ZM1399.86 443.171L1354.39 443.171L1410.41 387.146L1472.86 387.146L1472.86 449.48L1416.72 505.619L1416.72 460.035C1416.72 450.721 1409.17 443.171 1399.86 443.171ZM1317.6 756.704L1103.3 542.396L1317.6 542.396L1317.6 756.704Z" stroke="#33E9C6" stroke-opacity="0.2" stroke-width="21.5397"/>
</g>
<g style="mix-blend-mode:hard-light" filter="url(#filter6_i_471_2650)">
<path d="M1395.16 198.405L1150.4 443.175L1025.74 443.175L1395.16 73.7388L1395.16 198.405ZM1416.72 709.482L1661.49 464.711L1786.26 464.711L1416.72 834.262L1416.72 709.482ZM1415.35 710.85L1415.36 710.842C1415.36 710.846 1415.35 710.85 1415.35 710.854L1415.35 710.85ZM1662.85 463.352L1662.85 463.343L1662.86 463.34C1662.85 463.344 1662.85 463.348 1662.85 463.352ZM1399.86 443.171L1354.39 443.171L1410.41 387.146L1472.86 387.146L1472.86 449.48L1416.72 505.619L1416.72 460.035C1416.72 450.721 1409.17 443.171 1399.86 443.171ZM1317.6 756.704L1103.3 542.396L1317.6 542.396L1317.6 756.704Z" stroke="#33E9C6" stroke-opacity="0.2" stroke-width="21.5397"/>
</g>
<g filter="url(#filter7_f_471_2650)">
<path d="M1399.31 200.121L1152.12 447.317L1015.74 447.317L1399.31 63.7383L1399.31 200.121ZM1412.58 707.767L1659.77 460.569L1796.26 460.569L1412.58 844.262L1412.58 707.767ZM1412.42 707.923L1412.42 707.921L1412.42 707.923ZM1399.86 447.313L1344.39 447.313L1408.7 383.004L1477 383.004L1477 451.195L1412.58 515.619L1412.58 460.035C1412.58 453.009 1406.88 447.313 1399.86 447.313ZM1321.75 766.704L1093.3 538.254L1321.75 538.254L1321.75 766.704Z" stroke="#33E9E9" stroke-width="13.2552"/>
</g>
<g filter="url(#filter8_f_471_2650)">
<path d="M1657.58 458.071L1657.58 458.07C1658.1 457.548 1658.81 457.255 1659.55 457.255L1797.55 457.255C1800.03 457.255 1801.27 460.25 1799.52 462.001L1414.01 847.517C1412.26 849.268 1409.27 848.028 1409.27 845.551L1409.27 707.546C1409.27 706.808 1409.56 706.1 1410.08 705.579L1410.08 705.578L1657.58 458.071ZM1154.3 449.816C1153.78 450.338 1153.07 450.631 1152.34 450.631L1014.45 450.631C1011.97 450.631 1010.73 447.636 1012.48 445.885L1397.87 60.4841C1399.63 58.7326 1402.62 59.9731 1402.62 62.4499L1402.62 200.342C1402.62 201.079 1402.33 201.786 1401.81 202.308L1154.3 449.816ZM1343.1 450.627C1340.62 450.627 1339.38 447.632 1341.13 445.881L1406.51 380.505C1407.03 379.983 1407.74 379.69 1408.47 379.69L1477.53 379.69C1479.07 379.69 1480.31 380.935 1480.31 382.47L1480.31 451.416C1480.31 452.154 1480.02 452.861 1479.5 453.382L1414.01 518.873C1412.26 520.625 1409.26 519.384 1409.26 516.907L1409.26 460.035C1409.26 454.839 1405.05 450.627 1399.86 450.627L1343.1 450.627ZM1325.06 767.992C1325.06 770.469 1322.06 771.71 1320.31 769.958L1090.05 539.686C1088.3 537.935 1089.54 534.94 1092.01 534.94L1322.28 534.94C1323.81 534.94 1325.06 536.185 1325.06 537.72L1325.06 767.992Z" stroke="white" stroke-width="6.62761"/>
</g>
</g>
<g opacity="0.7">
<g style="mix-blend-mode:hard-light" filter="url(#filter9_f_471_2650)">
<ellipse cx="514" cy="454" rx="477.189" ry="477.188" fill="#33E9C6" fill-opacity="0.1"/>
</g>
<g style="mix-blend-mode:hard-light" filter="url(#filter10_f_471_2650)">
<path d="M503.164 198.405L258.401 443.174H133.737L503.164 73.7386V198.405ZM524.721 709.482L769.486 464.711L894.263 464.711L524.721 834.262V709.482ZM523.35 710.853L523.354 710.85L523.35 710.853ZM770.845 463.351L770.854 463.343L770.857 463.34C770.853 463.344 770.849 463.347 770.845 463.351ZM507.857 443.171H462.389L518.412 387.146H580.858V449.479L524.72 505.618V460.034C524.72 450.721 517.17 443.171 507.857 443.171ZM425.603 756.703L211.301 542.396H425.603V756.703Z" stroke="#00A8A8" stroke-width="21.5397"/>
</g>
<g style="mix-blend-mode:hard-light" filter="url(#filter11_f_471_2650)">
<path d="M257.028 439.861L141.738 439.861L499.85 81.7389L499.85 197.032L257.028 439.861ZM528.035 710.855L770.859 468.025L886.262 468.025L528.035 826.261L528.035 710.855ZM525.692 713.198L525.697 713.193L525.692 713.198ZM507.857 439.857L470.389 439.857L519.784 390.46L577.544 390.46L577.544 448.107L528.034 497.618L528.034 460.034C528.034 448.89 519 439.857 507.857 439.857ZM422.289 748.703L219.301 545.71L422.289 545.71L422.289 748.703Z" stroke="#00A8A8" stroke-width="28.1674"/>
</g>
<g style="mix-blend-mode:hard-light" filter="url(#filter12_d_471_2650)">
<path d="M503.164 198.405L258.401 443.174L133.737 443.174L503.164 73.7385L503.164 198.405ZM524.721 709.482L769.486 464.711L894.262 464.711L524.721 834.262L524.721 709.482ZM523.354 710.85L523.362 710.842C523.358 710.846 523.354 710.849 523.35 710.853L523.354 710.85ZM770.845 463.351L770.854 463.343L770.857 463.34C770.853 463.344 770.849 463.347 770.845 463.351ZM507.857 443.171L462.389 443.171L518.412 387.146L580.858 387.146L580.858 449.479L524.72 505.618L524.72 460.034C524.72 450.721 517.17 443.171 507.857 443.171ZM425.603 756.703L211.301 542.396L425.603 542.396L425.603 756.703Z" stroke="#33E9C6" stroke-opacity="0.2" stroke-width="21.5397" shape-rendering="crispEdges"/>
</g>
<g style="mix-blend-mode:hard-light" filter="url(#filter13_d_471_2650)">
<path d="M503.164 198.405L258.401 443.174L133.737 443.174L503.164 73.7385L503.164 198.405ZM524.721 709.482L769.486 464.711L894.262 464.711L524.721 834.262L524.721 709.482ZM523.354 710.85L523.362 710.842C523.358 710.846 523.354 710.849 523.35 710.853L523.354 710.85ZM770.845 463.351L770.854 463.343L770.857 463.34C770.853 463.344 770.849 463.347 770.845 463.351ZM507.857 443.171L462.389 443.171L518.412 387.146L580.858 387.146L580.858 449.479L524.72 505.618L524.72 460.034C524.72 450.721 517.17 443.171 507.857 443.171ZM425.603 756.703L211.301 542.396L425.603 542.396L425.603 756.703Z" stroke="#33E9C6" stroke-opacity="0.2" stroke-width="21.5397"/>
</g>
<g style="mix-blend-mode:hard-light" filter="url(#filter14_i_471_2650)">
<path d="M503.164 198.405L258.401 443.174L133.737 443.174L503.164 73.7385L503.164 198.405ZM524.721 709.482L769.486 464.711L894.262 464.711L524.721 834.262L524.721 709.482ZM523.354 710.85L523.362 710.842C523.358 710.846 523.354 710.849 523.35 710.853L523.354 710.85ZM770.845 463.351L770.854 463.343L770.857 463.34C770.853 463.344 770.849 463.347 770.845 463.351ZM507.857 443.171L462.389 443.171L518.412 387.146L580.858 387.146L580.858 449.479L524.72 505.618L524.72 460.034C524.72 450.721 517.17 443.171 507.857 443.171ZM425.603 756.703L211.301 542.396L425.603 542.396L425.603 756.703Z" stroke="#33E9C6" stroke-opacity="0.2" stroke-width="21.5397"/>
</g>
<g filter="url(#filter15_f_471_2650)">
<path d="M507.306 200.121L260.116 447.317L123.737 447.317L507.306 63.7381L507.306 200.121ZM520.579 707.766L767.77 460.569L904.263 460.569L520.579 844.262L520.579 707.766ZM520.422 707.923L520.424 707.921L520.422 707.923ZM507.857 447.313L452.388 447.313L516.696 383.004L585 383.004L585 451.195L520.578 515.619L520.578 460.034C520.578 453.008 514.883 447.313 507.857 447.313ZM429.745 766.704L201.301 538.254L429.745 538.254L429.745 766.704Z" stroke="#33E9E9" stroke-width="13.2552"/>
</g>
<g filter="url(#filter16_f_471_2650)">
<path d="M765.581 458.071L765.582 458.07C766.104 457.548 766.811 457.255 767.549 457.255L905.551 457.255C908.028 457.255 909.268 460.249 907.517 462.001L522.011 847.516C520.26 849.268 517.265 848.027 517.265 845.551L517.265 707.545C517.265 706.807 517.558 706.1 518.08 705.579L518.081 705.577L765.581 458.071ZM262.303 449.816C261.782 450.338 261.075 450.63 260.337 450.63L122.449 450.63C119.972 450.63 118.732 447.636 120.483 445.885L505.874 60.4838C507.625 58.7324 510.62 59.9728 510.62 62.4497L510.62 200.342C510.62 201.079 510.327 201.786 509.806 202.308L262.303 449.816ZM451.1 450.627C448.623 450.627 447.383 447.632 449.134 445.881L514.509 380.504C515.03 379.983 515.737 379.69 516.475 379.69L585.534 379.69C587.069 379.69 588.314 380.935 588.314 382.47L588.314 451.416C588.314 452.154 588.021 452.861 587.5 453.382L522.01 518.873C520.259 520.624 517.264 519.384 517.264 516.907L517.264 460.034C517.264 454.839 513.052 450.627 507.857 450.627L451.1 450.627ZM433.059 767.992C433.059 770.469 430.064 771.709 428.313 769.958L198.047 539.686C196.295 537.935 197.536 534.94 200.013 534.94L430.279 534.94C431.814 534.94 433.059 536.185 433.059 537.72L433.059 767.992Z" stroke="white" stroke-width="6.62761"/>
</g>
</g>
</g>
<defs>
<filter id="filter0_i_471_2650" x="558.36" y="498.722" width="803.279" height="803.278" filterUnits="userSpaceOnUse" color-interpolation-filters="sRGB">
<feFlood flood-opacity="0" result="BackgroundImageFix"/>
<feBlend mode="normal" in="SourceGraphic" in2="BackgroundImageFix" result="shape"/>
<feColorMatrix in="SourceAlpha" type="matrix" values="0 0 0 0 0 0 0 0 0 0 0 0 0 0 0 0 0 0 127 0" result="hardAlpha"/>
<feOffset/>
<feGaussianBlur stdDeviation="8.36738"/>
<feComposite in2="hardAlpha" operator="arithmetic" k2="-1" k3="1"/>
<feColorMatrix type="matrix" values="0 0 0 0 0 0 0 0 0 0 0 0 0 0 0 0 0 0 0.25 0"/>
<feBlend mode="normal" in2="shape" result="effect1_innerShadow_471_2650"/>
</filter>
<filter id="filter1_f_471_2650" x="829.397" y="-122.602" width="1153.21" height="1153.2" filterUnits="userSpaceOnUse" color-interpolation-filters="sRGB">
<feFlood flood-opacity="0" result="BackgroundImageFix"/>
<feBlend mode="normal" in="SourceGraphic" in2="BackgroundImageFix" result="shape"/>
<feGaussianBlur stdDeviation="49.7071" result="effect1_foregroundBlur_471_2650"/>
</filter>
<filter id="filter2_f_471_2650" x="908.929" y="-43.0705" width="994.143" height="994.142" filterUnits="userSpaceOnUse" color-interpolation-filters="sRGB">
<feFlood flood-opacity="0" result="BackgroundImageFix"/>
<feBlend mode="normal" in="SourceGraphic" in2="BackgroundImageFix" result="shape"/>
<feGaussianBlur stdDeviation="49.7071" result="effect1_foregroundBlur_471_2650"/>
</filter>
<filter id="filter3_f_471_2650" x="975.205" y="23.2057" width="861.591" height="861.589" filterUnits="userSpaceOnUse" color-interpolation-filters="sRGB">
<feFlood flood-opacity="0" result="BackgroundImageFix"/>
<feBlend mode="normal" in="SourceGraphic" in2="BackgroundImageFix" result="shape"/>
<feGaussianBlur stdDeviation="16.569" result="effect1_foregroundBlur_471_2650"/>
</filter>
<filter id="filter4_d_471_2650" x="991.774" y="56.3438" width="828.453" height="833.422" filterUnits="userSpaceOnUse" color-interpolation-filters="sRGB">
<feFlood flood-opacity="0" result="BackgroundImageFix"/>
<feColorMatrix in="SourceAlpha" type="matrix" values="0 0 0 0 0 0 0 0 0 0 0 0 0 0 0 0 0 0 127 0" result="hardAlpha"/>
<feOffset dy="21.5397"/>
<feGaussianBlur stdDeviation="8.28452"/>
<feComposite in2="hardAlpha" operator="out"/>
<feColorMatrix type="matrix" values="0 0 0 0 0 0 0 0 0 0.3 0 0 0 0 0.275 0 0 0 0.7 0"/>
<feBlend mode="multiply" in2="BackgroundImageFix" result="effect1_dropShadow_471_2650"/>
<feBlend mode="normal" in="SourceGraphic" in2="effect1_dropShadow_471_2650" result="shape"/>
</filter>
<filter id="filter5_d_471_2650" x="965.263" y="46.4023" width="881.473" height="881.472" filterUnits="userSpaceOnUse" color-interpolation-filters="sRGB">
<feFlood flood-opacity="0" result="BackgroundImageFix"/>
<feColorMatrix in="SourceAlpha" type="matrix" values="0 0 0 0 0 0 0 0 0 0 0 0 0 0 0 0 0 0 127 0" result="hardAlpha"/>
<feOffset dy="33.1381"/>
<feGaussianBlur stdDeviation="21.5397"/>
<feColorMatrix type="matrix" values="0 0 0 0 0 0 0 0 0 0.6 0 0 0 0 0.6 0 0 0 1 0"/>
<feBlend mode="color-dodge" in2="BackgroundImageFix" result="effect1_dropShadow_471_2650"/>
<feBlend mode="normal" in="SourceGraphic" in2="effect1_dropShadow_471_2650" result="shape"/>
</filter>
<filter id="filter6_i_471_2650" x="1006.19" y="56.3438" width="797.468" height="797.467" filterUnits="userSpaceOnUse" color-interpolation-filters="sRGB">
<feFlood flood-opacity="0" result="BackgroundImageFix"/>
<feBlend mode="normal" in="SourceGraphic" in2="BackgroundImageFix" result="shape"/>
<feColorMatrix in="SourceAlpha" type="matrix" values="0 0 0 0 0 0 0 0 0 0 0 0 0 0 0 0 0 0 127 0" result="hardAlpha"/>
<feOffset dx="-2.15397" dy="4.30795"/>
<feGaussianBlur stdDeviation="1.07699"/>
<feComposite in2="hardAlpha" operator="arithmetic" k2="-1" k3="1"/>
<feColorMatrix type="matrix" values="0 0 0 0 1 0 0 0 0 1 0 0 0 0 1 0 0 0 0.5 0"/>
<feBlend mode="normal" in2="shape" result="effect1_innerShadow_471_2650"/>
</filter>
<filter id="filter7_f_471_2650" x="1005.03" y="53.0299" width="801.942" height="801.941" filterUnits="userSpaceOnUse" color-interpolation-filters="sRGB">
<feFlood flood-opacity="0" result="BackgroundImageFix"/>
<feBlend mode="normal" in="SourceGraphic" in2="BackgroundImageFix" result="shape"/>
<feGaussianBlur stdDeviation="1.6569" result="effect1_foregroundBlur_471_2650"/>
</filter>
<filter id="filter8_f_471_2650" x="1006.13" y="54.1345" width="799.733" height="799.732" filterUnits="userSpaceOnUse" color-interpolation-filters="sRGB">
<feFlood flood-opacity="0" result="BackgroundImageFix"/>
<feBlend mode="normal" in="SourceGraphic" in2="BackgroundImageFix" result="shape"/>
<feGaussianBlur stdDeviation="1.1046" result="effect1_foregroundBlur_471_2650"/>
</filter>
<filter id="filter9_f_471_2650" x="-62.6029" y="-122.602" width="1153.21" height="1153.2" filterUnits="userSpaceOnUse" color-interpolation-filters="sRGB">
<feFlood flood-opacity="0" result="BackgroundImageFix"/>
<feBlend mode="normal" in="SourceGraphic" in2="BackgroundImageFix" result="shape"/>
<feGaussianBlur stdDeviation="49.7071" result="effect1_foregroundBlur_471_2650"/>
</filter>
<filter id="filter10_f_471_2650" x="16.9286" y="-43.0707" width="994.143" height="994.142" filterUnits="userSpaceOnUse" color-interpolation-filters="sRGB">
<feFlood flood-opacity="0" result="BackgroundImageFix"/>
<feBlend mode="normal" in="SourceGraphic" in2="BackgroundImageFix" result="shape"/>
<feGaussianBlur stdDeviation="49.7071" result="effect1_foregroundBlur_471_2650"/>
</filter>
<filter id="filter11_f_471_2650" x="83.2047" y="23.2054" width="861.591" height="861.589" filterUnits="userSpaceOnUse" color-interpolation-filters="sRGB">
<feFlood flood-opacity="0" result="BackgroundImageFix"/>
<feBlend mode="normal" in="SourceGraphic" in2="BackgroundImageFix" result="shape"/>
<feGaussianBlur stdDeviation="16.569" result="effect1_foregroundBlur_471_2650"/>
</filter>
<filter id="filter12_d_471_2650" x="99.7737" y="56.3435" width="828.453" height="833.422" filterUnits="userSpaceOnUse" color-interpolation-filters="sRGB">
<feFlood flood-opacity="0" result="BackgroundImageFix"/>
<feColorMatrix in="SourceAlpha" type="matrix" values="0 0 0 0 0 0 0 0 0 0 0 0 0 0 0 0 0 0 127 0" result="hardAlpha"/>
<feOffset dy="21.5397"/>
<feGaussianBlur stdDeviation="8.28452"/>
<feComposite in2="hardAlpha" operator="out"/>
<feColorMatrix type="matrix" values="0 0 0 0 0 0 0 0 0 0.3 0 0 0 0 0.275 0 0 0 0.7 0"/>
<feBlend mode="multiply" in2="BackgroundImageFix" result="effect1_dropShadow_471_2650"/>
<feBlend mode="normal" in="SourceGraphic" in2="effect1_dropShadow_471_2650" result="shape"/>
</filter>
<filter id="filter13_d_471_2650" x="73.2633" y="46.4021" width="881.473" height="881.472" filterUnits="userSpaceOnUse" color-interpolation-filters="sRGB">
<feFlood flood-opacity="0" result="BackgroundImageFix"/>
<feColorMatrix in="SourceAlpha" type="matrix" values="0 0 0 0 0 0 0 0 0 0 0 0 0 0 0 0 0 0 127 0" result="hardAlpha"/>
<feOffset dy="33.1381"/>
<feGaussianBlur stdDeviation="21.5397"/>
<feColorMatrix type="matrix" values="0 0 0 0 0 0 0 0 0 0.6 0 0 0 0 0.6 0 0 0 1 0"/>
<feBlend mode="color-dodge" in2="BackgroundImageFix" result="effect1_dropShadow_471_2650"/>
<feBlend mode="normal" in="SourceGraphic" in2="effect1_dropShadow_471_2650" result="shape"/>
</filter>
<filter id="filter14_i_471_2650" x="114.189" y="56.3435" width="797.468" height="797.467" filterUnits="userSpaceOnUse" color-interpolation-filters="sRGB">
<feFlood flood-opacity="0" result="BackgroundImageFix"/>
<feBlend mode="normal" in="SourceGraphic" in2="BackgroundImageFix" result="shape"/>
<feColorMatrix in="SourceAlpha" type="matrix" values="0 0 0 0 0 0 0 0 0 0 0 0 0 0 0 0 0 0 127 0" result="hardAlpha"/>
<feOffset dx="-2.15397" dy="4.30795"/>
<feGaussianBlur stdDeviation="1.07699"/>
<feComposite in2="hardAlpha" operator="arithmetic" k2="-1" k3="1"/>
<feColorMatrix type="matrix" values="0 0 0 0 1 0 0 0 0 1 0 0 0 0 1 0 0 0 0.5 0"/>
<feBlend mode="normal" in2="shape" result="effect1_innerShadow_471_2650"/>
</filter>
<filter id="filter15_f_471_2650" x="113.029" y="53.0297" width="801.942" height="801.941" filterUnits="userSpaceOnUse" color-interpolation-filters="sRGB">
<feFlood flood-opacity="0" result="BackgroundImageFix"/>
<feBlend mode="normal" in="SourceGraphic" in2="BackgroundImageFix" result="shape"/>
<feGaussianBlur stdDeviation="1.6569" result="effect1_foregroundBlur_471_2650"/>
</filter>
<filter id="filter16_f_471_2650" x="114.134" y="54.1343" width="799.733" height="799.732" filterUnits="userSpaceOnUse" color-interpolation-filters="sRGB">
<feFlood flood-opacity="0" result="BackgroundImageFix"/>
<feBlend mode="normal" in="SourceGraphic" in2="BackgroundImageFix" result="shape"/>
<feGaussianBlur stdDeviation="1.1046" result="effect1_foregroundBlur_471_2650"/>
</filter>
<clipPath id="clip0_471_2650">
<rect width="1920" height="1302" fill="white"/>
</clipPath>
</defs>
</svg>
