<svg width="78" height="10" viewBox="0 0 78 10" fill="none" xmlns="http://www.w3.org/2000/svg">
<path fill-rule="evenodd" clip-rule="evenodd" d="M18.0961 4.8539C18.0961 7.57087 20.085 9.46483 22.8231 9.46483C25.5611 9.46483 27.5369 7.56296 27.5369 4.84599C27.5369 2.12902 25.5558 0.232422 22.8231 0.232422C20.0903 0.232422 18.0961 2.1343 18.0961 4.8539ZM25.3897 4.8539C25.3897 6.29944 24.3055 7.61835 22.8231 7.61835C21.3406 7.61835 20.2459 6.29944 20.2459 4.86182C20.2459 3.4242 21.338 2.09209 22.8231 2.09209C24.3082 2.09209 25.3897 3.39782 25.3897 4.8539ZM60.8578 0.374884V2.22137L63.4165 2.21873V9.31186H65.5268V2.22137H68.0697V0.374884H60.8578ZM32.8971 9.46475C30.0298 9.46475 28.8243 7.88205 28.8243 5.69529L28.8296 0.377418H30.9662V5.61351C30.9662 6.67129 31.6731 7.61299 32.905 7.61299C34.1369 7.61299 34.8333 6.66865 34.8333 5.61351V0.377418H36.9673V5.67946C36.9673 7.90315 35.7644 9.46475 32.8971 9.46475ZM43.7568 9.31973H46.1652L44.2527 5.9776C44.8073 5.78968 45.2875 5.42971 45.6234 4.95008C45.9592 4.47045 46.1333 3.89616 46.1203 3.31075C46.1203 1.64892 45.0995 0.3854 43.1158 0.3854H38.7397V9.31973H40.8499V6.20446H42.1372L43.7568 9.31973ZM43.9758 3.29229C43.9758 4.02825 43.4482 4.41073 42.7492 4.41073H40.842V2.17385H42.7465C43.3506 2.17385 43.9758 2.55897 43.9758 3.29229ZM55.727 9.31973H53.6985L49.6864 3.62202V9.31973H47.5761V0.3854H49.7418L53.6167 5.85099V0.3854H55.727V9.31973ZM57.513 9.31973H59.6232V0.3854H57.513V9.31973ZM71.7498 9.31973H73.8601V5.69008L77.2471 0.3854H74.8572L72.7971 3.82777L70.7316 0.3854H68.3576L71.771 5.69008L71.7498 9.31973ZM10.449 2.16594V0.3854H17.6608V2.16857H15.118V9.31973H13.0077V2.16594H10.449ZM0.82888 0.38802L2.53183 2.09097H8.04434L9.74729 0.38802H0.82888ZM8.04475 7.60349L5.28849 7.60475L2.53223 7.60349L0.82802 9.30771H9.74896L8.04475 7.60349ZM6.13992 3.99588L4.43697 3.99588L5.28845 4.84735L4.43571 5.70009H6.14118L6.99266 4.84862L6.13992 3.99588ZM3.58365 4.84854L0.827393 7.60479L0.827393 2.09228L3.58365 4.84854Z" fill="#5C5F5D"/>
</svg>
