<svg width="880" height="106" viewBox="0 0 880 106" fill="none" xmlns="http://www.w3.org/2000/svg">
<path fill-rule="evenodd" clip-rule="evenodd" d="M203.225 53.0602C203.225 84.128 225.967 105.785 257.277 105.785C288.586 105.785 311.178 84.0375 311.178 52.9697C311.178 21.9018 288.525 0.214661 257.277 0.214661C226.028 0.214661 203.225 21.9622 203.225 53.0602ZM286.625 53.0602C286.625 69.5895 274.228 84.6709 257.277 84.6709C240.325 84.6709 227.807 69.5895 227.807 53.1507C227.807 36.7118 240.295 21.4795 257.277 21.4795C274.258 21.4795 286.625 36.4102 286.625 53.0602ZM692.195 1.84308V22.9572L721.453 22.927V104.035H745.583V22.9572H774.66V1.84308H692.195ZM372.468 105.784C339.681 105.784 325.896 87.6861 325.896 62.681L325.957 1.87252H350.389V61.746C350.389 73.8413 358.472 84.6095 372.559 84.6095C386.645 84.6095 394.608 73.8112 394.608 61.746V1.87252H419.009V62.5001C419.009 87.9274 405.255 105.784 372.468 105.784ZM496.65 104.126H524.189L502.321 65.9093C508.662 63.7604 514.153 59.6443 517.993 54.1599C521.834 48.6754 523.825 42.1085 523.676 35.4146C523.676 16.4119 512.003 1.96385 489.321 1.96385H439.28V104.126H463.411V68.5033H478.13L496.65 104.126ZM499.154 35.2034C499.154 43.6189 493.121 47.9925 485.128 47.9925H463.32V22.4143H485.098C492.005 22.4143 499.154 26.8181 499.154 35.2034ZM633.531 104.126H610.335L564.458 38.9738V104.126H540.327V1.96385H565.091L609.4 64.4615V1.96385H633.531V104.126ZM653.948 104.126H678.079V1.96385H653.948V104.126ZM816.738 104.126H840.868V62.6216L879.597 1.96385H852.27L828.712 41.3265L805.095 1.96385H777.948L816.979 62.6216L816.738 104.126ZM115.783 22.3238V1.96385H198.248V22.354H169.171V104.126H145.041V22.3238H115.783ZM0.518466 1.2746L20.1918 20.9479L83.8751 20.9479L103.548 1.27459L0.518466 1.2746ZM83.8779 84.6328L52.0362 84.6474L20.1946 84.6328L0.506689 104.321L103.566 104.321L83.8779 84.6328ZM61.8729 42.9545L42.1996 42.9544L52.0363 52.7911L42.185 62.6423L61.8875 62.6424L71.7242 52.8057L61.8729 42.9545ZM32.3456 52.8046L0.503927 84.6463L0.503906 20.963L32.3456 52.8046Z" fill="url(#paint0_linear)"/>
<defs>
<linearGradient id="paint0_linear" x1="5.52599" y1="48.5896" x2="585.257" y2="466.239" gradientUnits="userSpaceOnUse">
<stop stop-color="#F7F0AC"/>
<stop offset="0.5" stop-color="#ACF7F0"/>
<stop offset="1" stop-color="#F0ACF7"/>
</linearGradient>
</defs>
</svg>
