<svg width="2139" height="259" viewBox="0 0 2139 259" fill="none" xmlns="http://www.w3.org/2000/svg">
<path fill-rule="evenodd" clip-rule="evenodd" d="M483.138 129.298C483.138 205.313 538.783 258.301 615.388 258.301C691.993 258.301 747.269 205.091 747.269 129.077C747.269 53.0626 691.845 0.000125885 615.388 0.000125885C538.931 0.000125885 483.138 53.2102 483.138 129.298ZM687.196 129.298C687.196 169.741 656.864 206.641 615.388 206.641C573.912 206.641 543.285 169.741 543.285 129.52C543.285 89.2985 573.838 52.0294 615.388 52.0294C656.937 52.0294 687.196 88.5605 687.196 129.298ZM1679.51 3.98573V55.646L1751.1 55.5722V254.021H1810.14V55.646H1881.28V3.98573H1679.51ZM897.236 258.299C817.015 258.299 783.289 214.019 783.289 152.838L783.436 4.05698H843.214V150.551C843.214 180.145 862.993 206.491 897.458 206.491C931.922 206.491 951.406 180.071 951.406 150.551V4.05698H1011.11V152.396C1011.11 214.609 977.457 258.299 897.236 258.299ZM1585.93 254.242H1644.97V4.2799H1585.93V254.242ZM1984.24 254.242H2043.28V152.692L2138.04 4.2799H2071.18L2013.54 100.589L1955.76 4.2799H1889.34L1984.83 152.692L1984.24 254.242ZM1535.96 254.242H1479.21L1366.96 94.8329V254.242H1307.92V4.27995H1368.51L1476.92 157.194V4.27995H1535.96V254.242ZM1201.07 254.242H1268.45L1214.94 160.737C1230.46 155.479 1243.89 145.408 1253.29 131.989C1262.68 118.57 1267.56 102.503 1267.19 86.1245C1267.19 39.6303 1238.63 4.27995 1183.13 4.27995H1060.7V254.242H1119.74V167.083H1155.75L1201.07 254.242ZM1207.19 85.6079C1207.19 106.198 1192.43 116.899 1172.87 116.899H1119.52V54.3166H1172.8C1189.7 54.3166 1207.19 65.0914 1207.19 85.6079ZM269.191 54.0952V4.27995H470.961V54.169H399.817V254.242H340.777V54.0952H269.191ZM0.0433431 4.35339L47.6879 51.9979H201.915L249.559 4.35339H0.0433431ZM201.924 206.226L124.811 206.261L47.6972 206.226L0.0173834 253.906L249.604 253.906L201.924 206.226ZM148.633 105.293L100.989 105.293L124.811 129.115L100.953 152.973H148.668L172.491 129.151L148.633 105.293ZM77.1135 129.148L-9.5751e-05 206.262L-8.76588e-05 52.0349L77.1135 129.148Z" fill="white"/>
</svg>
