<svg width="408" height="50" viewBox="0 0 408 50" fill="none" xmlns="http://www.w3.org/2000/svg">
<path fill-rule="evenodd" clip-rule="evenodd" d="M117.434 49.67C102.815 49.67 92.1965 39.5582 92.1965 25.0525C92.1965 10.5327 102.843 0.378723 117.434 0.378723C132.024 0.378723 142.6 10.5046 142.6 25.0103C142.6 39.516 132.052 49.67 117.434 49.67ZM117.434 39.8117C125.348 39.8117 131.137 32.7701 131.137 25.0525C131.137 17.2786 125.363 10.3074 117.434 10.3074C109.505 10.3074 103.674 17.4194 103.674 25.0948C103.674 32.7701 109.519 39.8117 117.434 39.8117ZM320.499 10.9975V1.13928H359.003V10.9975H345.427V48.8532H334.16V10.9834L320.499 10.9975ZM149.474 29.5447C149.474 41.2196 155.91 49.6696 171.218 49.6696C186.527 49.6696 192.949 41.3323 192.949 29.4602V1.15289H181.555V29.1081C181.555 34.7414 177.837 39.7831 171.261 39.7831C164.684 39.7831 160.909 34.7554 160.909 29.1081V1.15289H149.502L149.474 29.5447ZM242.056 48.8953H229.198L220.551 32.263H213.678V48.8953H202.411V1.19543H225.775C236.366 1.19543 241.816 7.9413 241.816 16.8137C241.886 19.9392 240.956 23.0052 239.163 25.566C237.37 28.1267 234.806 30.0485 231.845 31.0519L242.056 48.8953ZM223.818 22.6864C227.55 22.6864 230.367 20.6444 230.367 16.7151C230.367 12.8 227.029 10.7439 223.804 10.7439H213.636V22.6864H223.818ZM282.276 48.8953H293.106V1.19543H281.84V30.3759L261.151 1.19543H249.589V48.8953H260.856V18.4755L282.276 48.8953ZM313.907 48.8953H302.641V1.19543H313.907V48.8953ZM389.917 48.8953H378.65L378.763 29.5168L360.539 1.19543H373.214L384.241 19.574L395.24 1.19543H408L389.917 29.5168V48.8953ZM51.3694 1.19543V10.7016H65.0301V48.8953H76.2967V10.7157H89.8729V1.19543H51.3694Z" fill="#0DFFD2"/>
<path d="M9.30731 10.2965C9.17337 10.2965 9.0449 10.2433 8.95019 10.1486L0.869672 2.06805C0.551517 1.7499 0.776842 1.2059 1.22678 1.2059L46.3966 1.20532C46.8465 1.20532 47.0718 1.74932 46.7537 2.06748L38.673 10.1482C38.5782 10.2429 38.4498 10.2961 38.3158 10.2961L9.30731 10.2965Z" fill="#0DFFD2"/>
<path d="M38.3166 39.724C38.4506 39.7239 38.5791 39.7771 38.6739 39.8719L46.7611 47.959C47.0792 48.2772 46.8539 48.8212 46.404 48.8212L1.2207 48.8218C0.77076 48.8218 0.545422 48.2778 0.86358 47.9596L8.95094 39.8723C9.04571 39.7775 9.17426 39.7243 9.30828 39.7243L38.3166 39.724Z" fill="#0DFFD2"/>
<path d="M20.1295 21.3274C19.8113 21.0092 20.0366 20.4652 20.4866 20.4652L28.1488 20.4651C28.2828 20.4651 28.4112 20.5183 28.5059 20.613L32.5529 24.66C32.7501 24.8573 32.7501 25.177 32.5529 25.3743L28.5125 29.4146C28.4178 29.5093 28.2894 29.5626 28.1554 29.5626L20.4798 29.5627C20.0298 29.5627 19.8045 29.0187 20.1226 28.7005L23.4555 25.3676C23.6527 25.1704 23.6527 24.8506 23.4555 24.6534L20.1295 21.3274Z" fill="#0DFFD2"/>
<path d="M0.000244141 38.5112C0.000238624 38.9612 0.544242 39.1865 0.862401 38.8683L14.3568 25.374C14.554 25.1767 14.554 24.857 14.3568 24.6597L0.862731 11.1657C0.544576 10.8476 0.000581431 11.0729 0.000575915 11.5228L0.000244141 38.5112Z" fill="#0DFFD2"/>
</svg>
