<svg width="1270" height="258" viewBox="0 0 1270 258" fill="none" xmlns="http://www.w3.org/2000/svg">
<path d="M3.89448 239.829H28.9105V233.31H11.4205V225.095H28.5395V218.629H11.4205V210.944H28.9105V204.478H3.89448V239.829ZM64.6859 234.847C68.0249 238.186 72.9009 240.465 79.6849 240.465C89.2249 240.465 93.8359 235.589 93.8359 229.123C93.8359 221.279 86.4159 219.53 80.5859 218.205C76.5049 217.251 73.5369 216.509 73.5369 214.124C73.5369 212.004 75.3389 210.52 78.7309 210.52C82.1759 210.52 85.9919 211.739 88.8539 214.389L93.0409 208.877C89.5429 205.644 84.8789 203.948 79.2609 203.948C70.9399 203.948 65.8519 208.718 65.8519 214.601C65.8519 222.498 73.2719 224.088 79.0489 225.413C83.1299 226.367 86.2039 227.268 86.2039 229.918C86.2039 231.932 84.1899 233.893 80.0559 233.893C75.1799 233.893 71.3109 231.72 68.8199 229.123L64.6859 234.847ZM131.233 239.829H138.759V227.162H147.769C155.401 227.162 159.641 222.021 159.641 215.873C159.641 209.672 155.454 204.478 147.769 204.478H131.233V239.829ZM151.956 215.82C151.956 218.788 149.73 220.696 146.762 220.696H138.759V210.944H146.762C149.73 210.944 151.956 212.905 151.956 215.82ZM194.94 222.18C194.94 232.833 202.731 240.465 213.384 240.465C224.09 240.465 231.881 232.833 231.881 222.18C231.881 211.527 224.09 203.895 213.384 203.895C202.731 203.895 194.94 211.527 194.94 222.18ZM224.143 222.18C224.143 228.752 219.903 233.787 213.384 233.787C206.865 233.787 202.678 228.752 202.678 222.18C202.678 215.555 206.865 210.573 213.384 210.573C219.903 210.573 224.143 215.555 224.143 222.18ZM289.474 239.829H298.113L290.163 226.367C293.979 225.466 297.901 222.127 297.901 215.873C297.901 209.301 293.396 204.478 286.029 204.478H269.493V239.829H277.019V227.162H282.531L289.474 239.829ZM290.216 215.82C290.216 218.788 287.937 220.696 284.916 220.696H277.019V210.944H284.916C287.937 210.944 290.216 212.852 290.216 215.82ZM343.524 239.829H351.103V211.103H361.385V204.478H333.189V211.103H343.524V239.829ZM395.739 234.847C399.078 238.186 403.954 240.465 410.738 240.465C420.278 240.465 424.889 235.589 424.889 229.123C424.889 221.279 417.469 219.53 411.639 218.205C407.558 217.251 404.59 216.509 404.59 214.124C404.59 212.004 406.392 210.52 409.784 210.52C413.229 210.52 417.045 211.739 419.907 214.389L424.094 208.877C420.596 205.644 415.932 203.948 410.314 203.948C401.993 203.948 396.905 208.718 396.905 214.601C396.905 222.498 404.325 224.088 410.102 225.413C414.183 226.367 417.257 227.268 417.257 229.918C417.257 231.932 415.243 233.893 411.109 233.893C406.233 233.893 402.364 231.72 399.873 229.123L395.739 234.847ZM508.177 239.829H515.703V225.095H532.822V218.629H515.703V210.944H533.193V204.478H508.177V239.829ZM569.089 222.18C569.089 232.833 576.88 240.465 587.533 240.465C598.239 240.465 606.03 232.833 606.03 222.18C606.03 211.527 598.239 203.895 587.533 203.895C576.88 203.895 569.089 211.527 569.089 222.18ZM598.292 222.18C598.292 228.752 594.052 233.787 587.533 233.787C581.014 233.787 576.827 228.752 576.827 222.18C576.827 215.555 581.014 210.573 587.533 210.573C594.052 210.573 598.292 215.555 598.292 222.18ZM663.623 239.829H672.262L664.312 226.367C668.128 225.466 672.05 222.127 672.05 215.873C672.05 209.301 667.545 204.478 660.178 204.478H643.642V239.829H651.168V227.162H656.68L663.623 239.829ZM664.365 215.82C664.365 218.788 662.086 220.696 659.065 220.696H651.168V210.944H659.065C662.086 210.944 664.365 212.852 664.365 215.82Z" fill="#EFEFEF"/>
<path d="M755.919 239.829H780.935V233.31H763.445V225.095H780.564V218.629H763.445V210.944H780.935V204.478H755.919V239.829ZM829.059 239.829H838.493L852.114 204.478H843.528L833.776 231.667L823.971 204.478H815.385L829.059 239.829ZM887.709 239.829H912.725V233.31H895.235V225.095H912.354V218.629H895.235V210.944H912.725V204.478H887.709V239.829ZM970.919 239.829H979.558L971.608 226.367C975.424 225.466 979.346 222.127 979.346 215.873C979.346 209.301 974.841 204.478 967.474 204.478H950.938V239.829H958.464V227.162H963.976L970.919 239.829ZM971.661 215.82C971.661 218.788 969.382 220.696 966.361 220.696H958.464V210.944H966.361C969.382 210.944 971.661 212.852 971.661 215.82ZM1026.25 239.829H1033.78V225.36L1047.29 204.478H1038.71L1030.01 218.682L1021.22 204.478H1012.63L1026.25 225.36V239.829ZM1079.07 222.18C1079.07 232.833 1086.86 240.465 1097.51 240.465C1108.22 240.465 1116.01 232.833 1116.01 222.18C1116.01 211.527 1108.22 203.895 1097.51 203.895C1086.86 203.895 1079.07 211.527 1079.07 222.18ZM1108.27 222.18C1108.27 228.752 1104.03 233.787 1097.51 233.787C1090.99 233.787 1086.8 228.752 1086.8 222.18C1086.8 215.555 1090.99 210.573 1097.51 210.573C1104.03 210.573 1108.27 215.555 1108.27 222.18ZM1178 239.829H1185.26V204.478H1177.73V227.374L1161.36 204.478H1153.62V239.829H1161.14V216.085L1178 239.829ZM1224.56 239.829H1249.58V233.31H1232.09V225.095H1249.2V218.629H1232.09V210.944H1249.58V204.478H1224.56V239.829Z" fill="url(#paint0_linear)"/>
<path fill-rule="evenodd" clip-rule="evenodd" d="M287.203 77.0028C287.203 122.127 320.236 153.583 365.711 153.583C411.186 153.583 444 121.996 444 76.8714C444 31.7467 411.098 0.24707 365.711 0.24707C320.323 0.24707 287.203 31.8343 287.203 77.0028ZM408.338 77.0028C408.338 101.011 390.332 122.916 365.711 122.916C341.089 122.916 322.908 101.011 322.908 77.1342C322.908 53.2576 341.045 31.1334 365.711 31.1334C390.376 31.1334 408.338 52.8195 408.338 77.0028ZM997.414 2.61341V33.2807L1039.91 33.2368V151.043H1074.96V33.2807H1117.19V2.61341H997.414ZM533.022 153.582C485.4 153.582 465.379 127.296 465.379 90.9775L465.467 2.65584H500.953V89.6194C500.953 107.187 512.694 122.828 533.154 122.828C553.613 122.828 565.179 107.144 565.179 89.6194V2.65584H600.622V90.7146C600.622 127.647 580.644 153.582 533.022 153.582ZM713.389 151.173H753.388L721.625 95.6657C730.836 92.5446 738.81 86.5662 744.389 78.6002C749.967 70.6342 752.859 61.0962 752.643 51.3735C752.643 23.773 735.688 2.78783 702.743 2.78783H630.061V151.173H665.11V99.4334H686.489L713.389 151.173ZM717.025 51.0668C717.025 63.2899 708.263 69.6424 696.653 69.6424H664.978V32.4912H696.609C706.642 32.4912 717.025 38.8875 717.025 51.0668ZM912.199 151.173H878.509L811.873 56.5431V151.173H776.825V2.78783H812.793L877.151 93.5628V2.78783H912.199V151.173ZM941.859 151.173H976.908V2.78783H941.859V151.173ZM1178.3 151.173H1213.35V90.8904L1269.61 2.78783H1229.91L1195.7 59.9603L1161.39 2.78783H1121.96L1178.65 90.8904L1178.3 151.173ZM160.195 32.3598V2.78783H279.972V32.4036H237.739V151.173H202.691V32.3598H160.195ZM0.417477 2.83108L28.7009 31.1145H120.255L148.539 2.83108H0.417477ZM120.258 122.67L74.4807 122.691L28.7035 122.67L0.39914 150.975L148.562 150.975L120.258 122.67ZM88.6224 62.7519L60.339 62.7519L74.4807 76.8936L60.318 91.0563H88.6433L102.785 76.9146L88.6224 62.7519ZM46.1737 76.9132L0.396486 122.69L0.396484 31.136L46.1737 76.9132Z" fill="url(#paint1_linear)"/>
<defs>
<linearGradient id="paint0_linear" x1="7.64721" y1="221.494" x2="351.99" y2="786.496" gradientUnits="userSpaceOnUse">
<stop stop-color="#F7F0AC"/>
<stop offset="0.5" stop-color="#ACF7F0"/>
<stop offset="1" stop-color="#F0ACF7"/>
</linearGradient>
<linearGradient id="paint1_linear" x1="7.64721" y1="70.5095" x2="848.069" y2="672.345" gradientUnits="userSpaceOnUse">
<stop stop-color="#F7F0AC"/>
<stop offset="0.5" stop-color="#ACF7F0"/>
<stop offset="1" stop-color="#F0ACF7"/>
</linearGradient>
</defs>
</svg>
