<svg width="456" height="255" viewBox="0 0 456 255" fill="none" xmlns="http://www.w3.org/2000/svg">
<rect x="34.1157" y="91.4526" width="387.768" height="63.6715" rx="7.10408" fill="#1C1C1C"/>
<rect x="34.1157" y="91.4526" width="387.768" height="63.6715" rx="7.10408" fill="#00E0B5" fill-opacity="0.01"/>
<rect x="34.1157" y="91.4526" width="387.768" height="63.6715" rx="7.10408" fill="white" fill-opacity="0.06"/>
<rect x="298.603" y="54.0344" width="146.036" height="141.21" rx="5.92006" transform="rotate(90 298.603 54.0344)" fill="#1C1C1C"/>
<rect x="298.603" y="54.0344" width="146.036" height="141.21" rx="5.92006" transform="rotate(90 298.603 54.0344)" fill="#00E0B5" fill-opacity="0.01"/>
<rect x="298.603" y="54.0344" width="146.036" height="141.21" rx="5.92006" transform="rotate(90 298.603 54.0344)" fill="white" fill-opacity="0.08"/>
<rect x="178" y="117.035" width="100" height="52" rx="10.2614" fill="#0DFFD2"/>
<path d="M208.66 149.109H200.576L200.86 147.901H208.945L208.66 149.109ZM220.316 149.109H212.231L212.515 147.901H220.6L220.316 149.109ZM231.971 149.109H223.886L224.17 147.901H232.255L231.971 149.109ZM243.626 149.109H235.541L235.826 147.901H243.91L243.626 149.109ZM255.281 149.109H247.196L247.481 147.901H255.565L255.281 149.109Z" fill="black"/>
<path d="M204.409 143.881C203.244 143.881 202.33 143.559 201.667 142.915C201.014 142.271 200.687 141.371 200.687 140.215C200.687 139.164 200.876 138.183 201.255 137.274C201.644 136.355 202.231 135.598 203.017 135.001C203.813 134.395 204.732 134.092 205.773 134.092C207.109 134.092 208.17 134.523 208.956 135.384L207.706 136.805C207.232 136.19 206.55 135.882 205.66 135.882C205.016 135.882 204.462 136.109 203.997 136.564C203.533 137.018 203.202 137.568 203.003 138.212C202.974 138.269 202.932 138.392 202.875 138.581C203.14 138.307 203.495 138.075 203.941 137.885C204.395 137.686 204.859 137.587 205.333 137.587C206.195 137.587 206.91 137.824 207.478 138.297C208.047 138.771 208.331 139.405 208.331 140.201C208.331 141.215 207.947 142.081 207.18 142.801C206.413 143.521 205.489 143.881 204.409 143.881ZM203.145 141.636C203.476 141.939 203.898 142.091 204.409 142.091C204.921 142.091 205.352 141.934 205.702 141.622C206.053 141.3 206.228 140.911 206.228 140.457C206.228 140.078 206.053 139.775 205.702 139.547C205.352 139.32 204.916 139.206 204.395 139.206C203.761 139.206 203.188 139.448 202.676 139.931C202.667 139.997 202.662 140.158 202.662 140.414C202.662 140.926 202.823 141.333 203.145 141.636ZM217.314 134.077C218.479 134.077 219.389 134.399 220.042 135.043C220.705 135.688 221.037 136.587 221.037 137.743C221.037 138.52 220.923 139.273 220.696 140.002C220.468 140.722 220.146 141.371 219.73 141.949C219.313 142.526 218.773 142.991 218.11 143.341C217.456 143.692 216.732 143.867 215.936 143.867C214.61 143.867 213.558 143.44 212.782 142.588L214.018 141.153C214.463 141.769 215.15 142.077 216.078 142.077C216.722 142.077 217.272 141.854 217.726 141.409C218.181 140.954 218.517 140.405 218.735 139.761C218.801 139.552 218.839 139.424 218.849 139.377C218.574 139.661 218.214 139.903 217.769 140.102C217.324 140.291 216.864 140.386 216.391 140.386C215.529 140.386 214.809 140.149 214.231 139.675C213.663 139.192 213.378 138.553 213.378 137.757C213.378 136.753 213.767 135.891 214.544 135.171C215.32 134.442 216.244 134.077 217.314 134.077ZM218.564 136.336C218.242 136.024 217.826 135.868 217.314 135.868C216.803 135.868 216.372 136.029 216.021 136.351C215.671 136.663 215.495 137.047 215.495 137.501C215.495 137.88 215.666 138.183 216.007 138.411C216.357 138.638 216.793 138.752 217.314 138.752C217.968 138.752 218.546 138.515 219.048 138.041C219.057 137.975 219.062 137.814 219.062 137.558C219.062 137.047 218.896 136.64 218.564 136.336ZM230.83 143.71H228.812L229.238 141.75H224.706L225.104 139.988L230.02 134.234H232.918L231.654 139.974H232.862L232.478 141.75H231.256L230.83 143.71ZM229.622 139.974L230.503 136.024L227.065 139.974H229.622ZM243.838 143.71H236.705L237.117 141.835C238.055 141.305 238.784 140.883 239.305 140.57C239.836 140.258 240.385 139.917 240.954 139.547C241.531 139.169 241.958 138.851 242.232 138.596C242.517 138.34 242.749 138.075 242.929 137.8C243.109 137.516 243.198 137.241 243.198 136.976C243.198 136.635 243.037 136.365 242.715 136.166C242.403 135.967 241.996 135.868 241.494 135.868C240.594 135.868 239.807 136.152 239.135 136.72L238.282 135.271C238.699 134.911 239.206 134.627 239.803 134.418C240.399 134.2 241.01 134.092 241.636 134.092C242.668 134.092 243.539 134.338 244.25 134.83C244.96 135.313 245.316 135.986 245.316 136.848C245.316 137.738 244.889 138.596 244.037 139.42C243.194 140.234 241.967 141.072 240.357 141.934H244.221L243.838 143.71Z" fill="black"/>
<rect x="86.801" y="118.969" width="53.2364" height="7.91777" rx="3.95889" fill="#4F4F4F"/>
<rect width="53.2364" height="7.91777" rx="3.95889" transform="matrix(-1 0 0 1 369.196 118.969)" fill="#4F4F4F"/>
<rect x="86.801" y="110.13" width="32.6004" height="3.25379" rx="1.6269" fill="#4F4F4F"/>
<rect width="32.6004" height="3.25379" rx="1.6269" transform="matrix(-1 0 0 1 369.196 110.13)" fill="#4F4F4F"/>
<rect x="95.2568" y="134.028" width="44.7807" height="4.11966" rx="2.05983" fill="#4F4F4F"/>
<rect width="44.6058" height="4.11966" rx="2.05983" transform="matrix(-1 0 0 1 360.565 134.028)" fill="#4F4F4F"/>
<rect x="196.512" y="95.6218" width="79.7429" height="8.69734" rx="4.34867" fill="#4F4F4F"/>
<circle cx="90.415" cy="136.088" r="3.61402" fill="#4F4F4F"/>
<circle r="3.61402" transform="matrix(-1 0 0 1 365.582 136.088)" fill="#4F4F4F"/>
<ellipse cx="182.979" cy="99.9684" rx="6.78205" ry="6.90635" fill="#4F4F4F"/>
<rect x="43.4048" y="105.756" width="35.0646" height="35.0646" rx="5.52539" fill="#ACED8D"/>
<rect width="35.0646" height="35.0646" rx="5.52539" transform="matrix(-1 0 0 1 412.593 105.756)" fill="#ED8DC7"/>
<path d="M54.8221 119.958C54.8221 121.678 53.4275 121.276 51.7073 121.276C49.9871 121.276 48.5925 121.678 48.5925 119.958C48.5925 118.238 49.9871 116.843 51.7073 116.843C53.4275 116.843 54.8221 118.238 54.8221 119.958Z" fill="#292B2B"/>
<path d="M390.879 119.222C390.879 120.484 389.484 120.565 387.764 120.565C386.044 120.565 384.649 120.484 384.649 119.222C384.649 117.959 386.044 116.936 387.764 116.936C389.484 116.936 390.879 117.959 390.879 119.222Z" fill="#292B2B"/>
<path d="M73.2806 119.958C73.2806 121.678 71.886 122.026 70.1658 122.026C68.4456 122.026 67.051 121.678 67.051 119.958C67.051 118.238 68.4456 116.843 70.1658 116.843C71.886 116.843 73.2806 118.238 73.2806 119.958Z" fill="#292B2B"/>
<path d="M405.472 119.41C405.472 120.568 404.077 121.002 402.357 121.002C400.637 121.002 399.903 120.568 399.903 119.41C399.903 118.251 400.637 117.312 402.357 117.312C404.077 117.312 405.472 118.251 405.472 119.41Z" fill="#292B2B"/>
<path d="M54.6233 129.317C54.9853 128.928 55.5219 128.745 56.0465 128.83C61.2054 129.659 60.9067 129.722 65.8601 128.857C66.4301 128.758 67.0125 128.978 67.3702 129.433C68.0774 130.332 67.6185 131.663 66.4967 131.886C62.6048 132.658 59.6351 132.673 55.4531 131.912C54.2405 131.692 53.7835 130.219 54.6233 129.317Z" fill="#292B2B"/>
<path d="M387.441 129.531C387.739 129.312 388.129 129.269 388.491 129.342C391.137 129.874 398.975 129.348 402.258 129.193C402.473 129.182 402.677 129.288 402.795 129.469C403.36 130.334 402.923 131.497 401.913 131.713C397.932 132.565 392.923 132.88 387.257 131.709C386.406 131.534 386.195 130.449 386.894 129.934L387.441 129.531Z" fill="#292B2B"/>
<line x1="250.801" y1="144.702" x2="252.207" y2="134.564" stroke="black" stroke-opacity="0.58"/>
</svg>
