<svg width="457" height="255" viewBox="0 0 457 255" fill="none" xmlns="http://www.w3.org/2000/svg">
<rect x="84.7292" y="95.5918" width="178.719" height="126.485" rx="11.5575" fill="#1C1C1C"/>
<rect x="84.7292" y="95.5918" width="178.719" height="126.485" rx="11.5575" fill="#00E0B5" fill-opacity="0.01"/>
<rect x="84.7292" y="95.5918" width="178.719" height="126.485" rx="11.5575" fill="white" fill-opacity="0.06"/>
<rect x="134.656" y="100.794" width="75.3506" height="8.21829" rx="4.10914" fill="#3A3A3A"/>
<rect x="266.58" y="95.5918" width="105.33" height="126.485" rx="10.2734" fill="#1C1C1C"/>
<rect x="266.58" y="95.5918" width="105.33" height="126.485" rx="10.2734" fill="#00E0B5" fill-opacity="0.01"/>
<rect x="266.58" y="95.5918" width="105.33" height="126.485" rx="10.2734" fill="white" fill-opacity="0.06"/>
<rect x="84.7292" y="92.7854" width="57.3903" height="94.1808" rx="7.70503" transform="rotate(-90 84.7292 92.7854)" fill="#1C1C1C"/>
<rect x="84.7292" y="92.7854" width="57.3903" height="94.1808" rx="7.70503" transform="rotate(-90 84.7292 92.7854)" fill="#00E0B5" fill-opacity="0.01"/>
<rect x="84.7292" y="92.7854" width="57.3903" height="94.1808" rx="7.70503" transform="rotate(-90 84.7292 92.7854)" fill="white" fill-opacity="0.06"/>
<rect x="181.229" y="92.7854" width="57.3903" height="94.1808" rx="7.70503" transform="rotate(-90 181.229 92.7854)" fill="#1C1C1C"/>
<rect x="181.229" y="92.7854" width="57.3903" height="94.1808" rx="7.70503" transform="rotate(-90 181.229 92.7854)" fill="#00E0B5" fill-opacity="0.01"/>
<rect x="181.229" y="92.7854" width="57.3903" height="94.1808" rx="7.70503" transform="rotate(-90 181.229 92.7854)" fill="white" fill-opacity="0.06"/>
<rect x="277.728" y="92.7854" width="57.3903" height="94.1808" rx="7.70503" transform="rotate(-90 277.728 92.7854)" fill="#1C1C1C"/>
<rect x="277.728" y="92.7854" width="57.3903" height="94.1808" rx="7.70503" transform="rotate(-90 277.728 92.7854)" fill="#00E0B5" fill-opacity="0.01"/>
<rect x="277.728" y="92.7854" width="57.3903" height="94.1808" rx="7.70503" transform="rotate(-90 277.728 92.7854)" fill="white" fill-opacity="0.06"/>
<rect x="288.015" y="45.3506" width="73.605" height="37.4778" rx="7.41276" fill="#0DFFD2"/>
<path d="M316.407 67.9396C315.743 67.9396 315.134 67.8232 314.58 67.5906C314.025 67.358 313.601 67.05 313.307 66.6669L314.21 65.5994C314.45 65.921 314.778 66.181 315.196 66.3795C315.613 66.5711 316.054 66.6669 316.52 66.6669C316.855 66.6669 317.108 66.5882 317.279 66.4308C317.457 66.2666 317.546 66.0852 317.546 65.8868C317.546 65.7157 317.43 65.5652 317.197 65.4352C316.971 65.2983 316.694 65.1718 316.366 65.0554C316.044 64.9391 315.719 64.8091 315.391 64.6654C315.069 64.5217 314.792 64.3164 314.559 64.0496C314.333 63.7827 314.22 63.4645 314.22 63.095C314.22 62.4997 314.463 61.9797 314.949 61.5349C315.442 61.0902 316.092 60.8678 316.899 60.8678C317.447 60.8678 317.96 60.967 318.439 61.1655C318.925 61.357 319.318 61.6273 319.619 61.9763L318.716 63.0027C318.47 62.7221 318.158 62.5066 317.782 62.3561C317.412 62.2055 317.043 62.1303 316.673 62.1303C316.413 62.1303 316.195 62.1987 316.017 62.3355C315.846 62.4724 315.76 62.6366 315.76 62.8282C315.76 62.9856 315.873 63.1293 316.099 63.2593C316.331 63.3893 316.612 63.5124 316.94 63.6288C317.269 63.7382 317.597 63.8683 317.926 64.0188C318.254 64.1625 318.531 64.3712 318.757 64.6449C318.99 64.9117 319.106 65.2299 319.106 65.5994C319.106 66.2563 318.86 66.8106 318.367 67.2622C317.881 67.7138 317.228 67.9396 316.407 67.9396ZM321.415 67.9396C320.956 67.9396 320.594 67.8506 320.327 67.6727C320.067 67.488 319.937 67.2177 319.937 66.8619C319.937 66.7455 319.95 66.6326 319.978 66.5232L320.532 63.988H319.711L319.968 62.859H320.789L321.086 61.5042H322.4L322.102 62.859H323.108L322.841 63.988H321.836L321.363 66.1434C321.35 66.2255 321.343 66.2939 321.343 66.3487C321.343 66.6361 321.504 66.7798 321.825 66.7798C321.983 66.7798 322.102 66.7455 322.185 66.6771L322.236 67.724C322.024 67.8677 321.75 67.9396 321.415 67.9396ZM325.683 62.7358C326.012 62.7358 326.316 62.8042 326.597 62.9411C326.877 63.0779 327.1 63.2695 327.264 63.5159L327.397 62.859H328.711L327.613 67.8164H326.299L326.443 67.2006C326.025 67.6932 325.529 67.9396 324.955 67.9396C324.38 67.9396 323.921 67.7582 323.579 67.3956C323.237 67.0329 323.066 66.53 323.066 65.8868C323.066 65.3668 323.162 64.8741 323.353 64.4088C323.552 63.9367 323.853 63.5398 324.257 63.2182C324.667 62.8966 325.143 62.7358 325.683 62.7358ZM325.889 63.8956C325.471 63.8956 325.122 64.0667 324.842 64.4088C324.568 64.7509 324.431 65.1547 324.431 65.6199C324.431 65.9689 324.534 66.2495 324.739 66.4616C324.944 66.6737 325.208 66.7798 325.529 66.7798C325.981 66.7798 326.361 66.5847 326.669 66.1947L327.048 64.4704C326.795 64.0872 326.409 63.8956 325.889 63.8956ZM330.209 67.8164H328.906L330.004 62.859H331.307L331.153 63.5056C331.632 62.9924 332.221 62.7358 332.919 62.7358L332.631 64.0291C332.467 63.988 332.31 63.9675 332.159 63.9675C331.687 63.9675 331.276 64.1659 330.928 64.5628L330.209 67.8164ZM334.595 67.9396C334.137 67.9396 333.774 67.8506 333.507 67.6727C333.247 67.488 333.117 67.2177 333.117 66.8619C333.117 66.7455 333.131 66.6326 333.158 66.5232L333.713 63.988H332.892L333.148 62.859H333.969L334.267 61.5042H335.581L335.283 62.859H336.289L336.022 63.988H335.016L334.544 66.1434C334.53 66.2255 334.523 66.2939 334.523 66.3487C334.523 66.6361 334.684 66.7798 335.006 66.7798C335.163 66.7798 335.283 66.7455 335.365 66.6771L335.416 67.724C335.204 67.8677 334.931 67.9396 334.595 67.9396Z" fill="black"/>
<rect x="89.9822" y="119.492" width="164.699" height="18.083" rx="6.14101" fill="#1C1C1C"/>
<rect x="89.9822" y="119.492" width="164.699" height="18.083" rx="6.14101" fill="#00E0B5" fill-opacity="0.01"/>
<rect x="89.9822" y="119.492" width="164.699" height="18.083" rx="6.14101" fill="white" fill-opacity="0.1"/>
<rect x="89.9822" y="119.492" width="7.67523" height="18.0828" rx="3.83762" fill="#FFB4A9"/>
<rect x="89.9822" y="140.751" width="164.699" height="18.083" rx="6.14101" fill="#1C1C1C"/>
<rect x="89.9822" y="140.751" width="164.699" height="18.083" rx="6.14101" fill="#00E0B5" fill-opacity="0.01"/>
<rect x="89.9822" y="140.751" width="164.699" height="18.083" rx="6.14101" fill="white" fill-opacity="0.1"/>
<rect x="194.873" y="64.3875" width="17.2333" height="15.0848" rx="6.14101" fill="#00E0B5"/>
<rect x="220.902" y="64.8992" width="16.2098" height="14.0613" rx="5.62926" stroke="#00E0B5" stroke-width="1.0235"/>
<rect x="245.908" y="64.3875" width="17.2333" height="15.0848" rx="6.14101" fill="#FFB4A9"/>
<rect x="269.54" y="124.56" width="98.3153" height="10.2084" rx="5.10418" fill="#1C1C1C"/>
<rect x="269.54" y="124.56" width="98.3153" height="10.2084" rx="5.10418" fill="#00E0B5" fill-opacity="0.01"/>
<rect x="269.54" y="124.56" width="98.3153" height="10.2084" rx="5.10418" fill="white" fill-opacity="0.1"/>
<rect x="100.819" y="62.7244" width="21.1961" height="18.2405" rx="6.14101" fill="#434343"/>
<rect x="141.856" y="62.7244" width="21.1961" height="18.4107" rx="6.14101" fill="#434343"/>
<rect x="269.54" y="137.575" width="98.3153" height="10.2084" rx="5.10418" fill="#1C1C1C"/>
<rect x="269.54" y="137.575" width="98.3153" height="10.2084" rx="5.10418" fill="#00E0B5" fill-opacity="0.01"/>
<rect x="269.54" y="137.575" width="98.3153" height="10.2084" rx="5.10418" fill="white" fill-opacity="0.1"/>
<rect x="269.54" y="150.59" width="98.3153" height="10.2084" rx="5.10418" fill="#1C1C1C"/>
<rect x="269.54" y="150.59" width="98.3153" height="10.2084" rx="5.10418" fill="#00E0B5" fill-opacity="0.01"/>
<rect x="269.54" y="150.59" width="98.3153" height="10.2084" rx="5.10418" fill="white" fill-opacity="0.1"/>
<rect x="105.012" y="125.288" width="93.786" height="6.49039" rx="3.24519" fill="#4F4F4F"/>
<rect x="105.012" y="146.547" width="93.786" height="6.49039" rx="3.24519" fill="#4F4F4F"/>
<rect x="228.976" y="126.759" width="17.9316" height="3.54836" rx="1.77418" fill="#4F4F4F"/>
<rect x="232.018" y="148.816" width="11.9106" height="3.54824" rx="1.77412" fill="#4F4F4F"/>
<rect x="281.896" y="128.728" width="41.7196" height="1.87238" rx="0.936188" fill="#4F4F4F"/>
<rect x="281.896" y="141.743" width="41.7196" height="1.87238" rx="0.936188" fill="#4F4F4F"/>
<rect x="281.896" y="154.757" width="41.7196" height="1.87238" rx="0.936188" fill="#4F4F4F"/>
<rect x="295.012" y="100.794" width="52.5051" height="8.21836" rx="4.10918" fill="#3A3A3A"/>
<rect x="208.036" y="42.0029" width="41.8812" height="6.69528" rx="3.34764" fill="#3A3A3A"/>
<rect x="111.538" y="42.0029" width="41.8812" height="6.69528" rx="3.34764" fill="#3A3A3A"/>
<circle cx="275.027" cy="129.664" r="3.89876" fill="#545454"/>
<circle cx="275.027" cy="142.679" r="3.89876" fill="#545454"/>
<circle cx="275.027" cy="155.694" r="3.89876" fill="#545454"/>
<line x1="212.134" y1="71.656" x2="220.39" y2="71.656" stroke="#00E0B5" stroke-width="1.0235"/>
<line x1="237.624" y1="71.656" x2="245.88" y2="71.656" stroke="#121212" stroke-width="1.0235"/>
<path d="M50.6918 182.819C50.4782 183.099 50.5317 183.498 50.8112 183.712C51.0907 183.926 51.4904 183.872 51.7039 183.593L50.6918 182.819ZM68.8412 172.493C69.0161 172.188 68.9105 171.799 68.6053 171.624L63.6322 168.774C63.327 168.599 62.9379 168.704 62.763 169.01C62.5881 169.315 62.6937 169.704 62.9989 169.879L67.4194 172.412L64.886 176.833C64.7111 177.138 64.8168 177.527 65.1219 177.702C65.4271 177.877 65.8163 177.771 65.9912 177.466L68.8412 172.493ZM51.7039 183.593C54.0687 180.497 56.1391 178.385 58.655 176.756C61.1755 175.124 64.1817 173.951 68.4554 172.791L68.1218 171.562C63.7922 172.737 60.6421 173.951 57.9626 175.687C55.2786 177.425 53.1053 179.66 50.6918 182.819L51.7039 183.593Z" fill="white"/>
<path d="M210.289 15.4139C209.974 15.2578 209.592 15.3869 209.436 15.7022C209.28 16.0174 209.409 16.3994 209.724 16.5555L210.289 15.4139ZM223.903 31.2478C224.236 31.3609 224.598 31.1827 224.711 30.8497L226.555 25.4225C226.668 25.0895 226.49 24.7278 226.157 24.6146C225.824 24.5014 225.462 24.6797 225.349 25.0127L223.71 29.8368L218.885 28.1977C218.552 28.0845 218.191 28.2627 218.078 28.5958C217.964 28.9288 218.143 29.2905 218.476 29.4037L223.903 31.2478ZM209.724 16.5555C213.215 18.2832 215.685 19.9104 217.767 22.0674C219.852 24.2283 221.579 26.954 223.536 30.9263L224.679 30.3633C222.696 26.3391 220.9 23.4802 218.683 21.183C216.463 18.8818 213.852 17.1772 210.289 15.4139L209.724 16.5555Z" fill="white"/>
<path d="M396.66 64.4208C396.881 64.147 396.838 63.7461 396.564 63.5253C396.29 63.3045 395.889 63.3476 395.668 63.6214L396.66 64.4208ZM378.248 74.2706C378.065 74.5712 378.16 74.9629 378.461 75.1457L383.358 78.1244C383.658 78.3072 384.05 78.2118 384.233 77.9113C384.416 77.6107 384.32 77.2189 384.02 77.0362L379.667 74.3884L382.315 70.0354C382.497 69.7349 382.402 69.3431 382.101 69.1603C381.801 68.9776 381.409 69.073 381.226 69.3735L378.248 74.2706ZM395.668 63.6214C393.224 66.6539 391.099 68.7113 388.542 70.2746C385.979 71.8406 382.944 72.9348 378.641 73.9828L378.943 75.2204C383.301 74.1586 386.482 73.0263 389.206 71.3614C391.934 69.6937 394.165 67.5158 396.66 64.4208L395.668 63.6214Z" fill="white"/>
<path d="M403.501 154.482C403.722 154.756 403.679 155.157 403.405 155.377C403.131 155.598 402.73 155.555 402.51 155.281L403.501 154.482ZM385.089 144.632C384.906 144.331 385.002 143.94 385.302 143.757L390.199 140.778C390.5 140.595 390.892 140.691 391.074 140.991C391.257 141.292 391.162 141.684 390.861 141.866L386.508 144.514L389.156 148.867C389.339 149.168 389.243 149.559 388.943 149.742C388.642 149.925 388.25 149.83 388.068 149.529L385.089 144.632ZM402.51 155.281C400.065 152.249 397.94 150.191 395.383 148.628C392.821 147.062 389.785 145.968 385.482 144.92L385.784 143.682C390.143 144.744 393.323 145.876 396.047 147.541C398.776 149.209 401.006 151.387 403.501 154.482L402.51 155.281Z" fill="white"/>
<path d="M50.0696 64.9335C49.7852 64.7266 49.7223 64.3282 49.9292 64.0438C50.1361 63.7593 50.5344 63.6965 50.8189 63.9034L50.0696 64.9335ZM70.4117 69.6486C70.6665 69.8912 70.6764 70.2943 70.4338 70.549L66.4813 74.7002C66.2388 74.955 65.8357 74.9648 65.5809 74.7223C65.3262 74.4798 65.3163 74.0766 65.5588 73.8219L69.0722 70.132L65.3822 66.6186C65.1275 66.3761 65.1176 65.973 65.3602 65.7182C65.6027 65.4635 66.0058 65.4536 66.2606 65.6961L70.4117 69.6486ZM50.8189 63.9034C53.9688 66.1946 56.556 67.6278 59.4324 68.4711C62.314 69.3159 65.5299 69.5817 69.957 69.4732L69.9882 70.7466C65.5033 70.8565 62.1375 70.5915 59.0741 69.6934C56.0055 68.7938 53.2845 67.2719 50.0696 64.9335L50.8189 63.9034Z" fill="white"/>
<path d="M18.007 204.833H16.1855L17.7013 197.929H15.2174L15.5741 196.337H22.3505L22.0065 197.929H19.5227L18.007 204.833ZM24.0067 198.018C23.7605 198.018 23.5524 197.937 23.3826 197.776C23.2213 197.615 23.1406 197.419 23.1406 197.19C23.1406 196.859 23.251 196.596 23.4718 196.4C23.701 196.196 23.9515 196.095 24.2233 196.095C24.478 196.095 24.6861 196.175 24.8474 196.337C25.0172 196.498 25.1022 196.693 25.1022 196.923C25.1022 197.254 24.9875 197.521 24.7582 197.725C24.529 197.92 24.2785 198.018 24.0067 198.018ZM23.217 204.833H21.5993L22.9623 198.68H24.5799L23.217 204.833ZM28.0818 204.985C27.1647 204.985 26.4302 204.731 25.8783 204.221C25.3348 203.703 25.0631 203.024 25.0631 202.183C25.0631 201.164 25.407 200.302 26.0948 199.597C26.7826 198.884 27.6318 198.527 28.6423 198.527C29.8226 198.527 30.6548 198.931 31.1388 199.738L29.9288 200.667C29.6571 200.2 29.2282 199.967 28.6423 199.967C28.0734 199.967 27.6063 200.175 27.2412 200.591C26.8845 201.007 26.7062 201.512 26.7062 202.107C26.7062 202.557 26.8505 202.909 27.1393 203.164C27.4365 203.419 27.8059 203.546 28.2474 203.546C28.7569 203.546 29.1858 203.342 29.5339 202.935L30.4128 204.017C29.8014 204.663 29.0244 204.985 28.0818 204.985ZM37.1895 204.833H35.2279L34.0943 202.425L33.1389 203.253L32.795 204.833H31.1774L33.0498 196.337H34.6674L33.5593 201.317L36.4125 198.68H38.476L35.419 201.47L37.1895 204.833ZM41.3457 204.985C40.3691 204.985 39.5922 204.739 39.0147 204.247C38.4458 203.754 38.1613 203.079 38.1613 202.221C38.1613 201.202 38.501 200.332 39.1803 199.61C39.8596 198.888 40.7046 198.527 41.7151 198.527C42.5218 198.527 43.1841 198.778 43.7021 199.279C44.2201 199.771 44.4791 200.438 44.4791 201.279C44.4791 201.669 44.4367 202.001 44.3517 202.272H39.779V202.425C39.779 202.731 39.9276 203.02 40.2248 203.291C40.5305 203.563 40.9423 203.699 41.4603 203.699C42.0972 203.699 42.6152 203.546 43.0143 203.24L43.5238 204.348C42.9039 204.773 42.1779 204.985 41.3457 204.985ZM39.9446 201.177H43.027V201.049C43.027 200.71 42.9039 200.421 42.6576 200.183C42.4199 199.937 42.0717 199.814 41.6132 199.814C41.1971 199.814 40.8319 199.954 40.5177 200.234C40.212 200.506 40.021 200.82 39.9446 201.177ZM47.4308 204.985C46.8619 204.985 46.4118 204.875 46.0807 204.654C45.758 204.425 45.5966 204.089 45.5966 203.648C45.5966 203.504 45.6136 203.363 45.6476 203.228L46.3354 200.081H45.3164L45.6348 198.68H46.6538L47.0232 196.999H48.6536L48.2842 198.68H49.5325L49.2013 200.081H47.9531L47.3671 202.756C47.3502 202.858 47.3417 202.943 47.3417 203.011C47.3417 203.368 47.5412 203.546 47.9403 203.546C48.1356 203.546 48.2842 203.504 48.3861 203.419L48.4498 204.718C48.1866 204.896 47.8469 204.985 47.4308 204.985ZM51.671 198.018C51.4248 198.018 51.2167 197.937 51.0469 197.776C50.8856 197.615 50.8049 197.419 50.8049 197.19C50.8049 196.859 50.9153 196.596 51.1361 196.4C51.3653 196.196 51.6158 196.095 51.8876 196.095C52.1423 196.095 52.3504 196.175 52.5117 196.337C52.6815 196.498 52.7665 196.693 52.7665 196.923C52.7665 197.254 52.6518 197.521 52.4225 197.725C52.1933 197.92 51.9428 198.018 51.671 198.018ZM50.8813 204.833H49.2636L50.6266 198.68H52.2442L50.8813 204.833ZM58.2554 204.833H56.6378L57.453 201.164C57.4954 200.977 57.5167 200.841 57.5167 200.757C57.5167 200.485 57.4275 200.285 57.2492 200.158C57.0709 200.03 56.8458 199.967 56.5741 199.967C56.0306 199.967 55.5126 200.205 55.0201 200.68L54.103 204.833H52.4853L53.8483 198.68H55.4659L55.2876 199.483C55.9415 198.846 56.625 198.527 57.3383 198.527C57.9243 198.527 58.3913 198.672 58.7395 198.961C59.0876 199.241 59.2617 199.619 59.2617 200.094C59.2617 200.222 59.2405 200.391 59.198 200.604L58.2554 204.833ZM62.4474 207.329C61.1227 207.329 60.1334 206.972 59.4795 206.259L60.4221 205.176C60.6174 205.44 60.8934 205.643 61.2501 205.788C61.6152 205.932 62.0058 206.004 62.4219 206.004C63.3475 206.004 63.9292 205.474 64.1669 204.412L64.2943 203.852C63.7848 204.472 63.1564 204.782 62.4092 204.782C61.7383 204.782 61.1821 204.578 60.7406 204.17C60.3075 203.754 60.0909 203.126 60.0909 202.285C60.0909 201.291 60.3839 200.417 60.9698 199.661C61.5558 198.905 62.3242 198.527 63.2753 198.527C63.649 198.527 64.0183 198.617 64.3835 198.795C64.7486 198.965 65.0416 199.198 65.2624 199.495L65.4407 198.68H67.0711L65.7973 204.412C65.6785 204.973 65.4959 205.448 65.2496 205.839C65.0119 206.238 64.7359 206.539 64.4217 206.743C64.1075 206.955 63.7891 207.104 63.4664 207.189C63.1437 207.282 62.804 207.329 62.4474 207.329ZM63.1734 203.342C63.7084 203.342 64.1712 203.109 64.5618 202.642L64.9949 200.731C64.6892 200.222 64.1882 199.967 63.4919 199.967C62.9908 199.967 62.579 200.162 62.2563 200.553C61.9336 200.935 61.7723 201.406 61.7723 201.967C61.7723 202.383 61.8997 202.718 62.1544 202.973C62.4092 203.219 62.7488 203.342 63.1734 203.342ZM23.3347 220.985C22.511 220.985 21.7552 220.841 21.0674 220.552C20.3796 220.264 19.8531 219.881 19.4879 219.406L20.6088 218.081C20.9061 218.48 21.3137 218.803 21.8317 219.049C22.3496 219.287 22.8974 219.406 23.4748 219.406C23.8909 219.406 24.2051 219.308 24.4174 219.113C24.6382 218.909 24.7485 218.684 24.7485 218.438C24.7485 218.226 24.6042 218.039 24.3155 217.877C24.0352 217.708 23.6913 217.55 23.2837 217.406C22.8846 217.262 22.4813 217.1 22.0737 216.922C21.6746 216.744 21.3306 216.489 21.0419 216.158C20.7617 215.827 20.6216 215.432 20.6216 214.973C20.6216 214.234 20.923 213.589 21.526 213.037C22.1374 212.485 22.9441 212.209 23.9461 212.209C24.6254 212.209 25.2623 212.332 25.8567 212.579C26.4596 212.816 26.9479 213.152 27.3215 213.585L26.2006 214.859C25.8949 214.51 25.5085 214.243 25.0415 214.056C24.583 213.869 24.1244 213.776 23.6659 213.776C23.3432 213.776 23.0714 213.861 22.8507 214.031C22.6384 214.201 22.5322 214.404 22.5322 214.642C22.5322 214.837 22.6723 215.016 22.9526 215.177C23.2413 215.338 23.5894 215.491 23.997 215.636C24.4046 215.771 24.8122 215.933 25.2198 216.12C25.6274 216.298 25.9713 216.557 26.2516 216.897C26.5403 217.228 26.6846 217.623 26.6846 218.081C26.6846 218.896 26.3789 219.584 25.7675 220.145C25.1646 220.705 24.3537 220.985 23.3347 220.985ZM26.3651 223.176L26.9001 221.775C27.0529 221.843 27.261 221.877 27.5242 221.877C27.8384 221.877 28.0932 221.733 28.2885 221.444L28.6706 220.871L27.5752 214.68H29.2565L29.9061 218.96L32.4791 214.68H34.2624L29.7788 221.839C29.4476 222.382 29.0952 222.764 28.7216 222.985C28.3564 223.214 27.9148 223.329 27.3969 223.329C27.0062 223.329 26.6623 223.278 26.3651 223.176ZM36.2965 220.985C35.7276 220.985 35.1841 220.892 34.6661 220.705C34.1566 220.51 33.732 220.234 33.3923 219.877L34.2967 218.795C34.492 219.032 34.7935 219.253 35.2011 219.457C35.6172 219.661 36.0333 219.763 36.4494 219.763C36.7126 219.763 36.9249 219.699 37.0862 219.572C37.2561 219.436 37.341 219.283 37.341 219.113C37.341 218.918 37.1754 218.748 36.8442 218.603C36.5215 218.451 36.1649 218.323 35.7743 218.221C35.3921 218.111 35.0355 217.92 34.7043 217.648C34.3816 217.368 34.2203 217.02 34.2203 216.604C34.2203 216.035 34.4453 215.546 34.8954 215.139C35.3539 214.731 35.9738 214.527 36.7551 214.527C37.273 214.527 37.7613 214.621 38.2199 214.808C38.6869 214.986 39.069 215.228 39.3662 215.534L38.5383 216.565C38.377 216.362 38.1222 216.179 37.7741 216.018C37.4344 215.848 37.0862 215.763 36.7296 215.763C36.4578 215.763 36.2413 215.822 36.08 215.941C35.9186 216.052 35.8379 216.192 35.8379 216.362C35.8379 216.498 35.9441 216.621 36.1564 216.731C36.3687 216.841 36.6277 216.943 36.9334 217.037C37.2391 217.13 37.5448 217.241 37.8505 217.368C38.1647 217.495 38.4279 217.686 38.6402 217.941C38.8525 218.187 38.9586 218.485 38.9586 218.833C38.9586 219.444 38.7166 219.958 38.2326 220.374C37.7571 220.782 37.1117 220.985 36.2965 220.985ZM42.1629 220.985C41.594 220.985 41.1439 220.875 40.8127 220.654C40.4901 220.425 40.3287 220.089 40.3287 219.648C40.3287 219.504 40.3457 219.363 40.3797 219.228L41.0675 216.081H40.0485L40.3669 214.68H41.3859L41.7553 212.999H43.3857L43.0163 214.68H44.2646L43.9334 216.081H42.6852L42.0992 218.756C42.0823 218.858 42.0738 218.943 42.0738 219.011C42.0738 219.368 42.2733 219.546 42.6724 219.546C42.8677 219.546 43.0163 219.504 43.1182 219.419L43.1819 220.718C42.9187 220.896 42.579 220.985 42.1629 220.985ZM47.4221 220.985C46.4456 220.985 45.6686 220.739 45.0912 220.247C44.5222 219.754 44.2377 219.079 44.2377 218.221C44.2377 217.202 44.5774 216.332 45.2567 215.61C45.9361 214.888 46.781 214.527 47.7915 214.527C48.5982 214.527 49.2606 214.778 49.7786 215.279C50.2966 215.771 50.5556 216.438 50.5556 217.279C50.5556 217.669 50.5131 218.001 50.4282 218.272H45.8554V218.425C45.8554 218.731 46.004 219.02 46.3012 219.291C46.6069 219.563 47.0188 219.699 47.5368 219.699C48.1736 219.699 48.6916 219.546 49.0907 219.24L49.6002 220.348C48.9804 220.773 48.2543 220.985 47.4221 220.985ZM46.021 217.177H49.1035V217.049C49.1035 216.71 48.9804 216.421 48.7341 216.183C48.4963 215.937 48.1482 215.814 47.6896 215.814C47.2735 215.814 46.9084 215.954 46.5942 216.234C46.2885 216.506 46.0974 216.82 46.021 217.177ZM60.2964 220.833H58.666L59.4939 217.113C59.5279 216.909 59.5449 216.773 59.5449 216.706C59.5449 216.476 59.4599 216.298 59.2901 216.171C59.1203 216.035 58.9122 215.967 58.666 215.967C58.2329 215.967 57.8041 216.205 57.3795 216.68L56.4751 220.833H54.8447L55.6727 217.113C55.7151 216.901 55.7363 216.752 55.7363 216.667C55.7279 216.464 55.6429 216.298 55.4816 216.171C55.3287 216.035 55.1122 215.967 54.832 215.967C54.4159 215.967 53.9956 216.205 53.571 216.68L52.6539 220.833H51.0362L52.3991 214.68H54.0168L53.8385 215.483C54.4329 214.846 55.057 214.527 55.7109 214.527C55.9911 214.527 56.2458 214.574 56.4751 214.668C56.7129 214.761 56.8912 214.871 57.0101 214.999C57.1375 215.126 57.2351 215.249 57.3031 215.368C57.371 215.479 57.405 215.568 57.405 215.636V215.661C58.0164 214.905 58.7254 214.527 59.5321 214.527C60.0246 214.527 60.4407 214.668 60.7804 214.948C61.1201 215.228 61.2899 215.61 61.2899 216.094C61.2899 216.264 61.2687 216.434 61.2262 216.604L60.2964 220.833Z" fill="white"/>
<path d="M21.5233 57.5034C20.3345 57.5034 19.3409 57.1553 18.5427 56.459C17.7445 55.7626 17.3454 54.8413 17.3454 53.6949C17.3454 52.2598 17.8294 51.071 18.7975 50.1284C19.7655 49.1858 20.9841 48.7145 22.4531 48.7145C23.3023 48.7145 24.0283 48.9141 24.6312 49.3132C25.2342 49.7123 25.6757 50.2133 25.956 50.8162L24.2873 51.5295C24.143 51.1729 23.8755 50.8842 23.4849 50.6634C23.1027 50.4341 22.6739 50.3195 22.1984 50.3195C21.3917 50.3195 20.6954 50.6337 20.1094 51.2621C19.5235 51.8904 19.2305 52.6632 19.2305 53.5803C19.2305 54.2426 19.4471 54.7946 19.8802 55.2362C20.3132 55.6777 20.8949 55.8985 21.6252 55.8985C22.2451 55.8985 22.8098 55.682 23.3193 55.2489L23.5486 54.2299H21.294L21.6507 52.6377H25.7139L24.9752 55.9495C24.1005 56.9854 22.9499 57.5034 21.5233 57.5034ZM29.4935 57.5034C28.517 57.5034 27.74 57.2572 27.1625 56.7647C26.5936 56.2721 26.3091 55.5971 26.3091 54.7394C26.3091 53.7204 26.6488 52.85 27.3281 52.1282C28.0075 51.4064 28.8524 51.0455 29.8629 51.0455C30.6696 51.0455 31.3319 51.296 31.8499 51.797C32.3679 52.2895 32.6269 52.9561 32.6269 53.7968C32.6269 54.1874 32.5845 54.5186 32.4996 54.7903H27.9268V54.9432C27.9268 55.2489 28.0754 55.5376 28.3726 55.8093C28.6783 56.0811 29.0901 56.2169 29.6081 56.2169C30.245 56.2169 30.763 56.0641 31.1621 55.7584L31.6716 56.8666C31.0517 57.2911 30.3257 57.5034 29.4935 57.5034ZM28.0924 53.6949H31.1749V53.5675C31.1749 53.2279 31.0517 52.9392 30.8055 52.7014C30.5677 52.4551 30.2195 52.332 29.761 52.332C29.3449 52.332 28.9798 52.4721 28.6656 52.7523C28.3599 53.0241 28.1688 53.3383 28.0924 53.6949ZM38.8777 57.3506H37.26L38.0752 53.6822C38.1177 53.4954 38.1389 53.3595 38.1389 53.2746C38.1389 53.0028 38.0497 52.8033 37.8714 52.6759C37.6931 52.5485 37.468 52.4849 37.1963 52.4849C36.6528 52.4849 36.1349 52.7226 35.6423 53.1982L34.7252 57.3506H33.1076L34.4705 51.1984H36.0882L35.9098 52.0008C36.5637 51.364 37.2473 51.0455 37.9606 51.0455C38.5465 51.0455 39.0135 51.1899 39.3617 51.4786C39.7099 51.7588 39.8839 52.1367 39.8839 52.6122C39.8839 52.7396 39.8627 52.9094 39.8202 53.1217L38.8777 57.3506ZM43.9103 57.5034C42.9337 57.5034 42.1568 57.2572 41.5793 56.7647C41.0104 56.2721 40.7259 55.5971 40.7259 54.7394C40.7259 53.7204 41.0656 52.85 41.7449 52.1282C42.4242 51.4064 43.2692 51.0455 44.2797 51.0455C45.0864 51.0455 45.7487 51.296 46.2667 51.797C46.7847 52.2895 47.0437 52.9561 47.0437 53.7968C47.0437 54.1874 47.0013 54.5186 46.9163 54.7903H42.3436V54.9432C42.3436 55.2489 42.4922 55.5376 42.7894 55.8093C43.0951 56.0811 43.5069 56.2169 44.0249 56.2169C44.6618 56.2169 45.1798 56.0641 45.5789 55.7584L46.0884 56.8666C45.4685 57.2911 44.7425 57.5034 43.9103 57.5034ZM42.5092 53.6949H45.5916V53.5675C45.5916 53.2279 45.4685 52.9392 45.2222 52.7014C44.9845 52.4551 44.6363 52.332 44.1778 52.332C43.7617 52.332 43.3965 52.4721 43.0823 52.7523C42.7766 53.0241 42.5856 53.3383 42.5092 53.6949ZM49.142 57.3506H47.5244L48.8873 51.1984H50.5049L50.3139 52.0008C50.9083 51.364 51.6386 51.0455 52.5047 51.0455L52.1481 52.6504C51.9443 52.5995 51.749 52.574 51.5621 52.574C50.9762 52.574 50.4667 52.8203 50.0336 53.3128L49.142 57.3506ZM55.5789 51.0455C55.9865 51.0455 56.3644 51.1304 56.7126 51.3003C57.0607 51.4701 57.3367 51.7079 57.5405 52.0136L57.7061 51.1984H59.3365L57.9736 57.3506H56.3432L56.5215 56.5863C56.0035 57.1977 55.3879 57.5034 54.6746 57.5034C53.9613 57.5034 53.3923 57.2784 52.9678 56.8283C52.5432 56.3783 52.3309 55.7541 52.3309 54.9559C52.3309 54.3106 52.4498 53.6992 52.6875 53.1217C52.9338 52.5358 53.3074 52.0433 53.8084 51.6442C54.3179 51.2451 54.9081 51.0455 55.5789 51.0455ZM55.8337 52.4849C55.3157 52.4849 54.8826 52.6971 54.5345 53.1217C54.1948 53.5463 54.025 54.0473 54.025 54.6248C54.025 55.0578 54.1523 55.406 54.4071 55.6692C54.6618 55.9325 54.9888 56.0641 55.3879 56.0641C55.9483 56.0641 56.4196 55.8221 56.8017 55.3381L57.273 53.1982C56.9588 52.7226 56.4791 52.4849 55.8337 52.4849ZM61.1954 57.3506H59.5777L61.4501 48.8547H63.0678L61.1954 57.3506ZM30.52 73.3506H28.7113L30.5837 64.8547H32.3924L30.52 73.3506ZM37.9385 73.3506H36.3209L37.1361 69.6822C37.1785 69.4954 37.1997 69.3595 37.1997 69.2746C37.1997 69.0028 37.1106 68.8033 36.9323 68.6759C36.7539 68.5485 36.5289 68.4849 36.2572 68.4849C35.7137 68.4849 35.1957 68.7226 34.7032 69.1982L33.7861 73.3506H32.1684L33.5313 67.1984H35.149L34.9707 68.0008C35.6245 67.364 36.3081 67.0455 37.0214 67.0455C37.6073 67.0455 38.0744 67.1899 38.4225 67.4786C38.7707 67.7588 38.9448 68.1367 38.9448 68.6122C38.9448 68.7396 38.9236 68.9094 38.8811 69.1217L37.9385 73.3506ZM41.5318 73.3506H39.9141L40.9586 68.5995H39.9396L40.258 67.1984H41.2643L41.3407 66.8544C41.4851 66.2176 41.7526 65.7038 42.1432 65.3132C42.5338 64.9226 43.0561 64.7273 43.7099 64.7273C44.3977 64.7273 44.937 64.9268 45.3276 65.3259L44.5251 66.2685C44.3468 66.0902 44.1175 66.001 43.8373 66.001C43.3787 66.001 43.0858 66.294 42.9584 66.8799L42.882 67.1984H44.143L43.8246 68.5995H42.5763L41.5318 73.3506ZM46.9853 73.5034C46.0258 73.5034 45.2785 73.2444 44.7435 72.7264C44.2086 72.2085 43.9411 71.5376 43.9411 70.7139C43.9411 69.7289 44.2807 68.8712 44.9601 68.1409C45.6394 67.4107 46.4843 67.0455 47.4948 67.0455C48.4544 67.0455 49.2017 67.3088 49.7367 67.8352C50.2801 68.3532 50.5519 69.0241 50.5519 69.8478C50.5519 70.8328 50.2122 71.6905 49.5329 72.4207C48.8535 73.1425 48.0044 73.5034 46.9853 73.5034ZM47.049 72.0641C47.5755 72.0641 48.0086 71.8518 48.3483 71.4272C48.6964 71.0026 48.8705 70.5016 48.8705 69.9242C48.8705 69.4741 48.7431 69.1217 48.4884 68.867C48.2336 68.6122 47.8855 68.4849 47.4439 68.4849C46.9174 68.4849 46.4801 68.7014 46.1319 69.1345C45.7838 69.5591 45.6097 70.0558 45.6097 70.6248C45.6097 71.0748 45.7371 71.4272 45.9918 71.682C46.2466 71.9367 46.599 72.0641 47.049 72.0641Z" fill="white"/>
<path d="M120.713 12H118.714L117.707 8.98121H116.306L115.644 12H113.835L115.708 3.50407H119.338C120.051 3.50407 120.667 3.72486 121.185 4.16642C121.703 4.60799 121.962 5.18543 121.962 5.89873C121.962 6.65449 121.732 7.3041 121.274 7.84757C120.824 8.39104 120.246 8.72646 119.542 8.85383L120.713 12ZM118.535 7.38902H118.561C119.028 7.38902 119.393 7.27013 119.656 7.03237C119.928 6.78611 120.064 6.46767 120.064 6.07705C120.064 5.79683 119.958 5.56331 119.745 5.37649C119.533 5.18967 119.283 5.09626 118.994 5.09626H117.172L116.663 7.38902H118.535ZM124.87 12.1529C123.91 12.1529 123.163 11.8939 122.628 11.3759C122.093 10.8579 121.825 10.187 121.825 9.36333C121.825 8.3783 122.165 7.52064 122.844 6.79035C123.524 6.06007 124.369 5.69493 125.379 5.69493C126.339 5.69493 127.086 5.95817 127.621 6.48465C128.164 7.00265 128.436 7.67349 128.436 8.49718C128.436 9.48222 128.097 10.3399 127.417 11.0702C126.738 11.792 125.889 12.1529 124.87 12.1529ZM124.933 10.7135C125.46 10.7135 125.893 10.5012 126.233 10.0766C126.581 9.65205 126.755 9.15104 126.755 8.57361C126.755 8.12355 126.627 7.77114 126.373 7.51639C126.118 7.26164 125.77 7.13427 125.328 7.13427C124.802 7.13427 124.364 7.3508 124.016 7.78388C123.668 8.20846 123.494 8.70523 123.494 9.27417C123.494 9.72423 123.621 10.0766 123.876 10.3314C124.131 10.5861 124.483 10.7135 124.933 10.7135ZM130.26 5.84778H131.891L131.063 9.5544C131.029 9.70725 131.012 9.83038 131.012 9.92378C131.012 10.187 131.105 10.3866 131.292 10.5224C131.488 10.6498 131.738 10.7135 132.044 10.7135C132.519 10.7135 133.008 10.4715 133.509 9.98747L134.426 5.84778H136.043L134.68 12H133.063L133.241 11.1975C132.57 11.8344 131.887 12.1529 131.19 12.1529C130.604 12.1529 130.137 12.0085 129.789 11.7198C129.441 11.4311 129.267 11.0489 129.267 10.5734C129.267 10.429 129.288 10.2635 129.331 10.0766L130.26 5.84778ZM142.057 12H140.439L141.254 8.33159C141.297 8.14478 141.318 8.00891 141.318 7.92399C141.318 7.65226 141.229 7.4527 141.05 7.32533C140.872 7.19795 140.647 7.13427 140.375 7.13427C139.832 7.13427 139.314 7.37203 138.821 7.84757L137.904 12H136.287L137.65 5.84778H139.267L139.089 6.65024C139.743 6.01336 140.426 5.69493 141.14 5.69493C141.726 5.69493 142.193 5.83929 142.541 6.128C142.889 6.40823 143.063 6.78611 143.063 7.26164C143.063 7.38902 143.042 7.55885 142.999 7.77114L142.057 12ZM147.128 5.69493C147.535 5.69493 147.913 5.77984 148.261 5.94968C148.609 6.11951 148.885 6.35728 149.089 6.66298L149.777 3.50407H151.407L149.522 12H147.892L148.07 11.2357C147.552 11.8471 146.936 12.1529 146.223 12.1529C145.51 12.1529 144.941 11.9278 144.516 11.4778C144.092 11.0277 143.879 10.4036 143.879 9.60535C143.879 8.95998 143.998 8.34858 144.236 7.77114C144.482 7.18522 144.856 6.6927 145.357 6.29359C145.867 5.89448 146.457 5.69493 147.128 5.69493ZM147.382 7.13427C146.864 7.13427 146.431 7.34656 146.083 7.77114C145.743 8.19573 145.574 8.69674 145.574 9.27417C145.574 9.70725 145.701 10.0554 145.956 10.3186C146.21 10.5819 146.537 10.7135 146.936 10.7135C147.497 10.7135 147.968 10.4715 148.35 9.98747L148.822 7.84757C148.507 7.37203 148.028 7.13427 147.382 7.13427ZM156.232 12H154.424L156.296 3.50407H160.028C160.792 3.50407 161.404 3.73335 161.862 4.1919C162.321 4.64196 162.55 5.19816 162.55 5.86051C162.55 6.20018 162.486 6.54409 162.359 6.89225C162.24 7.23192 162.053 7.5631 161.799 7.88578C161.544 8.20846 161.174 8.47171 160.69 8.67551C160.215 8.87931 159.663 8.98121 159.035 8.98121H156.907L156.232 12ZM157.251 7.38902H159.149C159.591 7.38902 159.952 7.26164 160.232 7.00689C160.512 6.75214 160.652 6.4337 160.652 6.05158C160.652 5.77135 160.555 5.54208 160.359 5.36375C160.164 5.18543 159.909 5.09626 159.595 5.09626H157.761L157.251 7.38902ZM163.952 12H162.334L163.697 5.84778H165.314L165.123 6.65024C165.718 6.01336 166.448 5.69493 167.314 5.69493L166.958 7.29985C166.754 7.2489 166.558 7.22343 166.372 7.22343C165.786 7.22343 165.276 7.46969 164.843 7.96221L163.952 12ZM170.197 12.1529C169.238 12.1529 168.491 11.8939 167.956 11.3759C167.421 10.8579 167.153 10.187 167.153 9.36333C167.153 8.3783 167.493 7.52064 168.172 6.79035C168.851 6.06007 169.696 5.69493 170.707 5.69493C171.666 5.69493 172.414 5.95817 172.949 6.48465C173.492 7.00265 173.764 7.67349 173.764 8.49718C173.764 9.48222 173.424 10.3399 172.745 11.0702C172.066 11.792 171.216 12.1529 170.197 12.1529ZM170.261 10.7135C170.788 10.7135 171.221 10.5012 171.56 10.0766C171.908 9.65205 172.083 9.15104 172.083 8.57361C172.083 8.12355 171.955 7.77114 171.7 7.51639C171.446 7.26164 171.098 7.13427 170.656 7.13427C170.129 7.13427 169.692 7.3508 169.344 7.78388C168.996 8.20846 168.822 8.70523 168.822 9.27417C168.822 9.72423 168.949 10.0766 169.204 10.3314C169.459 10.5861 169.811 10.7135 170.261 10.7135ZM176.824 14.4966C175.499 14.4966 174.51 14.1399 173.856 13.4266L174.798 12.3439C174.994 12.6072 175.27 12.811 175.626 12.9553C175.991 13.0997 176.382 13.1719 176.798 13.1719C177.724 13.1719 178.305 12.6411 178.543 11.5797L178.671 11.0192C178.161 11.6391 177.533 11.949 176.785 11.949C176.115 11.949 175.558 11.7452 175.117 11.3376C174.684 10.9216 174.467 10.2932 174.467 9.4525C174.467 8.45897 174.76 7.58433 175.346 6.82857C175.932 6.07281 176.701 5.69493 177.652 5.69493C178.025 5.69493 178.395 5.78409 178.76 5.96241C179.125 6.13225 179.418 6.36577 179.639 6.66298L179.817 5.84778H181.447L180.174 11.5797C180.055 12.1401 179.872 12.6156 179.626 13.0063C179.388 13.4054 179.112 13.7068 178.798 13.9106C178.484 14.1229 178.165 14.2715 177.843 14.3564C177.52 14.4498 177.18 14.4966 176.824 14.4966ZM177.55 10.5097C178.085 10.5097 178.547 10.2762 178.938 9.80915L179.371 7.89852C179.065 7.38902 178.564 7.13427 177.868 7.13427C177.367 7.13427 176.955 7.32958 176.633 7.72019C176.31 8.10232 176.149 8.57361 176.149 9.13406C176.149 9.55015 176.276 9.88557 176.531 10.1403C176.785 10.3866 177.125 10.5097 177.55 10.5097ZM183.307 12H181.689L183.052 5.84778H184.669L184.478 6.65024C185.073 6.01336 185.803 5.69493 186.669 5.69493L186.313 7.29985C186.109 7.2489 185.914 7.22343 185.727 7.22343C185.141 7.22343 184.631 7.46969 184.198 7.96221L183.307 12ZM189.705 12.1529C188.729 12.1529 187.952 11.9066 187.374 11.4141C186.805 10.9216 186.521 10.2465 186.521 9.38881C186.521 8.36981 186.861 7.49941 187.54 6.77762C188.219 6.05582 189.064 5.69493 190.075 5.69493C190.881 5.69493 191.544 5.94543 192.062 6.44644C192.58 6.93896 192.839 7.60555 192.839 8.44623C192.839 8.83685 192.796 9.16802 192.711 9.43976H188.139V9.59261C188.139 9.89831 188.287 10.187 188.584 10.4588C188.89 10.7305 189.302 10.8664 189.82 10.8664C190.457 10.8664 190.975 10.7135 191.374 10.4078L191.883 11.516C191.264 11.9406 190.537 12.1529 189.705 12.1529ZM188.304 8.34433H191.387V8.21696C191.387 7.87729 191.264 7.58857 191.017 7.3508C190.779 7.10455 190.431 6.98142 189.973 6.98142C189.557 6.98142 189.192 7.12153 188.877 7.40175C188.572 7.67349 188.381 7.98768 188.304 8.34433ZM195.994 12.1529C195.425 12.1529 194.882 12.0594 194.364 11.8726C193.854 11.6773 193.43 11.4013 193.09 11.0447L193.994 9.962C194.19 10.1998 194.491 10.4205 194.899 10.6243C195.315 10.8281 195.731 10.93 196.147 10.93C196.41 10.93 196.623 10.8664 196.784 10.739C196.954 10.6031 197.039 10.4503 197.039 10.2804C197.039 10.0851 196.873 9.91529 196.542 9.77093C196.219 9.61808 195.863 9.49071 195.472 9.38881C195.09 9.27842 194.733 9.08735 194.402 8.81562C194.079 8.53539 193.918 8.18724 193.918 7.77114C193.918 7.2022 194.143 6.71393 194.593 6.30633C195.052 5.89873 195.672 5.69493 196.453 5.69493C196.971 5.69493 197.459 5.78834 197.918 5.97515C198.385 6.15348 198.767 6.39549 199.064 6.70119L198.236 7.73293C198.075 7.52913 197.82 7.34656 197.472 7.18522C197.132 7.01538 196.784 6.93047 196.427 6.93047C196.156 6.93047 195.939 6.98991 195.778 7.10879C195.616 7.21918 195.536 7.3593 195.536 7.52913C195.536 7.665 195.642 7.78813 195.854 7.89852C196.066 8.00891 196.325 8.11081 196.631 8.20422C196.937 8.29763 197.243 8.40802 197.548 8.53539C197.862 8.66277 198.126 8.85383 198.338 9.10858C198.55 9.35484 198.656 9.65205 198.656 10.0002C198.656 10.6116 198.414 11.1254 197.93 11.5414C197.455 11.949 196.809 12.1529 195.994 12.1529ZM202.064 12.1529C201.496 12.1529 200.952 12.0594 200.434 11.8726C199.925 11.6773 199.5 11.4013 199.16 11.0447L200.065 9.962C200.26 10.1998 200.561 10.4205 200.969 10.6243C201.385 10.8281 201.801 10.93 202.217 10.93C202.481 10.93 202.693 10.8664 202.854 10.739C203.024 10.6031 203.109 10.4503 203.109 10.2804C203.109 10.0851 202.943 9.91529 202.612 9.77093C202.29 9.61808 201.933 9.49071 201.542 9.38881C201.16 9.27842 200.803 9.08735 200.472 8.81562C200.15 8.53539 199.988 8.18724 199.988 7.77114C199.988 7.2022 200.213 6.71393 200.663 6.30633C201.122 5.89873 201.742 5.69493 202.523 5.69493C203.041 5.69493 203.529 5.78834 203.988 5.97515C204.455 6.15348 204.837 6.39549 205.134 6.70119L204.306 7.73293C204.145 7.52913 203.89 7.34656 203.542 7.18522C203.202 7.01538 202.854 6.93047 202.498 6.93047C202.226 6.93047 202.009 6.98991 201.848 7.10879C201.687 7.21918 201.606 7.3593 201.606 7.52913C201.606 7.665 201.712 7.78813 201.924 7.89852C202.137 8.00891 202.396 8.11081 202.701 8.20422C203.007 8.29763 203.313 8.40802 203.618 8.53539C203.933 8.66277 204.196 8.85383 204.408 9.10858C204.62 9.35484 204.727 9.65205 204.727 10.0002C204.727 10.6116 204.485 11.1254 204.001 11.5414C203.525 11.949 202.88 12.1529 202.064 12.1529ZM207.867 5.18543C207.621 5.18543 207.413 5.10475 207.243 4.94341C207.082 4.78207 207.001 4.58676 207.001 4.35749C207.001 4.02631 207.111 3.76307 207.332 3.56776C207.562 3.36396 207.812 3.26206 208.084 3.26206C208.339 3.26206 208.547 3.34273 208.708 3.50407C208.878 3.66542 208.963 3.86072 208.963 4.09C208.963 4.42117 208.848 4.68866 208.619 4.89246C208.389 5.08777 208.139 5.18543 207.867 5.18543ZM207.077 12H205.46L206.823 5.84778H208.44L207.077 12ZM211.955 12.1529C210.996 12.1529 210.248 11.8939 209.713 11.3759C209.178 10.8579 208.911 10.187 208.911 9.36333C208.911 8.3783 209.25 7.52064 209.93 6.79035C210.609 6.06007 211.454 5.69493 212.465 5.69493C213.424 5.69493 214.171 5.95817 214.706 6.48465C215.25 7.00265 215.522 7.67349 215.522 8.49718C215.522 9.48222 215.182 10.3399 214.503 11.0702C213.823 11.792 212.974 12.1529 211.955 12.1529ZM212.019 10.7135C212.545 10.7135 212.978 10.5012 213.318 10.0766C213.666 9.65205 213.84 9.15104 213.84 8.57361C213.84 8.12355 213.713 7.77114 213.458 7.51639C213.203 7.26164 212.855 7.13427 212.414 7.13427C211.887 7.13427 211.45 7.3508 211.102 7.78388C210.753 8.20846 210.579 8.70523 210.579 9.27417C210.579 9.72423 210.707 10.0766 210.962 10.3314C211.216 10.5861 211.569 10.7135 212.019 10.7135ZM221.766 12H220.148L220.963 8.33159C221.006 8.14478 221.027 8.00891 221.027 7.92399C221.027 7.65226 220.938 7.4527 220.759 7.32533C220.581 7.19795 220.356 7.13427 220.084 7.13427C219.541 7.13427 219.023 7.37203 218.53 7.84757L217.613 12H215.996L217.359 5.84778H218.976L218.798 6.65024C219.452 6.01336 220.135 5.69493 220.849 5.69493C221.435 5.69493 221.902 5.83929 222.25 6.128C222.598 6.40823 222.772 6.78611 222.772 7.26164C222.772 7.38902 222.751 7.55885 222.708 7.77114L221.766 12ZM231.255 12.1529C230.057 12.1529 229.06 11.8047 228.261 11.1084C227.472 10.4036 227.077 9.48222 227.077 8.34433C227.077 6.88376 227.561 5.69068 228.529 4.76509C229.497 3.831 230.66 3.36396 232.019 3.36396C232.995 3.36396 233.798 3.58899 234.426 4.03905C235.063 4.48911 235.518 5.06654 235.789 5.77135L234.044 6.35728C233.883 5.91571 233.611 5.57604 233.229 5.33828C232.855 5.09202 232.422 4.96889 231.93 4.96889C231.115 4.96889 230.414 5.28308 229.828 5.91146C229.251 6.53985 228.962 7.31259 228.962 8.22969C228.962 8.90054 229.178 9.45674 229.612 9.89831C230.053 10.3314 230.635 10.5479 231.357 10.5479C231.722 10.5479 232.087 10.4588 232.452 10.2804C232.817 10.1021 233.119 9.86434 233.356 9.56713L234.745 10.5097C234.295 11.0871 233.755 11.5075 233.127 11.7707C232.507 12.0255 231.883 12.1529 231.255 12.1529ZM238.649 12.1529C237.69 12.1529 236.942 11.8939 236.407 11.3759C235.872 10.8579 235.605 10.187 235.605 9.36333C235.605 8.3783 235.945 7.52064 236.624 6.79035C237.303 6.06007 238.148 5.69493 239.159 5.69493C240.118 5.69493 240.865 5.95817 241.4 6.48465C241.944 7.00265 242.216 7.67349 242.216 8.49718C242.216 9.48222 241.876 10.3399 241.197 11.0702C240.517 11.792 239.668 12.1529 238.649 12.1529ZM238.713 10.7135C239.239 10.7135 239.672 10.5012 240.012 10.0766C240.36 9.65205 240.534 9.15104 240.534 8.57361C240.534 8.12355 240.407 7.77114 240.152 7.51639C239.897 7.26164 239.549 7.13427 239.108 7.13427C238.581 7.13427 238.144 7.3508 237.796 7.78388C237.448 8.20846 237.273 8.70523 237.273 9.27417C237.273 9.72423 237.401 10.0766 237.656 10.3314C237.91 10.5861 238.263 10.7135 238.713 10.7135ZM248.46 12H246.842L247.657 8.33159C247.7 8.14478 247.721 8.00891 247.721 7.92399C247.721 7.65226 247.632 7.4527 247.454 7.32533C247.275 7.19795 247.05 7.13427 246.778 7.13427C246.235 7.13427 245.717 7.37203 245.224 7.84757L244.307 12H242.69L244.053 5.84778H245.67L245.492 6.65024C246.146 6.01336 246.829 5.69493 247.543 5.69493C248.129 5.69493 248.596 5.83929 248.944 6.128C249.292 6.40823 249.466 6.78611 249.466 7.26164C249.466 7.38902 249.445 7.55885 249.402 7.77114L248.46 12ZM252.537 12.1529C251.968 12.1529 251.518 12.0425 251.187 11.8217C250.864 11.5924 250.703 11.257 250.703 10.8154C250.703 10.6711 250.72 10.5309 250.754 10.3951L251.442 7.2489H250.423L250.741 5.84778H251.76L252.13 4.16642H253.76L253.391 5.84778H254.639L254.308 7.2489H253.059L252.473 9.92378C252.456 10.0257 252.448 10.1106 252.448 10.1785C252.448 10.5352 252.647 10.7135 253.047 10.7135C253.242 10.7135 253.391 10.6711 253.492 10.5861L253.556 11.8854C253.293 12.0637 252.953 12.1529 252.537 12.1529ZM255.988 12H254.37L255.733 5.84778H257.35L257.159 6.65024C257.754 6.01336 258.484 5.69493 259.35 5.69493L258.994 7.29985C258.79 7.2489 258.595 7.22343 258.408 7.22343C257.822 7.22343 257.312 7.46969 256.879 7.96221L255.988 12ZM262.233 12.1529C261.274 12.1529 260.527 11.8939 259.992 11.3759C259.457 10.8579 259.189 10.187 259.189 9.36333C259.189 8.3783 259.529 7.52064 260.208 6.79035C260.888 6.06007 261.732 5.69493 262.743 5.69493C263.703 5.69493 264.45 5.95817 264.985 6.48465C265.528 7.00265 265.8 7.67349 265.8 8.49718C265.8 9.48222 265.46 10.3399 264.781 11.0702C264.102 11.792 263.252 12.1529 262.233 12.1529ZM262.297 10.7135C262.824 10.7135 263.257 10.5012 263.596 10.0766C263.945 9.65205 264.119 9.15104 264.119 8.57361C264.119 8.12355 263.991 7.77114 263.736 7.51639C263.482 7.26164 263.134 7.13427 262.692 7.13427C262.166 7.13427 261.728 7.3508 261.38 7.78388C261.032 8.20846 260.858 8.70523 260.858 9.27417C260.858 9.72423 260.985 10.0766 261.24 10.3314C261.495 10.5861 261.847 10.7135 262.297 10.7135ZM267.892 12H266.274L268.146 3.50407H269.764L267.892 12ZM271.113 12H269.496L271.368 3.50407H272.986L271.113 12ZM276.144 12.1529C275.167 12.1529 274.39 11.9066 273.813 11.4141C273.244 10.9216 272.959 10.2465 272.959 9.38881C272.959 8.36981 273.299 7.49941 273.978 6.77762C274.658 6.05582 275.503 5.69493 276.513 5.69493C277.32 5.69493 277.982 5.94543 278.5 6.44644C279.018 6.93896 279.277 7.60555 279.277 8.44623C279.277 8.83685 279.235 9.16802 279.15 9.43976H274.577V9.59261C274.577 9.89831 274.726 10.187 275.023 10.4588C275.329 10.7305 275.74 10.8664 276.258 10.8664C276.895 10.8664 277.413 10.7135 277.812 10.4078L278.322 11.516C277.702 11.9406 276.976 12.1529 276.144 12.1529ZM274.743 8.34433H277.825V8.21696C277.825 7.87729 277.702 7.58857 277.456 7.3508C277.218 7.10455 276.87 6.98142 276.411 6.98142C275.995 6.98142 275.63 7.12153 275.316 7.40175C275.01 7.67349 274.819 7.98768 274.743 8.34433ZM281.376 12H279.758L281.121 5.84778H282.738L282.547 6.65024C283.142 6.01336 283.872 5.69493 284.738 5.69493L284.382 7.29985C284.178 7.2489 283.982 7.22343 283.796 7.22343C283.21 7.22343 282.7 7.46969 282.267 7.96221L281.376 12Z" fill="white"/>
<path d="M381.339 38.4548H379.336L381.003 30.8607H378.271L378.663 29.1093H386.117L385.739 30.8607H383.007L381.339 38.4548ZM387.524 38.623C386.468 38.623 385.646 38.3381 385.058 37.7683C384.469 37.1985 384.175 36.4606 384.175 35.5545C384.175 34.471 384.549 33.5275 385.296 32.7242C386.043 31.9209 386.973 31.5193 388.084 31.5193C389.14 31.5193 389.962 31.8088 390.55 32.388C391.148 32.9577 391.447 33.6957 391.447 34.6017C391.447 35.6853 391.073 36.6287 390.326 37.432C389.579 38.226 388.645 38.623 387.524 38.623ZM387.594 37.0397C388.173 37.0397 388.649 36.8062 389.023 36.3391C389.406 35.8721 389.597 35.321 389.597 34.6858C389.597 34.1907 389.457 33.8031 389.177 33.5229C388.897 33.2426 388.514 33.1025 388.028 33.1025C387.449 33.1025 386.968 33.3407 386.585 33.8171C386.202 34.2841 386.01 34.8306 386.01 35.4564C386.01 35.9515 386.151 36.3391 386.431 36.6194C386.711 36.8996 387.099 37.0397 387.594 37.0397ZM393.453 31.6874H395.247L394.336 35.7647C394.299 35.9328 394.28 36.0682 394.28 36.171C394.28 36.4606 394.383 36.6801 394.588 36.8295C394.803 36.9696 395.079 37.0397 395.415 37.0397C395.938 37.0397 396.475 36.7735 397.026 36.2411L398.035 31.6874H399.815L398.315 38.4548H396.536L396.732 37.5721C395.994 38.2727 395.242 38.623 394.476 38.623C393.832 38.623 393.318 38.4642 392.935 38.1466C392.552 37.829 392.361 37.4087 392.361 36.8856C392.361 36.7268 392.384 36.5446 392.431 36.3391L393.453 31.6874ZM401.862 38.4548H400.082L401.581 31.6874H403.361L403.151 32.5701C403.805 31.8695 404.608 31.5193 405.561 31.5193L405.168 33.2847C404.944 33.2286 404.729 33.2006 404.524 33.2006C403.879 33.2006 403.319 33.4715 402.842 34.0133L401.862 38.4548ZM411.478 38.4548H409.699L410.596 34.4196C410.642 34.2141 410.666 34.0646 410.666 33.9712C410.666 33.6723 410.568 33.4528 410.371 33.3127C410.175 33.1726 409.928 33.1025 409.629 33.1025C409.031 33.1025 408.461 33.3641 407.919 33.8872L406.911 38.4548H405.131L406.63 31.6874H408.41L408.214 32.5701C408.933 31.8695 409.685 31.5193 410.469 31.5193C411.114 31.5193 411.628 31.678 412.011 31.9956C412.394 32.3039 412.585 32.7196 412.585 33.2426C412.585 33.3828 412.562 33.5696 412.515 33.8031L411.478 38.4548ZM417.056 31.5193C417.505 31.5193 417.92 31.6127 418.303 31.7995C418.686 31.9863 418.99 32.2478 419.214 32.5841L419.396 31.6874H421.19L419.69 38.4548H417.897L418.093 37.6142C417.523 38.2867 416.846 38.623 416.061 38.623C415.277 38.623 414.651 38.3754 414.184 37.8804C413.717 37.3853 413.483 36.6988 413.483 35.8207C413.483 35.1108 413.614 34.4383 413.876 33.8031C414.147 33.1586 414.558 32.6168 415.109 32.1778C415.669 31.7388 416.318 31.5193 417.056 31.5193ZM417.336 33.1025C416.767 33.1025 416.29 33.336 415.907 33.8031C415.534 34.2701 415.347 34.8212 415.347 35.4564C415.347 35.9328 415.487 36.3158 415.767 36.6053C416.047 36.8949 416.407 37.0397 416.846 37.0397C417.463 37.0397 417.981 36.7735 418.401 36.2411L418.92 33.8872C418.574 33.3641 418.046 33.1025 417.336 33.1025ZM431.641 38.4548H429.848L430.758 34.3635C430.796 34.1394 430.814 33.9899 430.814 33.9152C430.814 33.663 430.721 33.4668 430.534 33.3267C430.347 33.1773 430.119 33.1025 429.848 33.1025C429.371 33.1025 428.9 33.3641 428.432 33.8872L427.438 38.4548H425.644L426.555 34.3635C426.602 34.13 426.625 33.9666 426.625 33.8731C426.616 33.649 426.522 33.4668 426.345 33.3267C426.177 33.1773 425.938 33.1025 425.63 33.1025C425.173 33.1025 424.71 33.3641 424.243 33.8872L423.234 38.4548H421.455L422.954 31.6874H424.734L424.537 32.5701C425.191 31.8695 425.878 31.5193 426.597 31.5193C426.905 31.5193 427.185 31.5706 427.438 31.6734C427.699 31.7761 427.895 31.8976 428.026 32.0377C428.166 32.1778 428.274 32.3132 428.348 32.444C428.423 32.5654 428.461 32.6635 428.461 32.7382V32.7663C429.133 31.9349 429.913 31.5193 430.8 31.5193C431.342 31.5193 431.8 31.6734 432.174 31.9816C432.547 32.2899 432.734 32.7102 432.734 33.2426C432.734 33.4295 432.711 33.6163 432.664 33.8031L431.641 38.4548ZM437.155 38.623C436.081 38.623 435.226 38.3521 434.591 37.8103C433.965 37.2685 433.653 36.5259 433.653 35.5825C433.653 34.4616 434.026 33.5042 434.773 32.7102C435.521 31.9162 436.45 31.5193 437.562 31.5193C438.449 31.5193 439.178 31.7948 439.747 32.3459C440.317 32.8877 440.602 33.6209 440.602 34.5457C440.602 34.9754 440.555 35.3397 440.462 35.6386H435.432V35.8067C435.432 36.143 435.595 36.4606 435.922 36.7595C436.259 37.0584 436.712 37.2078 437.281 37.2078C437.982 37.2078 438.552 37.0397 438.991 36.7034L439.551 37.9224C438.869 38.3894 438.071 38.623 437.155 38.623ZM435.614 34.4336H439.005V34.2935C439.005 33.9199 438.869 33.6023 438.599 33.3407C438.337 33.0698 437.954 32.9344 437.45 32.9344C436.992 32.9344 436.59 33.0885 436.245 33.3968C435.908 33.6957 435.698 34.0413 435.614 34.4336ZM447.478 38.4548H445.699L446.595 34.4196C446.642 34.2141 446.665 34.0646 446.665 33.9712C446.665 33.6723 446.567 33.4528 446.371 33.3127C446.175 33.1726 445.927 33.1025 445.628 33.1025C445.031 33.1025 444.461 33.3641 443.919 33.8872L442.91 38.4548H441.131L442.63 31.6874H444.41L444.213 32.5701C444.933 31.8695 445.685 31.5193 446.469 31.5193C447.114 31.5193 447.627 31.678 448.01 31.9956C448.393 32.3039 448.585 32.7196 448.585 33.2426C448.585 33.3828 448.562 33.5696 448.515 33.8031L447.478 38.4548ZM451.963 38.623C451.337 38.623 450.842 38.5015 450.478 38.2587C450.123 38.0065 449.945 37.6375 449.945 37.1518C449.945 36.993 449.964 36.8389 450.001 36.6894L450.758 33.2286H449.637L449.987 31.6874H451.108L451.515 29.8379H453.308L452.902 31.6874H454.275L453.911 33.2286H452.537L451.893 36.171C451.874 36.2831 451.865 36.3765 451.865 36.4512C451.865 36.8435 452.084 37.0397 452.523 37.0397C452.738 37.0397 452.902 36.993 453.014 36.8996L453.084 38.3287C452.794 38.5249 452.421 38.623 451.963 38.623ZM388.899 55.623C387.582 55.623 386.485 55.24 385.607 54.474C384.738 53.6988 384.304 52.6853 384.304 51.4336C384.304 49.827 384.836 48.5146 385.901 47.4964C386.966 46.4689 388.245 45.9552 389.74 45.9552C390.814 45.9552 391.697 46.2027 392.388 46.6978C393.089 47.1929 393.588 47.828 393.887 48.6033L391.968 49.2478C391.79 48.7621 391.491 48.3885 391.071 48.1269C390.66 47.8561 390.184 47.7206 389.642 47.7206C388.745 47.7206 387.975 48.0662 387.33 48.7574C386.695 49.4487 386.377 50.2987 386.377 51.3075C386.377 52.0454 386.616 52.6572 387.092 53.143C387.578 53.6194 388.217 53.8575 389.011 53.8575C389.413 53.8575 389.815 53.7595 390.216 53.5633C390.618 53.3672 390.95 53.1056 391.211 52.7787L392.738 53.8155C392.243 54.4507 391.65 54.9131 390.959 55.2026C390.277 55.4829 389.591 55.623 388.899 55.623ZM397.033 55.623C395.978 55.623 395.156 55.3381 394.567 54.7683C393.979 54.1985 393.685 53.4606 393.685 52.5545C393.685 51.471 394.058 50.5275 394.805 49.7242C395.553 48.9209 396.482 48.5193 397.594 48.5193C398.649 48.5193 399.471 48.8088 400.06 49.388C400.657 49.9577 400.956 50.6957 400.956 51.6017C400.956 52.6853 400.583 53.6287 399.835 54.432C399.088 55.226 398.154 55.623 397.033 55.623ZM397.103 54.0397C397.682 54.0397 398.159 53.8062 398.532 53.3391C398.915 52.8721 399.107 52.321 399.107 51.6858C399.107 51.1907 398.967 50.8031 398.687 50.5229C398.406 50.2426 398.023 50.1025 397.538 50.1025C396.959 50.1025 396.477 50.3407 396.094 50.8171C395.712 51.2841 395.52 51.8306 395.52 52.4564C395.52 52.9515 395.66 53.3391 395.94 53.6194C396.221 53.8996 396.608 54.0397 397.103 54.0397ZM407.825 55.4548H406.046L406.942 51.4196C406.989 51.2141 407.012 51.0646 407.012 50.9712C407.012 50.6723 406.914 50.4528 406.718 50.3127C406.522 50.1726 406.274 50.1025 405.975 50.1025C405.378 50.1025 404.808 50.3641 404.266 50.8872L403.257 55.4548H401.478L402.977 48.6874H404.757L404.56 49.5701C405.28 48.8695 406.032 48.5193 406.816 48.5193C407.461 48.5193 407.974 48.678 408.357 48.9956C408.74 49.3039 408.932 49.7196 408.932 50.2426C408.932 50.3828 408.909 50.5696 408.862 50.8031L407.825 55.4548ZM412.31 55.623C411.684 55.623 411.189 55.5015 410.825 55.2587C410.47 55.0065 410.292 54.6375 410.292 54.1518C410.292 53.993 410.311 53.8389 410.348 53.6894L411.105 50.2286H409.984L410.334 48.6874H411.455L411.862 46.8379H413.655L413.249 48.6874H414.622L414.258 50.2286H412.884L412.24 53.171C412.221 53.2831 412.212 53.3765 412.212 53.4512C412.212 53.8435 412.431 54.0397 412.87 54.0397C413.085 54.0397 413.249 53.993 413.361 53.8996L413.431 55.3287C413.141 55.5249 412.768 55.623 412.31 55.623ZM416.106 55.4548H414.326L415.825 48.6874H417.605L417.395 49.5701C418.048 48.8695 418.852 48.5193 419.805 48.5193L419.412 50.2847C419.188 50.2286 418.973 50.2006 418.768 50.2006C418.123 50.2006 417.563 50.4715 417.086 51.0133L416.106 55.4548ZM422.976 55.623C421.92 55.623 421.098 55.3381 420.51 54.7683C419.922 54.1985 419.627 53.4606 419.627 52.5545C419.627 51.471 420.001 50.5275 420.748 49.7242C421.495 48.9209 422.425 48.5193 423.536 48.5193C424.592 48.5193 425.414 48.8088 426.002 49.388C426.6 49.9577 426.899 50.6957 426.899 51.6017C426.899 52.6853 426.525 53.6287 425.778 54.432C425.031 55.226 424.097 55.623 422.976 55.623ZM423.046 54.0397C423.625 54.0397 424.102 53.8062 424.475 53.3391C424.858 52.8721 425.05 52.321 425.05 51.6858C425.05 51.1907 424.91 50.8031 424.629 50.5229C424.349 50.2426 423.966 50.1025 423.48 50.1025C422.901 50.1025 422.42 50.3407 422.037 50.8171C421.654 51.2841 421.463 51.8306 421.463 52.4564C421.463 52.9515 421.603 53.3391 421.883 53.6194C422.163 53.8996 422.551 54.0397 423.046 54.0397ZM429.2 55.4548H427.421L429.48 46.1093H431.26L429.2 55.4548ZM432.744 55.4548H430.964L433.024 46.1093H434.804L432.744 55.4548ZM438.277 55.623C437.203 55.623 436.348 55.3521 435.713 54.8103C435.087 54.2685 434.775 53.5259 434.775 52.5825C434.775 51.4616 435.148 50.5042 435.895 49.7102C436.643 48.9162 437.572 48.5193 438.684 48.5193C439.571 48.5193 440.3 48.7948 440.869 49.3459C441.439 49.8877 441.724 50.6209 441.724 51.5457C441.724 51.9754 441.677 52.3397 441.584 52.6386H436.554V52.8067C436.554 53.143 436.717 53.4606 437.044 53.7595C437.381 54.0584 437.834 54.2078 438.403 54.2078C439.104 54.2078 439.674 54.0397 440.113 53.7034L440.673 54.9224C439.991 55.3894 439.193 55.623 438.277 55.623ZM436.736 51.4336H440.127V51.2935C440.127 50.9199 439.991 50.6023 439.721 50.3407C439.459 50.0698 439.076 49.9344 438.572 49.9344C438.114 49.9344 437.712 50.0885 437.367 50.3968C437.03 50.6957 436.82 51.0413 436.736 51.4336ZM444.032 55.4548H442.253L443.752 48.6874H445.531L445.321 49.5701C445.975 48.8695 446.778 48.5193 447.731 48.5193L447.339 50.2847C447.115 50.2286 446.9 50.2006 446.694 50.2006C446.05 50.2006 445.489 50.4715 445.013 51.0133L444.032 55.4548Z" fill="white"/>
<path d="M385.68 174.262H383.871L385.744 165.767H389.476C390.24 165.767 390.852 165.996 391.31 166.454C391.769 166.904 391.998 167.461 391.998 168.123C391.998 168.463 391.934 168.807 391.807 169.155C391.688 169.494 391.501 169.826 391.246 170.148C390.992 170.471 390.622 170.734 390.138 170.938C389.663 171.142 389.111 171.244 388.482 171.244H386.355L385.68 174.262ZM386.699 169.651H388.597C389.039 169.651 389.399 169.524 389.68 169.269C389.96 169.015 390.1 168.696 390.1 168.314C390.1 168.034 390.002 167.805 389.807 167.626C389.612 167.448 389.357 167.359 389.043 167.359H387.209L386.699 169.651ZM394.998 167.957C395.405 167.957 395.783 168.042 396.131 168.212C396.479 168.382 396.755 168.62 396.959 168.925L397.125 168.11H398.755L397.392 174.262H395.762L395.94 173.498C395.422 174.11 394.806 174.415 394.093 174.415C393.38 174.415 392.811 174.19 392.386 173.74C391.962 173.29 391.749 172.666 391.749 171.868C391.749 171.222 391.868 170.611 392.106 170.034C392.352 169.448 392.726 168.955 393.227 168.556C393.736 168.157 394.327 167.957 394.998 167.957ZM395.252 169.397C394.734 169.397 394.301 169.609 393.953 170.034C393.613 170.458 393.444 170.959 393.444 171.537C393.444 171.97 393.571 172.318 393.826 172.581C394.08 172.844 394.407 172.976 394.806 172.976C395.367 172.976 395.838 172.734 396.22 172.25L396.692 170.11C396.377 169.634 395.898 169.397 395.252 169.397ZM400.614 174.262H398.996L400.359 168.11H401.977L401.786 168.913C402.38 168.276 403.111 167.957 403.977 167.957L403.62 169.562C403.416 169.511 403.221 169.486 403.034 169.486C402.448 169.486 401.939 169.732 401.506 170.225L400.614 174.262ZM406.057 174.415C405.488 174.415 405.038 174.305 404.707 174.084C404.384 173.855 404.223 173.519 404.223 173.078C404.223 172.934 404.24 172.793 404.274 172.658L404.962 169.511H403.943L404.261 168.11H405.28L405.65 166.429H407.28L406.911 168.11H408.159L407.828 169.511H406.58L405.994 172.186C405.977 172.288 405.968 172.373 405.968 172.441C405.968 172.798 406.168 172.976 406.567 172.976C406.762 172.976 406.911 172.934 407.013 172.849L407.076 174.148C406.813 174.326 406.473 174.415 406.057 174.415ZM410.298 167.448C410.051 167.448 409.843 167.367 409.673 167.206C409.512 167.045 409.431 166.849 409.431 166.62C409.431 166.289 409.542 166.026 409.763 165.83C409.992 165.626 410.242 165.525 410.514 165.525C410.769 165.525 410.977 165.605 411.138 165.767C411.308 165.928 411.393 166.123 411.393 166.352C411.393 166.684 411.278 166.951 411.049 167.155C410.82 167.35 410.569 167.448 410.298 167.448ZM409.508 174.262H407.89L409.253 168.11H410.871L409.508 174.262ZM414.373 174.415C413.456 174.415 412.721 174.161 412.169 173.651C411.626 173.133 411.354 172.454 411.354 171.613C411.354 170.594 411.698 169.732 412.386 169.027C413.073 168.314 413.923 167.957 414.933 167.957C416.113 167.957 416.946 168.361 417.43 169.167L416.22 170.097C415.948 169.63 415.519 169.397 414.933 169.397C414.364 169.397 413.897 169.605 413.532 170.021C413.175 170.437 412.997 170.942 412.997 171.537C412.997 171.987 413.141 172.339 413.43 172.594C413.727 172.849 414.097 172.976 414.538 172.976C415.048 172.976 415.477 172.772 415.825 172.365L416.704 173.447C416.092 174.093 415.315 174.415 414.373 174.415ZM419.876 167.448C419.629 167.448 419.421 167.367 419.251 167.206C419.09 167.045 419.009 166.849 419.009 166.62C419.009 166.289 419.12 166.026 419.341 165.83C419.57 165.626 419.82 165.525 420.092 165.525C420.347 165.525 420.555 165.605 420.716 165.767C420.886 165.928 420.971 166.123 420.971 166.352C420.971 166.684 420.856 166.951 420.627 167.155C420.398 167.35 420.147 167.448 419.876 167.448ZM419.086 174.262H417.468L418.831 168.11H420.449L419.086 174.262ZM424.447 174.415C423.573 174.415 422.919 174.093 422.486 173.447L421.785 176.606H420.168L422.053 168.11H423.67L423.492 168.874C424.01 168.263 424.63 167.957 425.352 167.957C426.057 167.957 426.621 168.182 427.046 168.632C427.47 169.083 427.683 169.707 427.683 170.505C427.683 171.142 427.56 171.753 427.313 172.339C427.076 172.925 426.702 173.418 426.192 173.817C425.691 174.216 425.11 174.415 424.447 174.415ZM424.18 172.976C424.706 172.976 425.14 172.768 425.479 172.352C425.819 171.927 425.989 171.422 425.989 170.836C425.989 170.403 425.861 170.055 425.607 169.792C425.352 169.528 425.025 169.397 424.626 169.397C424.082 169.397 423.611 169.643 423.212 170.135L422.741 172.275C423.046 172.742 423.526 172.976 424.18 172.976ZM431.581 167.957C431.988 167.957 432.366 168.042 432.714 168.212C433.062 168.382 433.338 168.62 433.542 168.925L433.708 168.11H435.338L433.975 174.262H432.345L432.523 173.498C432.005 174.11 431.39 174.415 430.676 174.415C429.963 174.415 429.394 174.19 428.969 173.74C428.545 173.29 428.332 172.666 428.332 171.868C428.332 171.222 428.451 170.611 428.689 170.034C428.935 169.448 429.309 168.955 429.81 168.556C430.32 168.157 430.91 167.957 431.581 167.957ZM431.835 169.397C431.317 169.397 430.884 169.609 430.536 170.034C430.196 170.458 430.027 170.959 430.027 171.537C430.027 171.97 430.154 172.318 430.409 172.581C430.663 172.844 430.99 172.976 431.39 172.976C431.95 172.976 432.421 172.734 432.803 172.25L433.275 170.11C432.96 169.634 432.481 169.397 431.835 169.397ZM441.349 174.262H439.732L440.547 170.594C440.589 170.407 440.611 170.271 440.611 170.186C440.611 169.915 440.522 169.715 440.343 169.588C440.165 169.46 439.94 169.397 439.668 169.397C439.125 169.397 438.607 169.634 438.114 170.11L437.197 174.262H435.579L436.942 168.11H438.56L438.382 168.913C439.035 168.276 439.719 167.957 440.432 167.957C441.018 167.957 441.485 168.102 441.833 168.39C442.182 168.671 442.356 169.049 442.356 169.524C442.356 169.651 442.334 169.821 442.292 170.034L441.349 174.262ZM445.427 174.415C444.858 174.415 444.408 174.305 444.077 174.084C443.754 173.855 443.593 173.519 443.593 173.078C443.593 172.934 443.61 172.793 443.643 172.658L444.331 169.511H443.312L443.631 168.11H444.65L445.019 166.429H446.65L446.28 168.11H447.528L447.197 169.511H445.949L445.363 172.186C445.346 172.288 445.338 172.373 445.338 172.441C445.338 172.798 445.537 172.976 445.936 172.976C446.132 172.976 446.28 172.934 446.382 172.849L446.446 174.148C446.183 174.326 445.843 174.415 445.427 174.415ZM406.217 190.262H404.408L406.281 181.767H408.089L406.217 190.262ZM413.635 190.262H412.018L412.833 186.594C412.875 186.407 412.897 186.271 412.897 186.186C412.897 185.915 412.807 185.715 412.629 185.588C412.451 185.46 412.226 185.397 411.954 185.397C411.411 185.397 410.893 185.634 410.4 186.11L409.483 190.262H407.865L409.228 184.11H410.846L410.668 184.913C411.321 184.276 412.005 183.957 412.718 183.957C413.304 183.957 413.771 184.102 414.119 184.39C414.468 184.671 414.642 185.049 414.642 185.524C414.642 185.651 414.62 185.821 414.578 186.034L413.635 190.262ZM417.229 190.262H415.611L416.655 185.511H415.636L415.955 184.11H416.961L417.038 183.766C417.182 183.129 417.449 182.616 417.84 182.225C418.231 181.834 418.753 181.639 419.407 181.639C420.095 181.639 420.634 181.839 421.024 182.238L420.222 183.18C420.044 183.002 419.814 182.913 419.534 182.913C419.076 182.913 418.783 183.206 418.655 183.792L418.579 184.11H419.84L419.521 185.511H418.273L417.229 190.262ZM422.682 190.415C421.723 190.415 420.975 190.156 420.44 189.638C419.905 189.12 419.638 188.449 419.638 187.626C419.638 186.641 419.978 185.783 420.657 185.053C421.336 184.323 422.181 183.957 423.192 183.957C424.151 183.957 424.899 184.221 425.434 184.747C425.977 185.265 426.249 185.936 426.249 186.76C426.249 187.745 425.909 188.602 425.23 189.333C424.55 190.054 423.701 190.415 422.682 190.415ZM422.746 188.976C423.272 188.976 423.705 188.764 424.045 188.339C424.393 187.915 424.567 187.413 424.567 186.836C424.567 186.386 424.44 186.034 424.185 185.779C423.93 185.524 423.582 185.397 423.141 185.397C422.614 185.397 422.177 185.613 421.829 186.046C421.481 186.471 421.307 186.968 421.307 187.537C421.307 187.987 421.434 188.339 421.689 188.594C421.943 188.849 422.296 188.976 422.746 188.976Z" fill="white"/>
</svg>
