<svg width="456" height="255" viewBox="0 0 456 255" fill="none" xmlns="http://www.w3.org/2000/svg">
<rect x="34.1157" y="91.4526" width="387.768" height="63.6715" rx="7.10408" fill="#1C1C1C"/>
<rect x="34.1157" y="91.4526" width="387.768" height="63.6715" rx="7.10408" fill="#00E0B5" fill-opacity="0.01"/>
<rect x="34.1157" y="91.4526" width="387.768" height="63.6715" rx="7.10408" fill="white" fill-opacity="0.06"/>
<rect x="298.603" y="54.0344" width="153.818" height="141.21" rx="5.92006" transform="rotate(90 298.603 54.0344)" fill="#1C1C1C"/>
<rect x="298.603" y="54.0344" width="153.818" height="141.21" rx="5.92006" transform="rotate(90 298.603 54.0344)" fill="#00E0B5" fill-opacity="0.01"/>
<rect x="298.603" y="54.0344" width="153.818" height="141.21" rx="5.92006" transform="rotate(90 298.603 54.0344)" fill="white" fill-opacity="0.08"/>
<rect opacity="0.66" x="176.197" y="101.553" width="27.8994" height="14.2057" rx="7.10283" fill="#ACED8D"/>
<rect x="176.197" y="121.882" width="27.8994" height="14.2057" rx="7.10283" fill="#666666"/>
<rect opacity="0.66" x="176.197" y="142.211" width="27.8994" height="14.2057" rx="7.10283" fill="#ACED8D"/>
<rect opacity="0.66" x="176.197" y="162.54" width="27.8994" height="14.2057" rx="7.10283" fill="#ACED8D"/>
<rect x="254.466" y="101.554" width="27.8994" height="14.2057" rx="7.10283" fill="#666666"/>
<rect opacity="0.66" x="254.466" y="121.882" width="27.8994" height="14.2057" rx="7.10283" fill="#ED8DC7"/>
<rect x="254.466" y="142.211" width="27.8994" height="14.2057" rx="7.10283" fill="#666666"/>
<rect x="254.466" y="162.54" width="27.8994" height="14.2057" rx="7.10283" fill="#666666"/>
<rect x="176.197" y="182.319" width="106.168" height="17.155" rx="8.5775" fill="#0DFFD2"/>
<rect x="86.801" y="118.969" width="53.2364" height="7.91777" rx="3.95889" fill="#4F4F4F"/>
<rect width="53.2364" height="7.91777" rx="3.95889" transform="matrix(-1 0 0 1 369.196 118.969)" fill="#4F4F4F"/>
<rect x="86.801" y="110.13" width="32.6004" height="3.25379" rx="1.6269" fill="#4F4F4F"/>
<rect width="32.6004" height="3.25379" rx="1.6269" transform="matrix(-1 0 0 1 369.196 110.13)" fill="#4F4F4F"/>
<rect x="95.2568" y="134.028" width="44.7807" height="4.11966" rx="2.05983" fill="#4F4F4F"/>
<rect x="220.62" y="105.756" width="19.3147" height="4.11966" rx="2.05983" fill="#4F4F4F"/>
<rect x="220.62" y="125.954" width="19.3147" height="4.11966" rx="2.05983" fill="#4F4F4F"/>
<rect x="220.62" y="147.254" width="19.3147" height="4.11966" rx="2.05983" fill="#4F4F4F"/>
<rect x="220.62" y="167.583" width="19.3147" height="4.11966" rx="2.05983" fill="#4F4F4F"/>
<rect width="44.6058" height="4.11966" rx="2.05983" transform="matrix(-1 0 0 1 360.565 134.028)" fill="#4F4F4F"/>
<rect x="196.512" y="73.158" width="79.7429" height="8.69734" rx="4.34867" fill="#4F4F4F"/>
<circle cx="90.415" cy="136.088" r="3.61402" fill="#4F4F4F"/>
<circle r="3.61402" transform="matrix(-1 0 0 1 365.582 136.088)" fill="#4F4F4F"/>
<ellipse cx="182.979" cy="77.5045" rx="6.78205" ry="6.90635" fill="#4F4F4F"/>
<rect x="43.4048" y="105.756" width="35.0646" height="35.0646" rx="5.52539" fill="#ACED8D"/>
<rect width="35.0646" height="35.0646" rx="5.52539" transform="matrix(-1 0 0 1 412.593 105.756)" fill="#ED8DC7"/>
<path d="M55.2806 118.874C55.2806 120.594 53.886 118.874 52.1658 118.874C50.4456 118.874 49.051 120.594 49.051 118.874C49.051 117.154 50.4456 115.759 52.1658 115.759C53.886 115.759 55.2806 117.154 55.2806 118.874Z" fill="#292B2B"/>
<path d="M390.472 117.48C390.472 116.322 389.077 117.044 387.357 117.044C385.637 117.044 384.242 116.322 384.242 117.48C384.242 118.639 385.637 119.578 387.357 119.578C389.077 119.578 390.472 118.639 390.472 117.48Z" fill="#292B2B"/>
<path d="M73.2806 118.874C73.2806 120.594 71.886 118.874 70.1658 118.874C68.4456 118.874 67.051 120.594 67.051 118.874C67.051 117.154 68.4456 115.759 70.1658 115.759C71.886 115.759 73.2806 117.154 73.2806 118.874Z" fill="#292B2B"/>
<path d="M405.472 117.48C405.472 116.322 404.077 117.044 402.357 117.044C400.637 117.044 399.242 116.322 399.242 117.48C399.242 118.639 400.637 119.578 402.357 119.578C404.077 119.578 405.472 118.639 405.472 117.48Z" fill="#292B2B"/>
<path d="M52.7297 130.306C52.7297 129.084 53.7931 128.139 55.0107 128.236C59.3522 128.583 62.4559 128.367 66.7134 128.129C67.8915 128.063 68.8794 129.003 68.8794 130.183C68.8794 130.908 68.5053 131.591 67.8443 131.888C63.9988 133.621 57.5454 134.025 53.6153 131.904C53.0375 131.593 52.7297 130.962 52.7297 130.306Z" fill="#292B2B"/>
<path d="M387.273 128.999C387.273 128.464 387.68 128.017 388.21 127.952C391.364 127.56 396.423 126.677 401.765 127.965C401.99 128.019 402.165 128.195 402.223 128.419C402.498 129.482 401.634 130.497 400.538 130.412C395.125 129.994 393.556 130.166 388.38 130.524C387.782 130.565 387.273 130.092 387.273 129.493V128.999Z" fill="#292B2B"/>
<circle opacity="0.66" cx="208.813" cy="91.5785" r="3.36614" fill="#ACED8D"/>
<circle opacity="0.66" cx="219.545" cy="91.5785" r="3.36614" fill="#ACED8D"/>
<circle opacity="0.66" cx="230.277" cy="91.5785" r="3.36614" fill="#ACED8D"/>
<circle cx="241.009" cy="91.5785" r="3.36614" fill="#666666"/>
<circle opacity="0.66" cx="251.741" cy="91.5785" r="3.36614" fill="#ED8DC7"/>
<path d="M205.357 195.16H203.653L204.373 191.884L202.333 187.156H204.181L205.465 190.372L208.141 187.156H210.181L206.077 191.884L205.357 195.16ZM213.276 195.304C212.14 195.304 211.2 194.976 210.456 194.32C209.712 193.664 209.34 192.796 209.34 191.716C209.34 190.404 209.788 189.296 210.684 188.392C211.58 187.48 212.684 187.024 213.996 187.024C215.124 187.024 216.06 187.352 216.804 188.008C217.548 188.664 217.92 189.528 217.92 190.6C217.92 191.912 217.472 193.024 216.576 193.936C215.688 194.848 214.588 195.304 213.276 195.304ZM213.372 193.792C214.14 193.792 214.792 193.496 215.328 192.904C215.872 192.304 216.144 191.576 216.144 190.72C216.144 190.056 215.932 189.528 215.508 189.136C215.084 188.736 214.544 188.536 213.888 188.536C213.112 188.536 212.456 188.836 211.92 189.436C211.384 190.028 211.116 190.752 211.116 191.608C211.116 192.272 211.328 192.804 211.752 193.204C212.176 193.596 212.716 193.792 213.372 193.792ZM222.26 195.304C221.132 195.304 220.268 195.052 219.668 194.548C219.076 194.044 218.78 193.364 218.78 192.508C218.78 192.348 218.8 192.168 218.84 191.968L219.896 187.156H221.624L220.58 191.92C220.548 192.016 220.532 192.148 220.532 192.316C220.54 192.74 220.692 193.096 220.988 193.384C221.292 193.664 221.716 193.804 222.26 193.804C223.364 193.804 224.052 193.176 224.324 191.92L225.38 187.156H227.12L226.052 191.956C225.82 193.02 225.408 193.844 224.816 194.428C224.224 195.012 223.372 195.304 222.26 195.304ZM237.935 195.16H236.123L235.931 189.664L233.327 195.16H231.515L230.987 187.156H232.859L232.979 192.94L235.775 187.156H237.107L237.347 192.94L240.023 187.156H241.979L237.935 195.16ZM245.256 195.304C244.12 195.304 243.18 194.976 242.436 194.32C241.692 193.664 241.32 192.796 241.32 191.716C241.32 190.404 241.768 189.296 242.664 188.392C243.56 187.48 244.664 187.024 245.976 187.024C247.104 187.024 248.04 187.352 248.784 188.008C249.528 188.664 249.9 189.528 249.9 190.6C249.9 191.912 249.452 193.024 248.556 193.936C247.668 194.848 246.568 195.304 245.256 195.304ZM245.352 193.792C246.12 193.792 246.772 193.496 247.308 192.904C247.852 192.304 248.124 191.576 248.124 190.72C248.124 190.056 247.912 189.528 247.488 189.136C247.064 188.736 246.524 188.536 245.868 188.536C245.092 188.536 244.436 188.836 243.9 189.436C243.364 190.028 243.096 190.752 243.096 191.608C243.096 192.272 243.308 192.804 243.732 193.204C244.156 193.596 244.696 193.792 245.352 193.792ZM257.276 195.16H255.632L253.016 189.76L251.816 195.16H250.112L251.876 187.156H253.628L256.172 192.364L257.336 187.156H259.04L257.276 195.16Z" fill="#414141"/>
<g clip-path="url(#clip0_124_4168)">
<path d="M79.4233 96.1371L80.8566 96.5211L81.2406 95.0879L88.4067 97.0081L88.0227 98.4413L89.4559 98.8253C90.2442 99.0365 90.7163 99.8543 90.5051 100.643L90.3131 101.359C89.8235 103.187 88.0482 104.308 86.2186 104.056C85.4791 105.01 84.2947 105.561 83.0633 105.484L82.468 107.706L85.3345 108.474L84.9504 109.907L77.7843 107.987L78.1683 106.554L81.0348 107.322L81.63 105.1C80.5253 104.551 79.7749 103.482 79.6114 102.286C77.9009 101.589 76.9244 99.7303 77.4141 97.9029L77.6061 97.1863C77.8173 96.398 78.6351 95.9259 79.4233 96.1371ZM88.8799 100.975L89.0719 100.259L87.6387 99.8745L86.9052 102.612C87.8171 102.534 88.6303 101.907 88.8799 100.975ZM82.7115 103.931C83.8939 104.248 85.1205 103.539 85.4374 102.357L86.5895 98.0573L82.2898 96.9052L81.1377 101.205C80.8209 102.387 81.5291 103.614 82.7115 103.931ZM78.8473 98.2869C78.5977 99.2185 78.9884 100.168 79.739 100.692L80.4725 97.9544L79.0393 97.5703L78.8473 98.2869Z" fill="white"/>
</g>
<defs>
<clipPath id="clip0_124_4168">
<rect width="17.8055" height="17.8055" fill="white" transform="matrix(-0.965926 -0.258819 -0.258819 0.965926 93.999 96.2024)"/>
</clipPath>
</defs>
</svg>
